#N canvas 769 343 622 435 10;
#X obj 231 282 vline~;
#X obj 231 218 pack f f f f;
#X msg 374 246 0 \$2;
#X obj 374 214 pack f f;
#X msg 231 246 \$1 \$2 \, \$4 \$3 \$2;
#X obj 374 172 sel 0;
#X obj 231 304 outlet~;
#X obj 231 60 inlet;
#X obj 231 82 / 127;
#X obj 110 139 vsl 15 50 0 1000 0 0 empty a-\$1 empty 0 -9 0 10 -262144
-1 -1 0 1;
#X obj 132 139 vsl 15 50 0 2000 0 0 empty d-\$1 empty 0 -9 0 10 -262144
-1 -1 600 1;
#X obj 155 139 vsl 15 50 0 10 0 0 empty s-\$1 empty 0 -9 0 10 -262144
-1 -1 0 1;
#X obj 177 139 vsl 15 50 0 1000 0 0 empty r-\$1 empty 0 -9 0 10 -262144
-1 -1 0 1;
#X obj 198 40 bng 15 250 50 0 empty play-\$1 empty 17 7 0 10 -262144
-1 -1;
#X msg 198 60 100;
#X obj 113 266 s \$1-d;
#X floatatom 42 245 5 0 0 0 - - -, f 5;
#X obj 364 52 r adsr-\$1-a;
#X obj 374 72 r adsr-\$1-d;
#X obj 384 92 r adsr-\$1-s;
#X obj 394 112 r adsr-\$1-r;
#X connect 0 0 6 0;
#X connect 1 0 4 0;
#X connect 2 0 0 0;
#X connect 3 0 2 0;
#X connect 4 0 0 0;
#X connect 5 0 3 0;
#X connect 7 0 5 0;
#X connect 7 0 8 0;
#X connect 8 0 1 0;
#X connect 9 0 1 1;
#X connect 10 0 1 2;
#X connect 10 0 15 0;
#X connect 10 0 16 0;
#X connect 11 0 1 3;
#X connect 12 0 3 1;
#X connect 13 0 14 0;
#X connect 14 0 8 0;
#X connect 17 0 9 0;
#X connect 18 0 10 0;
#X connect 19 0 11 0;
#X connect 20 0 12 0;
#X coords 0 -1 1 1 100 100 1 100 100;
