#N canvas 1305 335 344 332 10;
#X obj 100 100 cnv 15 80 80 empty empty empty 2 10 0 14 -1 -262144
0;
#X obj 101 101 cnv 15 76 76 empty empty digicrush 2 10 0 14 -228856
-262144 0;
#X obj 58 207 quantize~;
#X obj 145 120 nbx 2 14 0 32 0 0 empty empty empty 0 -8 0 10 -262144
-1 -1 0 256;
#X obj 121 138 hsl 50 15 0 1 0 0 empty empty empty -2 -8 0 10 -262144
-1 -1 0 1;
#X obj 121 158 hsl 50 15 0 1 0 0 empty empty empty -2 -8 0 10 -262144
-1 -1 0 1;
#X obj 27 88 inlet~;
#X obj 28 179 *~;
#X obj 57 179 *~;
#X obj 29 284 outlet~;
#X connect 2 0 9 0;
#X connect 3 0 2 0;
#X connect 4 0 7 1;
#X connect 5 0 8 1;
#X connect 6 0 7 0;
#X connect 6 0 8 0;
#X connect 7 0 9 0;
#X connect 8 0 2 0;
#X coords 0 -1 1 1 80 80 1 100 100;
