#N canvas 357 201 450 300 10;
#X obj 100 100 cnv 15 80 80 empty empty empty 20 10 0 14 -1 -66577
0;
#X obj 101 101 cnv 15 76 76 empty empty digiwreck 0 10 0 14 -228856
-262144 0;
#X obj 188 79 inlet~;
#X obj 223 104 swap~;
#X obj 223 126 *~;
#X obj 118 158 hsl 50 15 0 1 0 0 empty empty empty -2 -8 0 10 -262144
-1 -1 800 1;
#X obj 118 138 hsl 50 15 0 1 0 0 empty empty empty -2 -8 0 10 -262144
-1 -1 600 1;
#X obj 189 126 *~;
#X obj 155 119 tgl 15 0 empty empty empty 17 7 0 10 -262144 -1 -1 1
1;
#X obj 189 171 outlet~;
#X connect 2 0 7 0;
#X connect 2 0 3 0;
#X connect 3 0 4 0;
#X connect 4 0 9 0;
#X connect 5 0 4 1;
#X connect 6 0 7 1;
#X connect 7 0 9 0;
#X connect 8 0 3 0;
#X coords 0 -1 1 1 80 80 1 100 100;
