#N canvas 946 132 687 415 10;
#X obj 77 255 inlet~;
#N canvas 18 78 429 300 hp 0;
#X obj 29 14 inlet~;
#X obj 29 60 hip~;
#X obj 29 109 outlet~;
#X obj 78 14 inlet;
#X obj 125 36 switch~;
#X obj 125 13 r switchhp-\$1;
#X connect 0 0 1 0;
#X connect 1 0 2 0;
#X connect 3 0 1 1;
#X connect 5 0 4 0;
#X restore 100 317 pd hp;
#N canvas 16 78 429 300 lp 0;
#X obj 29 14 inlet~;
#X obj 29 109 outlet~;
#X obj 78 14 inlet;
#X obj 29 61 lop~;
#X obj 126 13 r switchlp-\$1;
#X obj 126 35 switch~;
#X connect 0 0 3 0;
#X connect 2 0 3 1;
#X connect 3 0 1 0;
#X connect 4 0 5 0;
#X restore 150 317 pd lp;
#N canvas 12 78 429 300 bp 0;
#X obj 29 14 inlet~;
#X obj 29 109 outlet~;
#X obj 78 14 inlet;
#X obj 29 60 bp~;
#X obj 121 14 inlet;
#X obj 166 35 switch~;
#X obj 166 13 r switchbp-\$1;
#X connect 0 0 3 0;
#X connect 2 0 3 1;
#X connect 3 0 1 0;
#X connect 4 0 3 2;
#X connect 6 0 5 0;
#X restore 194 317 pd bp;
#X obj 132 375 outlet~;
#X obj 119 187 hsl 100 15 0 2000 0 0 empty empty f -14 8 0 10 -262144
-1 -1 0 1;
#X obj 119 208 hsl 100 15 0.2 10 0 0 empty empty q -14 8 0 10 -262144
-1 -1 0 1;
#X msg 279 209 1;
#X msg 299 229 0;
#X msg 365 202 1;
#X msg 385 222 0;
#X msg 442 222 1;
#X msg 462 242 0;
#X obj 299 351 s switchlp-\$1;
#X obj 279 330 s switchhp-\$1;
#X obj 416 350 s switchbp-\$1;
#X obj 207 120 vradio 15 1 0 4 empty empty empty 0 -8 0 10 -262144
-1 -1 0;
#X text 150 119 highpass;
#X text 156 135 lowpass;
#X text 150 151 bandpass;
#X text 162 165 bypass;
#N canvas 449 176 450 300 by 0;
#X obj 80 20 inlet~;
#X obj 80 42 *~ 1;
#X obj 80 64 outlet~;
#X obj 147 20 inlet;
#X obj 147 63 switch~;
#X connect 0 0 1 0;
#X connect 1 0 2 0;
#X connect 3 0 4 0;
#X restore 46 317 pd by;
#X obj 296 105 sel 0 1 2 3;
#X msg 535 264 1;
#X msg 555 284 0;
#X obj 211 28 loadbang;
#X msg 211 50 3;
#X obj 330 43 r select-filter-\$1;
#X obj 453 101 r filter-\$1-q;
#X obj 451 72 r filter-\$1-freq;
#X connect 0 0 1 0;
#X connect 0 0 2 0;
#X connect 0 0 3 0;
#X connect 0 0 21 0;
#X connect 1 0 4 0;
#X connect 2 0 4 0;
#X connect 3 0 4 0;
#X connect 5 0 1 1;
#X connect 5 0 2 1;
#X connect 5 0 3 1;
#X connect 6 0 3 2;
#X connect 7 0 14 0;
#X connect 8 0 13 0;
#X connect 8 0 15 0;
#X connect 8 0 21 1;
#X connect 9 0 13 0;
#X connect 10 0 14 0;
#X connect 10 0 15 0;
#X connect 10 0 21 1;
#X connect 11 0 15 0;
#X connect 12 0 13 0;
#X connect 12 0 14 0;
#X connect 12 0 21 1;
#X connect 16 0 22 0;
#X connect 21 0 4 0;
#X connect 22 0 7 0;
#X connect 22 0 8 0;
#X connect 22 1 9 0;
#X connect 22 1 10 0;
#X connect 22 2 11 0;
#X connect 22 2 12 0;
#X connect 22 3 23 0;
#X connect 22 3 24 0;
#X connect 23 0 21 1;
#X connect 24 0 14 0;
#X connect 24 0 13 0;
#X connect 24 0 15 0;
#X connect 25 0 26 0;
#X connect 26 0 16 0;
#X connect 27 0 16 0;
#X connect 28 0 6 0;
#X connect 29 0 5 0;
#X coords 0 -1 1 1 130 130 1 100 100;
