#N canvas 766 439 461 287 10;
#X obj 259 138 osc~;
#X obj 258 116 +~;
#X obj 258 160 *~;
#X obj 110 161 hsl 100 15 0 8000 0 0 empty empty frequency -2 -8 0
10 -262144 -1 -1 0 1;
#X obj 110 192 hsl 100 15 0 8000 0 0 empty empty amount -2 -8 0 10
-262144 -1 -1 0 1;
#X obj 197 108 tgl 15 0 empty empty empty 17 7 0 10 -262144 -1 -1 1
1;
#X obj 197 249 switch~;
#X obj 259 202 outlet~;
#X obj 305 12 inlet~;
#X obj 180 35 r fm-\$1-on;
#X obj 83 50 r fm-\$1-freq;
#X obj 83 72 r fm-\$1-amount;
#X obj 257 12 inlet~;
#X obj 266 37 sig~;
#X obj 373 16 loadbang;
#X msg 373 39 1;
#X connect 0 0 2 0;
#X connect 1 0 0 0;
#X connect 2 0 7 0;
#X connect 3 0 13 0;
#X connect 4 0 2 1;
#X connect 5 0 6 0;
#X connect 8 0 1 1;
#X connect 9 0 5 0;
#X connect 10 0 3 0;
#X connect 11 0 4 0;
#X connect 12 0 1 0;
#X connect 13 0 1 0;
#X connect 14 0 15 0;
#X connect 15 0 5 0;
#X coords 0 -1 1 1 120 120 1 100 100;
