#N canvas 1048 128 626 557 10;
#X obj 273 49 hsl 128 15 0 1 0 1 empty empty pregain 5 7 0 10 -257985
-258113 -1 12700 1;
#X obj 273 64 hsl 128 15 0 1 0 1 empty empty clip 5 7 0 10 -262144
-258113 -1 3900 1;
#X obj 273 94 hsl 128 15 0 1 0 1 empty empty postgain 5 7 0 10 -204800
-258113 -1 11300 1;
#X obj 273 109 hsl 128 15 0 127 0 1 empty empty lowpass 5 7 0 10 -262144
-260097 -1 4700 1;
#X obj 273 79 hsl 128 15 0 2 0 1 empty empty fuzz 5 7 0 10 -262144
-258113 -1 2900 1;
#N canvas 16 75 831 639 fuzz 0;
#X obj 372 48 * -1;
#X obj 372 -8 * 0.99;
#X obj 372 15 + 0.01;
#X obj 53 145 -~;
#X obj 429 -11 * 10;
#X obj 53 203 clip~ -1 1;
#X obj 38 230 -~;
#X obj 287 -20 * 8;
#X obj 24 321 -~;
#X obj 22 35 *~ 3.2;
#X obj 37 110 clip~ -0.307 0.307;
#X obj 53 175 *~ 1;
#X obj 23 348 *~ 0;
#X obj 193 319 *~ 1;
#X obj 38 286 *~ 1;
#X obj 23 260 *~ 1;
#X obj 22 -19 inlet~;
#X obj 41 529 outlet~;
#X obj 287 -55 inlet;
#X obj 372 -55 inlet;
#X obj 482 -55 inlet;
#X obj 546 -56 inlet;
#X obj 429 -55 inlet;
#X obj 200 150 -~;
#X obj 200 208 clip~ -1 1;
#X obj 185 235 -~;
#X obj 168 319 -~;
#X obj 168 35 *~ 3.2;
#X obj 184 115 clip~ -0.307 0.307;
#X obj 200 180 *~ 1;
#X obj 166 343 *~ 0;
#X obj 184 285 *~ 1;
#X obj 167 258 *~ 1;
#X obj 168 -19 inlet~;
#X obj 179 529 outlet~;
#X obj 482 -10 * 4;
#N canvas 0 0 450 300 lpf 0;
#X obj 109 29 inlet~;
#X obj 108 129 lop~;
#X obj 145 129 vcf~;
#X obj 145 168 vcf~;
#X obj 108 228 +~;
#X obj 159 29 inlet;
#X obj 212 29 inlet;
#X obj 108 255 outlet~;
#X obj 146 199 *~;
#X obj 211 164 / 10;
#X connect 0 0 1 0;
#X connect 0 0 2 0;
#X connect 1 0 4 0;
#X connect 2 0 3 0;
#X connect 3 0 8 0;
#X connect 4 0 7 0;
#X connect 5 0 1 1;
#X connect 5 0 2 1;
#X connect 5 0 3 1;
#X connect 6 0 3 2;
#X connect 6 0 2 2;
#X connect 6 0 9 0;
#X connect 8 0 4 1;
#X connect 9 0 8 1;
#X restore 193 376 pd lpf;
#N canvas 2 75 450 300 lpf 0;
#X obj 109 29 inlet~;
#X obj 108 129 lop~;
#X obj 145 129 vcf~;
#X obj 145 168 vcf~;
#X obj 108 228 +~;
#X obj 161 29 inlet;
#X obj 212 29 inlet;
#X obj 108 255 outlet~;
#X obj 146 195 *~;
#X obj 212 166 / 10;
#X connect 0 0 1 0;
#X connect 0 0 2 0;
#X connect 1 0 4 0;
#X connect 2 0 3 0;
#X connect 3 0 8 0;
#X connect 4 0 7 0;
#X connect 5 0 1 1;
#X connect 5 0 2 1;
#X connect 5 0 3 1;
#X connect 6 0 3 2;
#X connect 6 0 2 2;
#X connect 6 0 9 0;
#X connect 8 0 4 1;
#X connect 9 0 8 1;
#X restore 54 380 pd lpf;
#X obj 630 -54 inlet;
#X text 282 -75 pregain;
#X text 371 -74 clip;
#X text 482 -73 postgain;
#X text 430 -75 fuzz;
#X text 18 552 distortion;
#X text 547 -73 cutoff;
#X text 640 -71 Q;
#X obj 680 -54 inlet;
#X text 677 -72 amp dry;
#X obj 208 428 *~;
#X obj 192 456 +~;
#X obj 207 399 lop~;
#X obj 70 430 *~;
#X obj 55 456 +~;
#X obj 70 402 lop~;
#X obj 54 322 *~ 1;
#X obj 546 -27 mtof;
#X floatatom 546 -3 7 0 0 0 - - -, f 7;
#X obj -3 400 * -1;
#X obj -3 427 + 1;
#X obj 744 -54 inlet;
#X text 750 -71 on;
#X obj 55 486 *~;
#X obj 40 507 +~;
#X obj 145 413 * -1;
#X obj 145 440 + 1;
#X obj 178 503 +~;
#X obj 193 478 *~;
#X obj -24 457 *~ 1;
#X obj 124 467 *~ 1;
#X connect 0 0 5 1;
#X connect 0 0 10 1;
#X connect 0 0 28 1;
#X connect 0 0 24 1;
#X connect 1 0 2 0;
#X connect 2 0 0 0;
#X connect 2 0 5 2;
#X connect 2 0 10 2;
#X connect 2 0 28 2;
#X connect 2 0 24 2;
#X connect 3 0 11 0;
#X connect 4 0 11 1;
#X connect 4 0 29 1;
#X connect 5 0 6 1;
#X connect 6 0 14 0;
#X connect 7 0 9 1;
#X connect 7 0 27 1;
#X connect 8 0 12 0;
#X connect 9 0 3 0;
#X connect 9 0 10 0;
#X connect 9 0 15 0;
#X connect 10 0 3 1;
#X connect 10 0 6 0;
#X connect 11 0 5 0;
#X connect 12 0 37 0;
#X connect 13 0 36 0;
#X connect 14 0 8 1;
#X connect 14 0 54 0;
#X connect 15 0 8 0;
#X connect 16 0 9 0;
#X connect 16 0 53 0;
#X connect 16 0 67 0;
#X connect 18 0 7 0;
#X connect 19 0 1 0;
#X connect 20 0 35 0;
#X connect 21 0 55 0;
#X connect 22 0 4 0;
#X connect 23 0 29 0;
#X connect 24 0 25 1;
#X connect 25 0 31 0;
#X connect 26 0 30 0;
#X connect 27 0 23 0;
#X connect 27 0 28 0;
#X connect 27 0 32 0;
#X connect 28 0 23 1;
#X connect 28 0 25 0;
#X connect 29 0 24 0;
#X connect 30 0 36 0;
#X connect 31 0 26 1;
#X connect 31 0 13 0;
#X connect 32 0 26 0;
#X connect 33 0 27 0;
#X connect 33 0 50 0;
#X connect 33 0 68 0;
#X connect 35 0 32 1;
#X connect 35 0 15 1;
#X connect 35 0 14 1;
#X connect 35 0 31 1;
#X connect 36 0 49 0;
#X connect 37 0 52 0;
#X connect 38 0 36 2;
#X connect 38 0 37 2;
#X connect 46 0 48 1;
#X connect 46 0 51 1;
#X connect 48 0 49 1;
#X connect 49 0 66 0;
#X connect 50 0 48 0;
#X connect 51 0 52 1;
#X connect 52 0 61 0;
#X connect 53 0 51 0;
#X connect 54 0 37 0;
#X connect 55 0 56 0;
#X connect 56 0 50 1;
#X connect 56 0 53 1;
#X connect 56 0 36 1;
#X connect 56 0 37 1;
#X connect 57 0 58 0;
#X connect 58 0 67 1;
#X connect 59 0 61 1;
#X connect 59 0 57 0;
#X connect 59 0 66 1;
#X connect 59 0 63 0;
#X connect 61 0 62 1;
#X connect 62 0 17 0;
#X connect 63 0 64 0;
#X connect 64 0 68 1;
#X connect 65 0 34 0;
#X connect 66 0 65 1;
#X connect 67 0 62 0;
#X connect 68 0 65 0;
#X restore 48 170 pd fuzz distortion;
#X obj 273 124 hsl 128 15 0 20 0 1 empty empty Q 5 7 0 10 -262144 -260097
-1 1700 1;
#X obj 273 139 hsl 128 15 0 1 0 1 empty empty amp_dry 5 7 0 10 -262144
-260097 -1 12300 1;
#X obj 250 49 tgl 15 1 empty empty empty 17 7 0 10 -258113 -1 -1 0
1;
#X obj 48 104 inlet~;
#X obj 59 128 inlet~;
#X text 46 81 put an audio signal here;
#X obj 48 193 outlet~;
#X obj 153 193 outlet~;
#X connect 0 0 5 2;
#X connect 1 0 5 3;
#X connect 2 0 5 5;
#X connect 3 0 5 6;
#X connect 4 0 5 4;
#X connect 5 0 12 0;
#X connect 5 1 13 0;
#X connect 6 0 5 7;
#X connect 7 0 5 8;
#X connect 8 0 5 9;
#X connect 9 0 5 0;
#X connect 10 0 5 1;
#X coords 0 -1 1 1 170 130 1 240 30;
