#N canvas 1 78 935 500 10;
#N canvas 1 78 826 1001 (subpatch) 0;
#X obj 301 301 cnv 15 48 48 empty \$0-key-a 549.105Hz 0 25 0 8 -262144
-33289 0;
#X obj 80 39 key;
#X obj 80 61 sel 97;
#X obj 534 225 keyup;
#X obj 534 247 sel 97;
#X obj 499 461 s \$0-key-a;
#X msg 499 289 1;
#X msg 534 289 0;
#X msg 499 333 color \$1 252;
#X floatatom 492 155 5 0 0 0 - - -, f 5;
#X msg 492 174 set \$1;
#X msg 492 196 549.105;
#X obj 151 377 loadbang;
#X msg 151 399 100;
#X msg 151 425 set \$1;
#X msg 151 448 110;
#X obj 219 398 r vel-\$1;
#X text 339 300 a;
#X msg 409 333 label \$1Hz;
#X obj 492 64 r key-a-note-\$0;
#N canvas 1 78 805 1001 calc 0;
#X obj 48 22 inlet;
#X obj 269 8 inlet;
#X obj 46 685 outlet;
#X msg 118 277 261.65;
#X obj 190 503 pow;
#X floatatom 316 297 5 0 0 1 v_(octave) - -, f 5;
#X floatatom 352 348 5 0 0 1 k_(degree) - -, f 5;
#X floatatom 511 344 5 0 0 1 N_(number_of_degrees) - -, f 5;
#X obj 100 564 *;
#X floatatom 100 586 10 0 0 0 - - -, f 10;
#X obj 334 369 f;
#X obj 298 320 f;
#X obj 493 368 f;
#X obj 190 476 f;
#X obj 172 528 f;
#X obj 100 480 f;
#X obj 280 486 f;
#X obj 316 417 f;
#X msg 208 277 2;
#X obj 334 394 /;
#X obj 298 446 +;
#X obj 44 134 bng 15 250 50 0 empty empty empty 17 7 0 10 -262144 -1
-1;
#X msg 352 321 5, f 5;
#X msg 448 191 set \$1;
#X obj 448 164 - 1;
#X obj 44 157 t b b b b b;
#X obj 336 73 - 4;
#X msg 336 95 set \$1;
#X msg 316 272 1;
#X msg 511 318 72;
#X connect 0 0 24 0;
#X connect 1 0 26 0;
#X connect 3 0 15 1;
#X connect 4 0 14 1;
#X connect 5 0 11 1;
#X connect 6 0 10 1;
#X connect 7 0 12 1;
#X connect 8 0 9 0;
#X connect 9 0 2 0;
#X connect 10 0 19 0;
#X connect 11 0 20 0;
#X connect 12 0 19 1;
#X connect 13 0 4 0;
#X connect 14 0 8 1;
#X connect 15 0 8 0;
#X connect 16 0 4 1;
#X connect 17 0 20 1;
#X connect 18 0 13 1;
#X connect 19 0 17 1;
#X connect 20 0 16 1;
#X connect 21 0 25 0;
#X connect 22 0 6 0;
#X connect 23 0 22 0;
#X connect 24 0 23 0;
#X connect 24 0 21 0;
#X connect 25 0 14 0;
#X connect 25 0 15 0;
#X connect 25 1 16 0;
#X connect 25 1 13 0;
#X connect 25 2 17 0;
#X connect 25 2 11 0;
#X connect 25 3 12 0;
#X connect 25 3 10 0;
#X connect 25 4 29 0;
#X connect 25 4 22 0;
#X connect 25 4 28 0;
#X connect 25 4 18 0;
#X connect 25 4 3 0;
#X connect 26 0 27 0;
#X connect 26 0 21 0;
#X connect 27 0 28 0;
#X connect 28 0 5 0;
#X connect 29 0 7 0;
#X restore 492 121 pd calc;
#X obj 538 93 r key-\$1-octave;
#X obj 80 83 t b b b;
#X obj 50 544 s out-note-\$1;
#X obj 151 544 s out-vel-\$1;
#X floatatom 302 302 2 0 0 0 - - -, f 2;
#X connect 1 0 2 0;
#X connect 2 0 22 0;
#X connect 3 0 4 0;
#X connect 4 0 7 0;
#X connect 6 0 8 0;
#X connect 7 0 8 0;
#X connect 8 0 5 0;
#X connect 9 0 10 0;
#X connect 9 0 18 0;
#X connect 10 0 11 0;
#X connect 11 0 23 0;
#X connect 12 0 13 0;
#X connect 13 0 14 0;
#X connect 14 0 15 0;
#X connect 15 0 24 0;
#X connect 16 0 14 0;
#X connect 18 0 5 0;
#X connect 19 0 20 0;
#X connect 19 0 25 0;
#X connect 20 0 9 0;
#X connect 21 0 20 1;
#X connect 22 0 11 0;
#X connect 22 1 15 0;
#X connect 22 2 6 0;
#X coords 0 1 100 -1 50 50 1 300 300;
#X restore 113 218 graph;
#N canvas 1 78 958 1001 (subpatch) 0;
#X obj 301 301 cnv 15 48 48 empty \$0-key-s 616.35Hz 0 25 0 8 -262144
-33289 0;
#X obj 80 39 key;
#X obj 534 239 keyup;
#X msg 499 289 1;
#X msg 534 289 0;
#X msg 499 333 color \$1 252;
#X floatatom 492 155 5 0 0 0 - - -, f 5;
#X msg 492 174 set \$1;
#X msg 492 196 616.35;
#X obj 151 377 loadbang;
#X msg 151 399 100;
#X msg 151 474 set \$1;
#X msg 151 497 110;
#X obj 219 447 r vel-\$1;
#X msg 409 333 label \$1Hz;
#X obj 80 61 sel 115;
#X obj 534 261 sel 115;
#X text 339 300 s;
#X obj 499 461 s \$0-key-s;
#N canvas 1 78 1905 1001 calc 0;
#X obj 48 22 inlet;
#X obj 269 8 inlet;
#X obj 46 685 outlet;
#X msg 118 277 261.65;
#X obj 190 503 pow;
#X floatatom 316 297 5 0 0 1 v_(octave) - -, f 5;
#X floatatom 352 348 5 0 0 1 k_(degree) - -, f 5;
#X floatatom 511 344 5 0 0 1 N_(number_of_degrees) - -, f 5;
#X obj 100 564 *;
#X floatatom 100 586 10 0 0 0 - - -, f 10;
#X obj 334 369 f;
#X obj 298 320 f;
#X obj 493 368 f;
#X obj 190 476 f;
#X obj 172 528 f;
#X obj 100 480 f;
#X obj 280 486 f;
#X obj 316 417 f;
#X msg 208 277 2;
#X obj 334 394 /;
#X obj 298 446 +;
#X obj 44 134 bng 15 250 50 0 empty empty empty 17 7 0 10 -262144 -1
-1;
#X msg 352 321 17, f 5;
#X msg 448 191 set \$1;
#X obj 448 164 - 1;
#X obj 44 157 t b b b b b;
#X obj 336 73 - 4;
#X msg 336 95 set \$1;
#X msg 316 272 1;
#X msg 511 318 72;
#X connect 0 0 24 0;
#X connect 1 0 26 0;
#X connect 3 0 15 1;
#X connect 4 0 14 1;
#X connect 5 0 11 1;
#X connect 6 0 10 1;
#X connect 7 0 12 1;
#X connect 8 0 9 0;
#X connect 9 0 2 0;
#X connect 10 0 19 0;
#X connect 11 0 20 0;
#X connect 12 0 19 1;
#X connect 13 0 4 0;
#X connect 14 0 8 1;
#X connect 15 0 8 0;
#X connect 16 0 4 1;
#X connect 17 0 20 1;
#X connect 18 0 13 1;
#X connect 19 0 17 1;
#X connect 20 0 16 1;
#X connect 21 0 25 0;
#X connect 22 0 6 0;
#X connect 23 0 22 0;
#X connect 24 0 23 0;
#X connect 24 0 21 0;
#X connect 25 0 14 0;
#X connect 25 0 15 0;
#X connect 25 1 16 0;
#X connect 25 1 13 0;
#X connect 25 2 17 0;
#X connect 25 2 11 0;
#X connect 25 3 12 0;
#X connect 25 3 10 0;
#X connect 25 4 29 0;
#X connect 25 4 22 0;
#X connect 25 4 28 0;
#X connect 25 4 18 0;
#X connect 25 4 3 0;
#X connect 26 0 27 0;
#X connect 26 0 21 0;
#X connect 27 0 28 0;
#X connect 28 0 5 0;
#X connect 29 0 7 0;
#X restore 492 126 pd calc;
#X obj 538 98 r key-\$1-octave;
#X obj 492 69 r key-s-note-\$0;
#X obj 50 567 s out-note-\$1;
#X obj 151 567 s out-vel-\$1;
#X obj 80 83 t b b b;
#X floatatom 302 302 2 0 0 0 - - -, f 2;
#X connect 1 0 15 0;
#X connect 2 0 16 0;
#X connect 3 0 5 0;
#X connect 4 0 5 0;
#X connect 5 0 18 0;
#X connect 6 0 7 0;
#X connect 6 0 14 0;
#X connect 7 0 8 0;
#X connect 8 0 22 0;
#X connect 9 0 10 0;
#X connect 10 0 11 0;
#X connect 11 0 12 0;
#X connect 12 0 23 0;
#X connect 13 0 11 0;
#X connect 14 0 18 0;
#X connect 15 0 24 0;
#X connect 16 0 4 0;
#X connect 19 0 6 0;
#X connect 20 0 19 1;
#X connect 21 0 19 0;
#X connect 21 0 25 0;
#X connect 24 0 8 0;
#X connect 24 1 12 0;
#X connect 24 2 3 0;
#X coords 0 1 100 -1 50 50 1 300 300;
#X restore 163 218 graph;
#N canvas 1 78 958 1001 (subpatch) 0;
#X obj 301 301 cnv 15 48 48 empty \$0-key-d 653Hz 0 25 0 8 -262144
-33289 0;
#X obj 80 39 key;
#X obj 534 237 keyup;
#X msg 499 289 1;
#X msg 534 289 0;
#X msg 499 333 color \$1 252;
#X floatatom 492 155 5 0 0 0 - - -, f 5;
#X msg 492 174 set \$1;
#X msg 492 196 653;
#X obj 151 377 loadbang;
#X msg 151 399 100;
#X msg 151 473 set \$1;
#X msg 151 497 110;
#X obj 219 447 r vel-\$1;
#X msg 409 333 label \$1Hz;
#X obj 499 461 s \$0-key-d;
#X obj 80 61 sel 100;
#X obj 534 259 sel 100;
#X text 339 300 d;
#N canvas 125 235 747 741 calc 0;
#X obj 48 22 inlet;
#X obj 269 8 inlet;
#X obj 46 685 outlet;
#X msg 118 277 261.65;
#X obj 190 503 pow;
#X floatatom 316 297 5 0 0 1 v_(octave) - -, f 5;
#X floatatom 352 348 5 0 0 1 k_(degree) - -, f 5;
#X floatatom 511 344 5 0 0 1 N_(number_of_degrees) - -, f 5;
#X obj 100 564 *;
#X floatatom 100 586 10 0 0 0 - - -, f 10;
#X obj 334 369 f;
#X obj 298 320 f;
#X obj 493 368 f;
#X obj 190 476 f;
#X obj 172 528 f;
#X obj 100 480 f;
#X obj 280 486 f;
#X obj 316 417 f;
#X msg 208 277 2;
#X obj 334 394 /;
#X obj 298 446 +;
#X obj 44 134 bng 15 250 50 0 empty empty empty 17 7 0 10 -262144 -1
-1;
#X msg 352 321 23, f 5;
#X msg 448 191 set \$1;
#X obj 448 164 - 1;
#X obj 44 157 t b b b b b;
#X obj 336 73 - 4;
#X msg 336 95 set \$1;
#X msg 316 272 1;
#X msg 511 318 72;
#X connect 0 0 24 0;
#X connect 1 0 26 0;
#X connect 3 0 15 1;
#X connect 4 0 14 1;
#X connect 5 0 11 1;
#X connect 6 0 10 1;
#X connect 7 0 12 1;
#X connect 8 0 9 0;
#X connect 9 0 2 0;
#X connect 10 0 19 0;
#X connect 11 0 20 0;
#X connect 12 0 19 1;
#X connect 13 0 4 0;
#X connect 14 0 8 1;
#X connect 15 0 8 0;
#X connect 16 0 4 1;
#X connect 17 0 20 1;
#X connect 18 0 13 1;
#X connect 19 0 17 1;
#X connect 20 0 16 1;
#X connect 21 0 25 0;
#X connect 22 0 6 0;
#X connect 23 0 22 0;
#X connect 24 0 23 0;
#X connect 24 0 21 0;
#X connect 25 0 14 0;
#X connect 25 0 15 0;
#X connect 25 1 16 0;
#X connect 25 1 13 0;
#X connect 25 2 17 0;
#X connect 25 2 11 0;
#X connect 25 3 12 0;
#X connect 25 3 10 0;
#X connect 25 4 29 0;
#X connect 25 4 22 0;
#X connect 25 4 28 0;
#X connect 25 4 18 0;
#X connect 25 4 3 0;
#X connect 26 0 27 0;
#X connect 26 0 21 0;
#X connect 27 0 28 0;
#X connect 28 0 5 0;
#X connect 29 0 7 0;
#X restore 492 121 pd calc;
#X obj 538 93 r key-\$1-octave;
#X obj 492 64 r key-d-note-\$0;
#X obj 50 544 s out-note-\$1;
#X obj 151 544 s out-vel-\$1;
#X obj 80 83 t b b b;
#X floatatom 302 302 2 0 0 0 - - -, f 2;
#X connect 1 0 16 0;
#X connect 2 0 17 0;
#X connect 3 0 5 0;
#X connect 4 0 5 0;
#X connect 5 0 15 0;
#X connect 6 0 7 0;
#X connect 6 0 14 0;
#X connect 7 0 8 0;
#X connect 8 0 22 0;
#X connect 9 0 10 0;
#X connect 10 0 11 0;
#X connect 11 0 12 0;
#X connect 12 0 23 0;
#X connect 13 0 11 0;
#X connect 14 0 15 0;
#X connect 16 0 24 0;
#X connect 17 0 4 0;
#X connect 19 0 6 0;
#X connect 20 0 19 1;
#X connect 21 0 19 0;
#X connect 21 0 25 0;
#X connect 24 0 8 0;
#X connect 24 1 12 0;
#X connect 24 2 3 0;
#X coords 0 1 100 -1 50 50 1 300 300;
#X restore 213 218 graph;
#N canvas 1 78 958 1001 (subpatch) 0;
#X obj 301 301 cnv 15 48 48 empty \$0-key-f 747.217Hz 0 25 0 8 -262144
-33289 0;
#X obj 80 39 key;
#X obj 534 243 keyup;
#X msg 499 289 1;
#X msg 534 289 0;
#X msg 499 333 color \$1 252;
#X floatatom 492 155 5 0 0 0 - - -, f 5;
#X msg 492 174 set \$1;
#X msg 492 196 747.217;
#X obj 151 377 loadbang;
#X msg 151 399 100;
#X msg 151 474 set \$1;
#X msg 151 497 110;
#X obj 219 447 r vel-\$1;
#X msg 409 333 label \$1Hz;
#X obj 80 61 sel 102;
#X obj 534 265 sel 102;
#X obj 499 461 s \$0-key-f;
#X text 339 300 f;
#N canvas 1 267 786 812 calc 0;
#X obj 48 22 inlet;
#X obj 269 8 inlet;
#X obj 46 685 outlet;
#X msg 118 277 261.65;
#X obj 190 503 pow;
#X floatatom 316 297 5 0 0 1 v_(octave) - -, f 5;
#X floatatom 352 348 5 0 0 1 k_(degree) - -, f 5;
#X floatatom 511 344 5 0 0 1 N_(number_of_degrees) - -, f 5;
#X obj 100 564 *;
#X floatatom 100 586 10 0 0 0 - - -, f 10;
#X obj 334 369 f;
#X obj 298 320 f;
#X obj 493 368 f;
#X obj 190 476 f;
#X obj 172 528 f;
#X obj 100 480 f;
#X obj 280 486 f;
#X obj 316 417 f;
#X msg 208 277 2;
#X obj 334 394 /;
#X obj 298 446 +;
#X obj 44 134 bng 15 250 50 0 empty empty empty 17 7 0 10 -262144 -1
-1;
#X msg 352 321 37, f 5;
#X msg 448 191 set \$1;
#X obj 448 164 - 1;
#X obj 44 157 t b b b b b;
#X obj 336 73 - 4;
#X msg 336 95 set \$1;
#X msg 316 272 1;
#X msg 511 318 72;
#X connect 0 0 24 0;
#X connect 1 0 26 0;
#X connect 3 0 15 1;
#X connect 4 0 14 1;
#X connect 5 0 11 1;
#X connect 6 0 10 1;
#X connect 7 0 12 1;
#X connect 8 0 9 0;
#X connect 9 0 2 0;
#X connect 10 0 19 0;
#X connect 11 0 20 0;
#X connect 12 0 19 1;
#X connect 13 0 4 0;
#X connect 14 0 8 1;
#X connect 15 0 8 0;
#X connect 16 0 4 1;
#X connect 17 0 20 1;
#X connect 18 0 13 1;
#X connect 19 0 17 1;
#X connect 20 0 16 1;
#X connect 21 0 25 0;
#X connect 22 0 6 0;
#X connect 23 0 22 0;
#X connect 24 0 23 0;
#X connect 24 0 21 0;
#X connect 25 0 14 0;
#X connect 25 0 15 0;
#X connect 25 1 16 0;
#X connect 25 1 13 0;
#X connect 25 2 17 0;
#X connect 25 2 11 0;
#X connect 25 3 12 0;
#X connect 25 3 10 0;
#X connect 25 4 29 0;
#X connect 25 4 22 0;
#X connect 25 4 28 0;
#X connect 25 4 18 0;
#X connect 25 4 3 0;
#X connect 26 0 27 0;
#X connect 26 0 21 0;
#X connect 27 0 28 0;
#X connect 28 0 5 0;
#X connect 29 0 7 0;
#X restore 492 121 pd calc;
#X obj 538 99 r key-\$1-octave;
#X obj 492 64 r key-f-note-\$0;
#X obj 50 570 s out-note-\$1;
#X obj 151 570 s out-vel-\$1;
#X obj 80 83 t b b b;
#X floatatom 302 302 2 0 0 0 - - -, f 2;
#X connect 1 0 15 0;
#X connect 2 0 16 0;
#X connect 3 0 5 0;
#X connect 4 0 5 0;
#X connect 5 0 17 0;
#X connect 6 0 7 0;
#X connect 6 0 14 0;
#X connect 7 0 8 0;
#X connect 8 0 22 0;
#X connect 9 0 10 0;
#X connect 10 0 11 0;
#X connect 11 0 12 0;
#X connect 12 0 23 0;
#X connect 13 0 11 0;
#X connect 14 0 17 0;
#X connect 15 0 24 0;
#X connect 16 0 4 0;
#X connect 19 0 6 0;
#X connect 20 0 19 1;
#X connect 21 0 19 0;
#X connect 21 0 25 0;
#X connect 24 0 8 0;
#X connect 24 1 12 0;
#X connect 24 2 3 0;
#X coords 0 1 100 -1 50 50 1 300 300;
#X restore 263 218 graph;
#N canvas 1 78 958 1001 (subpatch) 0;
#X obj 301 301 cnv 15 48 48 empty \$0-key-g 822.728Hz 0 25 0 8 -262144
-33289 0;
#X obj 80 39 key;
#X obj 534 234 keyup;
#X msg 499 289 1;
#X msg 534 289 0;
#X msg 499 333 color \$1 252;
#X floatatom 492 155 5 0 0 0 - - -, f 5;
#X msg 492 174 set \$1;
#X msg 492 196 822.728;
#X obj 151 377 loadbang;
#X msg 151 399 100;
#X msg 151 474 set \$1;
#X msg 151 497 110;
#X obj 219 447 r vel-\$1;
#X msg 409 333 label \$1Hz;
#X obj 80 61 sel 103;
#X obj 534 260 sel 103;
#X obj 499 461 s \$0-key-g;
#X text 339 300 g;
#N canvas 1 288 773 791 calc 0;
#X obj 48 22 inlet;
#X obj 269 8 inlet;
#X obj 46 685 outlet;
#X msg 118 277 261.65;
#X obj 190 503 pow;
#X floatatom 316 297 5 0 0 1 v_(octave) - -, f 5;
#X floatatom 352 348 5 0 0 1 k_(degree) - -, f 5;
#X floatatom 511 344 5 0 0 1 N_(number_of_degrees) - -, f 5;
#X obj 100 564 *;
#X floatatom 100 586 10 0 0 0 - - -, f 10;
#X obj 334 369 f;
#X obj 298 320 f;
#X obj 493 368 f;
#X obj 190 476 f;
#X obj 172 528 f;
#X obj 100 480 f;
#X obj 280 486 f;
#X obj 316 417 f;
#X msg 208 277 2;
#X obj 334 394 /;
#X obj 298 446 +;
#X obj 44 134 bng 15 250 50 0 empty empty empty 17 7 0 10 -262144 -1
-1;
#X msg 352 321 47, f 5;
#X msg 448 191 set \$1;
#X obj 448 164 - 1;
#X obj 44 157 t b b b b b;
#X obj 336 73 - 4;
#X msg 336 95 set \$1;
#X msg 316 272 1;
#X msg 511 318 72;
#X connect 0 0 24 0;
#X connect 1 0 26 0;
#X connect 3 0 15 1;
#X connect 4 0 14 1;
#X connect 5 0 11 1;
#X connect 6 0 10 1;
#X connect 7 0 12 1;
#X connect 8 0 9 0;
#X connect 9 0 2 0;
#X connect 10 0 19 0;
#X connect 11 0 20 0;
#X connect 12 0 19 1;
#X connect 13 0 4 0;
#X connect 14 0 8 1;
#X connect 15 0 8 0;
#X connect 16 0 4 1;
#X connect 17 0 20 1;
#X connect 18 0 13 1;
#X connect 19 0 17 1;
#X connect 20 0 16 1;
#X connect 21 0 25 0;
#X connect 22 0 6 0;
#X connect 23 0 22 0;
#X connect 24 0 23 0;
#X connect 24 0 21 0;
#X connect 25 0 14 0;
#X connect 25 0 15 0;
#X connect 25 1 16 0;
#X connect 25 1 13 0;
#X connect 25 2 17 0;
#X connect 25 2 11 0;
#X connect 25 3 12 0;
#X connect 25 3 10 0;
#X connect 25 4 29 0;
#X connect 25 4 22 0;
#X connect 25 4 28 0;
#X connect 25 4 18 0;
#X connect 25 4 3 0;
#X connect 26 0 27 0;
#X connect 26 0 21 0;
#X connect 27 0 28 0;
#X connect 28 0 5 0;
#X connect 29 0 7 0;
#X restore 492 109 pd calc;
#X obj 538 81 r key-\$1-octave;
#X obj 492 52 r key-g-note-\$0;
#X obj 50 541 s out-note-\$1;
#X obj 151 541 s out-vel-\$1;
#X obj 80 83 t b b b;
#X floatatom 302 302 2 0 0 0 - - -, f 2;
#X connect 1 0 15 0;
#X connect 2 0 16 0;
#X connect 3 0 5 0;
#X connect 4 0 5 0;
#X connect 5 0 17 0;
#X connect 6 0 7 0;
#X connect 6 0 14 0;
#X connect 7 0 8 0;
#X connect 8 0 22 0;
#X connect 9 0 10 0;
#X connect 10 0 11 0;
#X connect 11 0 12 0;
#X connect 12 0 23 0;
#X connect 13 0 11 0;
#X connect 14 0 17 0;
#X connect 15 0 24 0;
#X connect 16 0 4 0;
#X connect 19 0 6 0;
#X connect 20 0 19 1;
#X connect 21 0 19 0;
#X connect 21 0 25 0;
#X connect 24 0 8 0;
#X connect 24 1 12 0;
#X connect 24 2 3 0;
#X coords 0 1 100 -1 50 50 1 300 300;
#X restore 313 218 graph;
#N canvas 1 78 958 1001 (subpatch) 0;
#X obj 301 301 cnv 15 48 48 empty \$0-key-h 888.596Hz 0 25 0 8 -262144
-33289 0;
#X obj 80 39 key;
#X obj 534 242 keyup;
#X msg 499 289 1;
#X msg 534 289 0;
#X msg 499 333 color \$1 252;
#X floatatom 492 155 5 0 0 0 - - -, f 5;
#X msg 492 174 set \$1;
#X msg 492 196 888.596;
#X obj 151 377 loadbang;
#X msg 151 399 100;
#X msg 151 474 set \$1;
#X msg 151 497 110;
#X obj 219 447 r vel-\$1;
#X msg 409 333 label \$1Hz;
#X text 339 300 h;
#X floatatom 160 56 5 0 0 0 - - -, f 5;
#X obj 80 61 sel 104;
#X obj 534 264 sel 104;
#X obj 499 461 s \$0-key-h;
#N canvas 1 154 877 925 calc 0;
#X obj 48 22 inlet;
#X obj 269 8 inlet;
#X obj 46 685 outlet;
#X msg 118 277 261.65;
#X obj 190 503 pow;
#X floatatom 316 297 5 0 0 1 v_(octave) - -, f 5;
#X floatatom 352 348 5 0 0 1 k_(degree) - -, f 5;
#X floatatom 511 344 5 0 0 1 N_(number_of_degrees) - -, f 5;
#X obj 100 564 *;
#X floatatom 100 586 10 0 0 0 - - -, f 10;
#X obj 334 369 f;
#X obj 298 320 f;
#X obj 493 368 f;
#X obj 190 476 f;
#X obj 172 528 f;
#X obj 100 480 f;
#X obj 280 486 f;
#X obj 316 417 f;
#X msg 208 277 2;
#X obj 334 394 /;
#X obj 298 446 +;
#X obj 44 134 bng 15 250 50 0 empty empty empty 17 7 0 10 -262144 -1
-1;
#X msg 352 321 55, f 5;
#X msg 448 191 set \$1;
#X obj 448 164 - 1;
#X obj 44 157 t b b b b b;
#X obj 336 73 - 4;
#X msg 336 95 set \$1;
#X msg 316 272 1;
#X msg 511 318 72;
#X connect 0 0 24 0;
#X connect 1 0 26 0;
#X connect 3 0 15 1;
#X connect 4 0 14 1;
#X connect 5 0 11 1;
#X connect 6 0 10 1;
#X connect 7 0 12 1;
#X connect 8 0 9 0;
#X connect 9 0 2 0;
#X connect 10 0 19 0;
#X connect 11 0 20 0;
#X connect 12 0 19 1;
#X connect 13 0 4 0;
#X connect 14 0 8 1;
#X connect 15 0 8 0;
#X connect 16 0 4 1;
#X connect 17 0 20 1;
#X connect 18 0 13 1;
#X connect 19 0 17 1;
#X connect 20 0 16 1;
#X connect 21 0 25 0;
#X connect 22 0 6 0;
#X connect 23 0 22 0;
#X connect 24 0 23 0;
#X connect 24 0 21 0;
#X connect 25 0 14 0;
#X connect 25 0 15 0;
#X connect 25 1 16 0;
#X connect 25 1 13 0;
#X connect 25 2 17 0;
#X connect 25 2 11 0;
#X connect 25 3 12 0;
#X connect 25 3 10 0;
#X connect 25 4 29 0;
#X connect 25 4 22 0;
#X connect 25 4 28 0;
#X connect 25 4 18 0;
#X connect 25 4 3 0;
#X connect 26 0 27 0;
#X connect 26 0 21 0;
#X connect 27 0 28 0;
#X connect 28 0 5 0;
#X connect 29 0 7 0;
#X restore 492 121 pd calc;
#X obj 538 93 r key-\$1-octave;
#X obj 492 64 r key-h-note-\$0;
#X obj 50 564 s out-note-\$1;
#X obj 151 564 s out-vel-\$1;
#X obj 80 83 t b b b;
#X floatatom 302 302 2 0 0 0 - - -, f 2;
#X connect 1 0 16 0;
#X connect 1 0 17 0;
#X connect 2 0 18 0;
#X connect 3 0 5 0;
#X connect 4 0 5 0;
#X connect 5 0 19 0;
#X connect 6 0 7 0;
#X connect 6 0 14 0;
#X connect 7 0 8 0;
#X connect 8 0 23 0;
#X connect 9 0 10 0;
#X connect 10 0 11 0;
#X connect 11 0 12 0;
#X connect 12 0 24 0;
#X connect 13 0 11 0;
#X connect 14 0 19 0;
#X connect 17 0 25 0;
#X connect 18 0 4 0;
#X connect 20 0 6 0;
#X connect 21 0 20 1;
#X connect 22 0 20 0;
#X connect 22 0 26 0;
#X connect 25 0 8 0;
#X connect 25 1 12 0;
#X connect 25 2 3 0;
#X coords 0 1 100 -1 50 50 1 300 300;
#X restore 363 218 graph;
#N canvas 1 78 958 1001 (subpatch) 0;
#X obj 301 301 cnv 15 48 48 empty \$0-key-j 523.3Hz 0 25 0 8 -262144
-33289 0;
#X obj 534 240 keyup;
#X msg 499 289 1;
#X msg 534 289 0;
#X msg 499 333 color \$1 252;
#X floatatom 492 155 5 0 0 0 - - -, f 5;
#X msg 492 174 set \$1;
#X msg 492 196 523.3;
#X obj 151 377 loadbang;
#X msg 151 399 100;
#X msg 151 474 set \$1;
#X msg 151 497 110;
#X obj 219 447 r vel-\$1;
#X msg 409 333 label \$1Hz;
#X text 339 300 j;
#X obj 499 461 s \$0-key-j;
#X obj 80 39 key;
#X obj 80 61 sel 106;
#X obj 534 262 sel 106;
#N canvas 1 195 730 884 calc 0;
#X obj 48 22 inlet;
#X obj 269 8 inlet;
#X obj 46 685 outlet;
#X msg 118 277 261.65;
#X obj 190 503 pow;
#X floatatom 316 297 5 0 0 1 v_(octave) - -, f 5;
#X floatatom 352 348 5 0 0 1 k_(degree) - -, f 5;
#X floatatom 511 344 5 0 0 1 N_(number_of_degrees) - -, f 5;
#X obj 100 564 *;
#X floatatom 100 586 10 0 0 0 - - -, f 10;
#X obj 334 369 f;
#X obj 298 320 f;
#X obj 493 368 f;
#X obj 190 476 f;
#X obj 172 528 f;
#X obj 100 480 f;
#X obj 280 486 f;
#X obj 316 417 f;
#X msg 208 277 2;
#X obj 334 394 /;
#X obj 298 446 +;
#X obj 44 134 bng 15 250 50 0 empty empty empty 17 7 0 10 -262144 -1
-1;
#X msg 352 321 0, f 5;
#X msg 448 191 set \$1;
#X obj 448 164 - 1;
#X obj 44 157 t b b b b b;
#X obj 336 73 - 4;
#X msg 336 95 set \$1;
#X msg 316 272 1;
#X msg 511 318 72;
#X connect 0 0 24 0;
#X connect 1 0 26 0;
#X connect 3 0 15 1;
#X connect 4 0 14 1;
#X connect 5 0 11 1;
#X connect 6 0 10 1;
#X connect 7 0 12 1;
#X connect 8 0 9 0;
#X connect 9 0 2 0;
#X connect 10 0 19 0;
#X connect 11 0 20 0;
#X connect 12 0 19 1;
#X connect 13 0 4 0;
#X connect 14 0 8 1;
#X connect 15 0 8 0;
#X connect 16 0 4 1;
#X connect 17 0 20 1;
#X connect 18 0 13 1;
#X connect 19 0 17 1;
#X connect 20 0 16 1;
#X connect 21 0 25 0;
#X connect 22 0 6 0;
#X connect 23 0 22 0;
#X connect 24 0 23 0;
#X connect 24 0 21 0;
#X connect 25 0 14 0;
#X connect 25 0 15 0;
#X connect 25 1 16 0;
#X connect 25 1 13 0;
#X connect 25 2 17 0;
#X connect 25 2 11 0;
#X connect 25 3 12 0;
#X connect 25 3 10 0;
#X connect 25 4 29 0;
#X connect 25 4 22 0;
#X connect 25 4 28 0;
#X connect 25 4 18 0;
#X connect 25 4 3 0;
#X connect 26 0 27 0;
#X connect 26 0 21 0;
#X connect 27 0 28 0;
#X connect 28 0 5 0;
#X connect 29 0 7 0;
#X restore 492 121 pd calc;
#X obj 538 93 r key-\$1-octave;
#X obj 492 64 r key-j-note-\$0;
#X obj 50 564 s out-note-\$1;
#X obj 151 564 s out-vel-\$1;
#X obj 80 83 t b b b;
#X floatatom 302 302 2 0 0 0 - - -, f 2;
#X connect 1 0 18 0;
#X connect 2 0 4 0;
#X connect 3 0 4 0;
#X connect 4 0 15 0;
#X connect 5 0 6 0;
#X connect 5 0 13 0;
#X connect 6 0 7 0;
#X connect 7 0 22 0;
#X connect 8 0 9 0;
#X connect 9 0 10 0;
#X connect 10 0 11 0;
#X connect 11 0 23 0;
#X connect 12 0 10 0;
#X connect 13 0 15 0;
#X connect 16 0 17 0;
#X connect 17 0 24 0;
#X connect 18 0 3 0;
#X connect 19 0 5 0;
#X connect 20 0 19 1;
#X connect 21 0 19 0;
#X connect 21 0 25 0;
#X connect 24 0 7 0;
#X connect 24 1 11 0;
#X connect 24 2 2 0;
#X coords 0 1 100 -1 50 50 1 300 300;
#X restore 413 218 graph;
#N canvas 416 78 958 1001 (subpatch) 0;
#X obj 301 301 cnv 15 48 48 empty \$0-key-w 581.757Hz 0 25 0 8 -262144
-33289 0;
#X obj 80 39 key;
#X obj 534 241 keyup, f 6;
#X msg 499 289 1;
#X msg 534 289 0;
#X msg 499 333 color \$1 252;
#X floatatom 492 155 5 0 0 0 - - -, f 5;
#X msg 492 174 set \$1;
#X msg 492 196 581.757;
#X floatatom 492 218 5 0 0 0 - - -, f 5;
#X obj 151 377 loadbang;
#X msg 151 399 100;
#X msg 151 474 set \$1;
#X msg 151 497 110;
#X obj 219 447 r vel-\$1;
#X msg 409 333 label \$1Hz;
#X obj 499 461 s \$0-key-w;
#X text 339 300 w;
#X floatatom 158 50 5 0 0 0 - - -, f 5;
#X obj 80 61 sel 119;
#X obj 534 263 sel 119;
#N canvas 1 170 738 909 calc 0;
#X obj 48 22 inlet;
#X obj 269 8 inlet;
#X obj 46 685 outlet;
#X msg 118 277 261.65;
#X obj 190 503 pow;
#X floatatom 316 297 5 0 0 1 v_(octave) - -, f 5;
#X floatatom 352 348 5 0 0 1 k_(degree) - -, f 5;
#X floatatom 511 344 5 0 0 1 N_(number_of_degrees) - -, f 5;
#X obj 100 564 *;
#X floatatom 100 586 10 0 0 0 - - -, f 10;
#X obj 334 369 f;
#X obj 298 320 f;
#X obj 493 368 f;
#X obj 190 476 f;
#X obj 172 528 f;
#X obj 100 480 f;
#X obj 280 486 f;
#X obj 316 417 f;
#X msg 208 277 2;
#X obj 334 394 /;
#X obj 298 446 +;
#X obj 44 134 bng 15 250 50 0 empty empty empty 17 7 0 10 -262144 -1
-1;
#X msg 352 321 11, f 5;
#X msg 448 191 set \$1;
#X obj 448 164 - 1;
#X obj 44 157 t b b b b b;
#X obj 336 73 - 4;
#X msg 336 95 set \$1;
#X msg 316 272 1;
#X msg 511 318 72;
#X connect 0 0 24 0;
#X connect 1 0 26 0;
#X connect 3 0 15 1;
#X connect 4 0 14 1;
#X connect 5 0 11 1;
#X connect 6 0 10 1;
#X connect 7 0 12 1;
#X connect 8 0 9 0;
#X connect 9 0 2 0;
#X connect 10 0 19 0;
#X connect 11 0 20 0;
#X connect 12 0 19 1;
#X connect 13 0 4 0;
#X connect 14 0 8 1;
#X connect 15 0 8 0;
#X connect 16 0 4 1;
#X connect 17 0 20 1;
#X connect 18 0 13 1;
#X connect 19 0 17 1;
#X connect 20 0 16 1;
#X connect 21 0 25 0;
#X connect 22 0 6 0;
#X connect 23 0 22 0;
#X connect 24 0 23 0;
#X connect 24 0 21 0;
#X connect 25 0 14 0;
#X connect 25 0 15 0;
#X connect 25 1 16 0;
#X connect 25 1 13 0;
#X connect 25 2 17 0;
#X connect 25 2 11 0;
#X connect 25 3 12 0;
#X connect 25 3 10 0;
#X connect 25 4 29 0;
#X connect 25 4 22 0;
#X connect 25 4 28 0;
#X connect 25 4 18 0;
#X connect 25 4 3 0;
#X connect 26 0 27 0;
#X connect 26 0 21 0;
#X connect 27 0 28 0;
#X connect 28 0 5 0;
#X connect 29 0 7 0;
#X restore 492 120 pd calc;
#X obj 538 92 r key-\$1-octave;
#X obj 492 63 r key-w-note-\$0;
#X obj 50 574 s out-note-\$1;
#X obj 151 574 s out-vel-\$1;
#X obj 80 83 t b b b;
#X floatatom 302 302 2 0 0 0 - - -, f 2;
#X connect 1 0 18 0;
#X connect 1 0 19 0;
#X connect 2 0 20 0;
#X connect 3 0 5 0;
#X connect 4 0 5 0;
#X connect 5 0 16 0;
#X connect 6 0 7 0;
#X connect 6 0 15 0;
#X connect 7 0 8 0;
#X connect 8 0 9 0;
#X connect 8 0 24 0;
#X connect 10 0 11 0;
#X connect 11 0 12 0;
#X connect 12 0 13 0;
#X connect 13 0 25 0;
#X connect 14 0 12 0;
#X connect 15 0 16 0;
#X connect 19 0 26 0;
#X connect 20 0 4 0;
#X connect 21 0 6 0;
#X connect 22 0 21 1;
#X connect 23 0 21 0;
#X connect 23 0 27 0;
#X connect 26 0 8 0;
#X connect 26 1 13 0;
#X connect 26 2 3 0;
#X coords 0 1 100 -1 50 50 1 300 300;
#X restore 142 168 graph;
#N canvas 463 78 958 1001 (subpatch) 0;
#X obj 301 301 cnv 15 48 48 empty \$0-key-e 640.547Hz 0 25 0 8 -262144
-33289 0;
#X obj 80 23 key;
#X obj 534 244 keyup;
#X msg 499 289 1;
#X msg 534 289 0;
#X msg 499 333 color \$1 252;
#X floatatom 492 155 5 0 0 0 - - -, f 5;
#X msg 492 174 set \$1;
#X msg 492 196 640.547;
#X floatatom 492 218 5 0 0 0 - - -, f 5;
#X obj 151 377 loadbang;
#X msg 151 399 100;
#X msg 151 474 set \$1;
#X msg 151 497 110;
#X obj 219 447 r vel-\$1;
#X msg 409 333 label \$1Hz;
#X text 339 300 e;
#X obj 499 461 s \$0-key-e;
#X floatatom 213 63 5 0 0 0 - - -, f 5;
#X obj 80 61 sel 101;
#X obj 534 266 sel 101;
#N canvas 1 117 758 962 calc 0;
#X obj 48 22 inlet;
#X obj 269 8 inlet;
#X obj 46 685 outlet;
#X msg 118 277 261.65;
#X obj 190 503 pow;
#X floatatom 316 297 5 0 0 1 v_(octave) - -, f 5;
#X floatatom 352 348 5 0 0 1 k_(degree) - -, f 5;
#X floatatom 511 344 5 0 0 1 N_(number_of_degrees) - -, f 5;
#X obj 100 564 *;
#X floatatom 100 586 10 0 0 0 - - -, f 10;
#X obj 334 369 f;
#X obj 298 320 f;
#X obj 493 368 f;
#X obj 190 476 f;
#X obj 172 528 f;
#X obj 100 480 f;
#X obj 280 486 f;
#X obj 316 417 f;
#X msg 208 277 2;
#X obj 334 394 /;
#X obj 298 446 +;
#X obj 44 134 bng 15 250 50 0 empty empty empty 17 7 0 10 -262144 -1
-1;
#X msg 352 321 21, f 5;
#X msg 448 191 set \$1;
#X obj 448 164 - 1;
#X obj 44 157 t b b b b b;
#X obj 336 73 - 4;
#X msg 336 95 set \$1;
#X msg 316 272 1;
#X msg 511 318 72;
#X connect 0 0 24 0;
#X connect 1 0 26 0;
#X connect 3 0 15 1;
#X connect 4 0 14 1;
#X connect 5 0 11 1;
#X connect 6 0 10 1;
#X connect 7 0 12 1;
#X connect 8 0 9 0;
#X connect 9 0 2 0;
#X connect 10 0 19 0;
#X connect 11 0 20 0;
#X connect 12 0 19 1;
#X connect 13 0 4 0;
#X connect 14 0 8 1;
#X connect 15 0 8 0;
#X connect 16 0 4 1;
#X connect 17 0 20 1;
#X connect 18 0 13 1;
#X connect 19 0 17 1;
#X connect 20 0 16 1;
#X connect 21 0 25 0;
#X connect 22 0 6 0;
#X connect 23 0 22 0;
#X connect 24 0 23 0;
#X connect 24 0 21 0;
#X connect 25 0 14 0;
#X connect 25 0 15 0;
#X connect 25 1 16 0;
#X connect 25 1 13 0;
#X connect 25 2 17 0;
#X connect 25 2 11 0;
#X connect 25 3 12 0;
#X connect 25 3 10 0;
#X connect 25 4 29 0;
#X connect 25 4 22 0;
#X connect 25 4 28 0;
#X connect 25 4 18 0;
#X connect 25 4 3 0;
#X connect 26 0 27 0;
#X connect 26 0 21 0;
#X connect 27 0 28 0;
#X connect 28 0 5 0;
#X connect 29 0 7 0;
#X restore 492 127 pd calc;
#X obj 538 93 r key-\$1-octave;
#X obj 492 64 r key-e-note-\$0;
#X obj 50 564 s out-note-\$1;
#X obj 151 564 s out-vel-\$1;
#X obj 80 83 t b b b;
#X floatatom 302 302 2 0 0 0 - - -, f 2;
#X connect 1 0 18 0;
#X connect 1 0 19 0;
#X connect 2 0 20 0;
#X connect 3 0 5 0;
#X connect 4 0 5 0;
#X connect 5 0 17 0;
#X connect 6 0 7 0;
#X connect 6 0 15 0;
#X connect 7 0 8 0;
#X connect 8 0 9 0;
#X connect 8 0 24 0;
#X connect 10 0 11 0;
#X connect 11 0 12 0;
#X connect 12 0 13 0;
#X connect 13 0 25 0;
#X connect 14 0 12 0;
#X connect 15 0 17 0;
#X connect 19 0 26 0;
#X connect 20 0 4 0;
#X connect 21 0 6 0;
#X connect 22 0 21 1;
#X connect 23 0 21 0;
#X connect 23 0 27 0;
#X connect 26 0 8 0;
#X connect 26 1 13 0;
#X connect 26 2 3 0;
#X coords 0 1 100 -1 50 50 1 300 300;
#X restore 192 168 graph;
#N canvas 15 78 958 1001 (subpatch) 0;
#X obj 301 301 cnv 15 48 48 empty \$0-key-r 549.105Hz 0 25 0 8 -262144
-33289 0;
#X obj 80 39 key;
#X obj 644 39 keyup;
#X msg 499 289 1;
#X msg 534 289 0;
#X msg 499 333 color \$1 252;
#X floatatom 492 155 5 0 0 0 - - -, f 5;
#X msg 492 174 set \$1;
#X msg 492 196 549.105;
#X obj 151 377 loadbang;
#X msg 151 399 100;
#X msg 151 474 set \$1;
#X msg 151 497 110;
#X obj 219 447 r vel-\$1;
#X msg 409 333 label \$1Hz;
#X obj 80 61 sel 114;
#X obj 644 61 sel 114;
#X text 339 300 r;
#X obj 499 461 s \$0-key-r;
#N canvas 85 266 716 757 calc 0;
#X obj 48 22 inlet;
#X obj 269 8 inlet;
#X obj 46 685 outlet;
#X msg 118 277 261.65;
#X obj 190 503 pow;
#X floatatom 316 297 5 0 0 1 v_(octave) - -, f 5;
#X floatatom 352 348 5 0 0 1 k_(degree) - -, f 5;
#X floatatom 511 344 5 0 0 1 N_(number_of_degrees) - -, f 5;
#X obj 100 564 *;
#X floatatom 100 586 10 0 0 0 - - -, f 10;
#X obj 334 369 f;
#X obj 298 320 f;
#X obj 493 368 f;
#X obj 190 476 f;
#X obj 172 528 f;
#X obj 100 480 f;
#X obj 280 486 f;
#X obj 316 417 f;
#X msg 208 277 2;
#X obj 334 394 /;
#X obj 298 446 +;
#X obj 44 134 bng 15 250 50 0 empty empty empty 17 7 0 10 -262144 -1
-1;
#X msg 352 321 5, f 5;
#X msg 448 191 set \$1;
#X obj 448 164 - 1;
#X obj 44 157 t b b b b b;
#X obj 336 73 - 4;
#X msg 336 95 set \$1;
#X msg 316 272 1;
#X msg 511 318 72;
#X connect 0 0 24 0;
#X connect 1 0 26 0;
#X connect 3 0 15 1;
#X connect 4 0 14 1;
#X connect 5 0 11 1;
#X connect 6 0 10 1;
#X connect 7 0 12 1;
#X connect 8 0 9 0;
#X connect 9 0 2 0;
#X connect 10 0 19 0;
#X connect 11 0 20 0;
#X connect 12 0 19 1;
#X connect 13 0 4 0;
#X connect 14 0 8 1;
#X connect 15 0 8 0;
#X connect 16 0 4 1;
#X connect 17 0 20 1;
#X connect 18 0 13 1;
#X connect 19 0 17 1;
#X connect 20 0 16 1;
#X connect 21 0 25 0;
#X connect 22 0 6 0;
#X connect 23 0 22 0;
#X connect 24 0 23 0;
#X connect 24 0 21 0;
#X connect 25 0 14 0;
#X connect 25 0 15 0;
#X connect 25 1 16 0;
#X connect 25 1 13 0;
#X connect 25 2 17 0;
#X connect 25 2 11 0;
#X connect 25 3 12 0;
#X connect 25 3 10 0;
#X connect 25 4 29 0;
#X connect 25 4 22 0;
#X connect 25 4 28 0;
#X connect 25 4 18 0;
#X connect 25 4 3 0;
#X connect 26 0 27 0;
#X connect 26 0 21 0;
#X connect 27 0 28 0;
#X connect 28 0 5 0;
#X connect 29 0 7 0;
#X restore 492 121 pd calc;
#X obj 538 93 r key-\$1-octave;
#X obj 50 574 s out-note-\$1;
#X obj 151 574 s out-vel-\$1;
#X obj 80 83 t b b b;
#X floatatom 302 302 2 0 0 0 - - -, f 2;
#X obj 492 64 r key-r-note-\$0;
#X connect 1 0 15 0;
#X connect 2 0 16 0;
#X connect 3 0 5 0;
#X connect 4 0 5 0;
#X connect 5 0 18 0;
#X connect 6 0 7 0;
#X connect 6 0 14 0;
#X connect 7 0 8 0;
#X connect 8 0 21 0;
#X connect 9 0 10 0;
#X connect 10 0 11 0;
#X connect 11 0 12 0;
#X connect 12 0 22 0;
#X connect 13 0 11 0;
#X connect 14 0 18 0;
#X connect 15 0 23 0;
#X connect 16 0 4 0;
#X connect 19 0 6 0;
#X connect 20 0 19 1;
#X connect 23 0 8 0;
#X connect 23 1 12 0;
#X connect 23 2 3 0;
#X connect 25 0 19 0;
#X connect 25 0 24 0;
#X coords 0 1 100 -1 50 50 1 300 300;
#X restore 242 168 graph;
#N canvas 1 78 958 1001 (subpatch) 0;
#X obj 301 301 cnv 15 48 48 empty \$0-key-t 776.552Hz 0 25 0 8 -262144
-33289 0;
#X obj 80 39 key;
#X obj 644 39 keyup;
#X msg 499 289 1;
#X msg 534 289 0;
#X msg 499 333 color \$1 252;
#X floatatom 492 155 5 0 0 0 - - -, f 5;
#X msg 492 174 set \$1;
#X msg 492 196 776.552;
#X obj 151 377 loadbang;
#X msg 151 399 100;
#X msg 151 474 set \$1;
#X msg 151 497 110;
#X obj 219 447 r vel-\$1;
#X msg 409 333 label \$1Hz;
#X text 339 300 t;
#X obj 499 461 s \$0-key-t;
#X obj 80 61 sel 116;
#X obj 644 61 sel 116;
#N canvas 1 129 746 950 calc 0;
#X obj 48 22 inlet;
#X obj 269 8 inlet;
#X obj 46 685 outlet;
#X msg 118 277 261.65;
#X obj 190 503 pow;
#X floatatom 316 297 5 0 0 1 v_(octave) - -, f 5;
#X floatatom 352 348 5 0 0 1 k_(degree) - -, f 5;
#X floatatom 511 344 5 0 0 1 N_(number_of_degrees) - -, f 5;
#X obj 100 564 *;
#X floatatom 100 586 10 0 0 0 - - -, f 10;
#X obj 334 369 f;
#X obj 298 320 f;
#X obj 493 368 f;
#X obj 190 476 f;
#X obj 172 528 f;
#X obj 100 480 f;
#X obj 280 486 f;
#X obj 316 417 f;
#X msg 208 277 2;
#X obj 334 394 /;
#X obj 298 446 +;
#X obj 44 134 bng 15 250 50 0 empty empty empty 17 7 0 10 -262144 -1
-1;
#X msg 352 321 41, f 5;
#X msg 448 191 set \$1;
#X obj 448 164 - 1;
#X obj 44 157 t b b b b b;
#X obj 336 73 - 4;
#X msg 336 95 set \$1;
#X msg 316 272 1;
#X msg 511 318 72;
#X connect 0 0 24 0;
#X connect 1 0 26 0;
#X connect 3 0 15 1;
#X connect 4 0 14 1;
#X connect 5 0 11 1;
#X connect 6 0 10 1;
#X connect 7 0 12 1;
#X connect 8 0 9 0;
#X connect 9 0 2 0;
#X connect 10 0 19 0;
#X connect 11 0 20 0;
#X connect 12 0 19 1;
#X connect 13 0 4 0;
#X connect 14 0 8 1;
#X connect 15 0 8 0;
#X connect 16 0 4 1;
#X connect 17 0 20 1;
#X connect 18 0 13 1;
#X connect 19 0 17 1;
#X connect 20 0 16 1;
#X connect 21 0 25 0;
#X connect 22 0 6 0;
#X connect 23 0 22 0;
#X connect 24 0 23 0;
#X connect 24 0 21 0;
#X connect 25 0 14 0;
#X connect 25 0 15 0;
#X connect 25 1 16 0;
#X connect 25 1 13 0;
#X connect 25 2 17 0;
#X connect 25 2 11 0;
#X connect 25 3 12 0;
#X connect 25 3 10 0;
#X connect 25 4 29 0;
#X connect 25 4 22 0;
#X connect 25 4 28 0;
#X connect 25 4 18 0;
#X connect 25 4 3 0;
#X connect 26 0 27 0;
#X connect 26 0 21 0;
#X connect 27 0 28 0;
#X connect 28 0 5 0;
#X connect 29 0 7 0;
#X restore 492 123 pd calc;
#X obj 538 93 r key-\$1-octave;
#X obj 492 64 r key-t-note-\$0;
#X obj 50 574 s out-note-\$1;
#X obj 151 574 s out-vel-\$1;
#X obj 80 83 t b b b;
#X floatatom 302 302 2 0 0 0 - - -, f 2;
#X connect 1 0 17 0;
#X connect 2 0 18 0;
#X connect 3 0 5 0;
#X connect 4 0 5 0;
#X connect 5 0 16 0;
#X connect 6 0 7 0;
#X connect 6 0 14 0;
#X connect 7 0 8 0;
#X connect 8 0 22 0;
#X connect 9 0 10 0;
#X connect 10 0 11 0;
#X connect 11 0 12 0;
#X connect 12 0 23 0;
#X connect 13 0 11 0;
#X connect 14 0 16 0;
#X connect 17 0 24 0;
#X connect 18 0 4 0;
#X connect 19 0 6 0;
#X connect 20 0 19 1;
#X connect 21 0 19 0;
#X connect 21 0 25 0;
#X connect 24 0 8 0;
#X connect 24 1 12 0;
#X connect 24 2 3 0;
#X coords 0 1 100 -1 50 50 1 300 300;
#X restore 292 168 graph;
#N canvas 475 78 958 1001 (subpatch) 0;
#X obj 301 301 cnv 15 48 48 empty \$0-key-y 871.65Hz 0 25 0 8 -262144
-33289 0;
#X obj 80 39 key;
#X obj 534 237 keyup;
#X msg 499 289 1;
#X msg 534 289 0;
#X msg 499 333 color \$1 252;
#X floatatom 492 155 5 0 0 0 - - -, f 5;
#X msg 492 174 set \$1;
#X msg 492 196 871.65;
#X obj 151 377 loadbang;
#X msg 151 399 100;
#X msg 151 474 set \$1;
#X msg 151 497 110;
#X obj 219 447 r vel-\$1;
#X msg 409 333 label \$1Hz;
#X obj 80 61 sel 121;
#X obj 534 259 sel 121;
#X obj 499 461 s \$0-key-y;
#X text 339 300 y;
#N canvas 1 78 734 1001 calc 0;
#X obj 48 22 inlet;
#X obj 269 8 inlet;
#X obj 46 685 outlet;
#X msg 118 277 261.65;
#X obj 190 503 pow;
#X floatatom 316 297 5 0 0 1 v_(octave) - -, f 5;
#X floatatom 352 348 5 0 0 1 k_(degree) - -, f 5;
#X floatatom 511 344 5 0 0 1 N_(number_of_degrees) - -, f 5;
#X obj 100 564 *;
#X floatatom 100 586 10 0 0 0 - - -, f 10;
#X obj 334 369 f;
#X obj 298 320 f;
#X obj 493 368 f;
#X obj 190 476 f;
#X obj 172 528 f;
#X obj 100 480 f;
#X obj 280 486 f;
#X obj 316 417 f;
#X msg 208 277 2;
#X obj 334 394 /;
#X obj 298 446 +;
#X obj 44 134 bng 15 250 50 0 empty empty empty 17 7 0 10 -262144 -1
-1;
#X msg 352 321 53, f 5;
#X msg 448 191 set \$1;
#X obj 448 164 - 1;
#X obj 44 157 t b b b b b;
#X obj 336 73 - 4;
#X msg 336 95 set \$1;
#X msg 316 272 1;
#X msg 511 318 72;
#X connect 0 0 24 0;
#X connect 1 0 26 0;
#X connect 3 0 15 1;
#X connect 4 0 14 1;
#X connect 5 0 11 1;
#X connect 6 0 10 1;
#X connect 7 0 12 1;
#X connect 8 0 9 0;
#X connect 9 0 2 0;
#X connect 10 0 19 0;
#X connect 11 0 20 0;
#X connect 12 0 19 1;
#X connect 13 0 4 0;
#X connect 14 0 8 1;
#X connect 15 0 8 0;
#X connect 16 0 4 1;
#X connect 17 0 20 1;
#X connect 18 0 13 1;
#X connect 19 0 17 1;
#X connect 20 0 16 1;
#X connect 21 0 25 0;
#X connect 22 0 6 0;
#X connect 23 0 22 0;
#X connect 24 0 23 0;
#X connect 24 0 21 0;
#X connect 25 0 14 0;
#X connect 25 0 15 0;
#X connect 25 1 16 0;
#X connect 25 1 13 0;
#X connect 25 2 17 0;
#X connect 25 2 11 0;
#X connect 25 3 12 0;
#X connect 25 3 10 0;
#X connect 25 4 29 0;
#X connect 25 4 22 0;
#X connect 25 4 28 0;
#X connect 25 4 18 0;
#X connect 25 4 3 0;
#X connect 26 0 27 0;
#X connect 26 0 21 0;
#X connect 27 0 28 0;
#X connect 28 0 5 0;
#X connect 29 0 7 0;
#X restore 492 123 pd calc;
#X obj 538 93 r key-\$1-octave;
#X obj 492 64 r key-y-note-\$0;
#X obj 50 574 s out-note-\$1;
#X obj 151 574 s out-vel-\$1;
#X obj 80 83 t b b b;
#X floatatom 302 302 2 0 0 0 - - -, f 2;
#X connect 1 0 15 0;
#X connect 2 0 16 0;
#X connect 3 0 5 0;
#X connect 4 0 5 0;
#X connect 5 0 17 0;
#X connect 6 0 7 0;
#X connect 6 0 14 0;
#X connect 7 0 8 0;
#X connect 8 0 22 0;
#X connect 9 0 10 0;
#X connect 10 0 11 0;
#X connect 11 0 12 0;
#X connect 12 0 23 0;
#X connect 13 0 11 0;
#X connect 14 0 17 0;
#X connect 15 0 24 0;
#X connect 16 0 4 0;
#X connect 19 0 6 0;
#X connect 20 0 19 1;
#X connect 21 0 19 0;
#X connect 21 0 25 0;
#X connect 24 0 8 0;
#X connect 24 1 12 0;
#X connect 24 2 3 0;
#X coords 0 1 100 -1 50 50 1 300 300;
#X restore 342 168 graph;
#N canvas 1 78 958 1001 (subpatch) 0;
#X obj 301 301 cnv 15 48 48 empty \$0-key-u 978.394Hz 0 25 0 8 -262144
-33289 0;
#X obj 80 39 key;
#X obj 534 242 keyup;
#X msg 499 289 1;
#X msg 534 289 0;
#X msg 499 333 color \$1 252;
#X floatatom 492 155 5 0 0 0 - - -, f 5;
#X msg 492 174 set \$1;
#X msg 492 196 978.394;
#X obj 151 377 loadbang;
#X msg 151 399 100;
#X msg 151 474 set \$1;
#X msg 151 497 110;
#X obj 219 447 r vel-\$1;
#X msg 409 333 label \$1Hz;
#X text 339 300 u;
#X obj 80 61 sel 117;
#X obj 534 264 sel 117;
#X obj 499 461 s \$0-key-u;
#N canvas 1 92 815 987 calc 0;
#X obj 48 22 inlet;
#X obj 269 8 inlet;
#X obj 46 685 outlet;
#X msg 118 277 261.65;
#X obj 190 503 pow;
#X floatatom 316 297 5 0 0 1 v_(octave) - -, f 5;
#X floatatom 352 348 5 0 0 1 k_(degree) - -, f 5;
#X floatatom 511 344 5 0 0 1 N_(number_of_degrees) - -, f 5;
#X obj 100 564 *;
#X floatatom 100 586 10 0 0 0 - - -, f 10;
#X obj 334 369 f;
#X obj 298 320 f;
#X obj 493 368 f;
#X obj 190 476 f;
#X obj 172 528 f;
#X obj 100 480 f;
#X obj 280 486 f;
#X obj 316 417 f;
#X msg 208 277 2;
#X obj 334 394 /;
#X obj 298 446 +;
#X obj 44 134 bng 15 250 50 0 empty empty empty 17 7 0 10 -262144 -1
-1;
#X msg 352 321 65, f 5;
#X msg 448 191 set \$1;
#X obj 448 164 - 1;
#X obj 44 157 t b b b b b;
#X obj 336 73 - 4;
#X msg 336 95 set \$1;
#X msg 316 272 1;
#X msg 511 318 72;
#X connect 0 0 24 0;
#X connect 1 0 26 0;
#X connect 3 0 15 1;
#X connect 4 0 14 1;
#X connect 5 0 11 1;
#X connect 6 0 10 1;
#X connect 7 0 12 1;
#X connect 8 0 9 0;
#X connect 9 0 2 0;
#X connect 10 0 19 0;
#X connect 11 0 20 0;
#X connect 12 0 19 1;
#X connect 13 0 4 0;
#X connect 14 0 8 1;
#X connect 15 0 8 0;
#X connect 16 0 4 1;
#X connect 17 0 20 1;
#X connect 18 0 13 1;
#X connect 19 0 17 1;
#X connect 20 0 16 1;
#X connect 21 0 25 0;
#X connect 22 0 6 0;
#X connect 23 0 22 0;
#X connect 24 0 23 0;
#X connect 24 0 21 0;
#X connect 25 0 14 0;
#X connect 25 0 15 0;
#X connect 25 1 16 0;
#X connect 25 1 13 0;
#X connect 25 2 17 0;
#X connect 25 2 11 0;
#X connect 25 3 12 0;
#X connect 25 3 10 0;
#X connect 25 4 29 0;
#X connect 25 4 22 0;
#X connect 25 4 28 0;
#X connect 25 4 18 0;
#X connect 25 4 3 0;
#X connect 26 0 27 0;
#X connect 26 0 21 0;
#X connect 27 0 28 0;
#X connect 28 0 5 0;
#X connect 29 0 7 0;
#X restore 492 123 pd calc;
#X obj 538 93 r key-\$1-octave;
#X obj 492 64 r key-u-note-\$0;
#X obj 50 564 s out-note-\$1;
#X obj 151 564 s out-vel-\$1;
#X obj 80 83 t b b b;
#X floatatom 302 302 2 0 0 0 - - -, f 2;
#X connect 1 0 16 0;
#X connect 2 0 17 0;
#X connect 3 0 5 0;
#X connect 4 0 5 0;
#X connect 5 0 18 0;
#X connect 6 0 7 0;
#X connect 6 0 14 0;
#X connect 7 0 8 0;
#X connect 8 0 22 0;
#X connect 9 0 10 0;
#X connect 10 0 11 0;
#X connect 11 0 12 0;
#X connect 12 0 23 0;
#X connect 13 0 11 0;
#X connect 14 0 18 0;
#X connect 16 0 24 0;
#X connect 17 0 4 0;
#X connect 19 0 6 0;
#X connect 20 0 19 1;
#X connect 21 0 19 0;
#X connect 21 0 25 0;
#X connect 24 0 8 0;
#X connect 24 1 12 0;
#X connect 24 2 3 0;
#X coords 0 1 100 -1 50 50 1 300 300;
#X restore 392 168 graph;
#N canvas 388 287 667 575 read 0;
#X obj 146 204 qlist;
#X obj 146 47 openpanel;
#X obj 309 22 r inputk-\$1-scale;
#X obj 309 43 unpack 0 0 0 0 0 0 0 0 0 0 0 0 0;
#X obj 309 67 s key-a-note-\$0;
#X obj 327 87 s key-w-note-\$0;
#X obj 345 107 s key-s-note-\$0;
#X obj 364 127 s key-e-note-\$0;
#X obj 382 148 s key-d-note-\$0;
#X obj 401 168 s key-r-note-\$0;
#X obj 419 188 s key-f-note-\$0;
#X obj 437 209 s key-t-note-\$0;
#X obj 456 67 s key-g-note-\$0;
#X obj 474 87 s key-y-note-\$0;
#X obj 492 107 s key-h-note-\$0;
#X obj 511 127 s key-u-note-\$0;
#X obj 530 148 s key-j-note-\$0;
#X obj 24 118 delay 2;
#X msg 146 124 read \$1;
#X obj 146 20 inlet;
#X obj 146 226 print;
#X msg 25 140 rewind \, bang;
#X obj 24 90 bng 15 250 50 0 empty empty empty 17 7 0 10 -262144 -1
-1;
#X obj 263 157 loadbang;
#X obj 238 418 pack s s;
#X msg 245 302 symbol /home/zimmer/Pd/patches/scale2.txt;
#X msg 241 270 set symbol \$1;
#X msg 201 301 read;
#X msg 238 440 \$1 \$2;
#X connect 0 0 20 0;
#X connect 1 0 18 0;
#X connect 1 0 26 0;
#X connect 1 0 22 0;
#X connect 2 0 3 0;
#X connect 3 0 4 0;
#X connect 3 1 5 0;
#X connect 3 2 6 0;
#X connect 3 3 7 0;
#X connect 3 4 8 0;
#X connect 3 5 9 0;
#X connect 3 6 10 0;
#X connect 3 7 11 0;
#X connect 3 8 12 0;
#X connect 3 9 13 0;
#X connect 3 10 14 0;
#X connect 3 11 15 0;
#X connect 3 12 16 0;
#X connect 17 0 21 0;
#X connect 18 0 0 0;
#X connect 19 0 1 0;
#X connect 21 0 0 0;
#X connect 22 0 17 0;
#X connect 23 0 25 0;
#X connect 23 0 27 0;
#X connect 24 0 28 0;
#X connect 25 0 24 1;
#X connect 26 0 25 0;
#X connect 27 0 24 0;
#X connect 28 0 0 0;
#X restore 142 307 pd read;
#X obj 142 140 bng 15 250 50 0 empty empty load_scale 17 8 0 10 -262144
-1 -1;
#X obj 514 279 s key-\$1-octave;
#X msg 489 78 1;
#X obj 507 176 +;
#X msg 525 78 -1;
#X obj 544 104 bng 15 250 50 0 empty empty empty 17 7 0 10 -262144
-1 -1;
#X obj 507 137 f;
#X obj 507 104 bng 15 250 50 0 empty empty empty 17 7 0 10 -262144
-1 -1;
#X obj 507 211 clip 0 8;
#X obj 406 139 nbx 3 15 0 8 0 0 empty empty octave -38 8 0 10 -262144
-1 -1 5 256;
#X obj 469 27 key;
#X obj 469 49 sel 120 122;
#X obj 648 25 loadbang;
#X msg 648 47 4;
#X obj 100 337 r out-note-\$1;
#X obj 210 337 r out-vel-\$1;
#X obj 758 179 +;
#X obj 795 107 bng 15 250 50 0 empty empty empty 17 7 0 10 -262144
-1 -1;
#X obj 758 150 f;
#X obj 758 107 bng 15 250 50 0 empty empty empty 17 7 0 10 -262144
-1 -1;
#X obj 720 30 key;
#X obj 838 6 loadbang;
#X msg 740 81 10;
#X msg 776 81 -10;
#X obj 514 303 s vel-\$1;
#X obj 720 52 sel 44 46;
#X floatatom 515 245 5 0 0 0 - - -, f 5;
#X obj 758 214 clip 0 120;
#X obj 326 139 nbx 3 15 0 120 0 0 empty empty velocity -50 8 0 10 -262144
-1 -1 110 256;
#X msg 838 28 100;
#X obj 100 387 poly 8 1;
#X obj 100 409 pack 0 0 0;
#X obj 100 431 outlet;
#X connect 14 0 13 0;
#X connect 16 0 17 1;
#X connect 16 0 21 0;
#X connect 17 0 22 0;
#X connect 18 0 17 1;
#X connect 18 0 19 0;
#X connect 19 0 20 0;
#X connect 20 0 17 0;
#X connect 21 0 20 0;
#X connect 22 0 23 0;
#X connect 22 0 40 0;
#X connect 23 0 20 1;
#X connect 23 0 15 0;
#X connect 24 0 25 0;
#X connect 25 0 16 0;
#X connect 25 1 18 0;
#X connect 26 0 27 0;
#X connect 27 0 23 0;
#X connect 28 0 44 0;
#X connect 29 0 44 1;
#X connect 30 0 41 0;
#X connect 31 0 32 0;
#X connect 32 0 30 0;
#X connect 33 0 32 0;
#X connect 34 0 39 0;
#X connect 35 0 43 0;
#X connect 36 0 30 1;
#X connect 36 0 33 0;
#X connect 37 0 30 1;
#X connect 37 0 31 0;
#X connect 39 0 37 0;
#X connect 39 1 36 0;
#X connect 41 0 42 0;
#X connect 42 0 32 1;
#X connect 42 0 38 0;
#X connect 43 0 42 0;
#X connect 44 0 45 0;
#X connect 44 1 45 1;
#X connect 44 2 45 2;
#X connect 45 0 46 0;
#X coords 0 -1 1 1 380 180 1 100 100;
