#N canvas 1177 108 670 515 10;
#X obj 333 151 hsl 128 15 1 400 0 1 empty empty hp_dist 5 7 0 10 -257985
-258113 -1 4400 1;
#X obj 333 62 hsl 128 15 0 127 0 1 empty empty cutoff 5 7 0 10 -262144
-260097 -1 9900 1;
#X obj 333 77 hsl 128 15 0.3 5 0 1 empty empty resonance 5 7 0 10 -262144
-260097 -1 12700 1;
#X obj 333 107 hsl 128 15 0.1 16 1 1 empty empty rate 5 7 0 10 -262144
-260097 -1 5100 1;
#X obj 333 92 hsl 128 15 0 40 0 1 ncs133 ncr133 lfo_amp 5 7 0 10 -262144
-260097 -1 10800 1;
#X obj 333 121 hsl 128 15 0.01 50 1 1 empty empty env_amp 5 7 0 10
-262144 -260097 -1 8200 1;
#X obj 333 136 hsl 128 15 3 170 0 1 empty empty speed 5 7 0 10 -262144
-260097 -1 300 1;
#X obj 333 166 hsl 128 15 0 1 0 1 empty empty hp_amp 5 7 0 10 -204800
-258113 -1 8000 1;
#X obj 333 180 hsl 128 15 1 400 0 1 empty empty lp_dist 5 7 0 10 -257985
-258113 -1 3300 1;
#X obj 333 195 hsl 128 15 0 1 0 1 empty empty lp_amp 5 7 0 10 -204800
-258113 -1 8800 1;
#X obj 333 210 hsl 128 15 0 127 0 1 empty empty cutoff 5 7 0 10 -262144
-260097 -1 2300 1;
#X obj 333 225 hsl 128 15 0.3 5 0 1 empty empty resonance 5 7 0 10
-262144 -260097 -1 9300 1;
#N canvas 242 207 939 669 mod-fuzz 0;
#X obj -298 -7 inlet~;
#X obj -268 607 outlet~;
#X obj -250 528 +~;
#X obj -273 409 *~;
#X obj -300 470 *~;
#X obj -81 -6 inlet~;
#X obj -273 337 *~;
#X obj -273 362 clip~ -1 1;
#X obj -234 93 osc~;
#X obj -233 128 *~;
#X obj -249 191 +~;
#X obj -250 220 mtof~;
#N canvas 2 75 505 422 envfollow 0;
#X obj 98 55 inlet~;
#X obj 209 165 inlet;
#X obj 166 137 >~ 0;
#X obj 67 124 <~ 0;
#X obj 115 236 +~;
#X obj 89 155 *~ -1;
#X obj 63 192 *~;
#X obj 166 191 *~;
#X obj 141 264 lop~;
#X obj 139 350 clip~ 0 1;
#X obj 139 384 outlet~;
#X text 248 46 simple env follower;
#X text 255 169 cutoff controls speed;
#X obj 140 309 *~ 2;
#X connect 0 0 2 0;
#X connect 0 0 3 0;
#X connect 0 0 5 0;
#X connect 0 0 7 0;
#X connect 1 0 8 1;
#X connect 2 0 7 1;
#X connect 3 0 6 0;
#X connect 4 0 8 0;
#X connect 5 0 6 1;
#X connect 6 0 4 0;
#X connect 7 0 4 1;
#X connect 8 0 13 0;
#X connect 9 0 10 0;
#X connect 13 0 9 0;
#X restore -188 104 pd envfollow;
#X obj -234 168 +~;
#X obj -204 128 *~;
#X obj -190 44 +~;
#X obj -189 77 *~ 0.5;
#X obj -33 -7 inlet;
#X text -34 -24 cutoff;
#X obj 7 -7 inlet;
#X obj 51 -6 inlet;
#X text 53 -23 lfo;
#X obj 90 -6 inlet;
#X text 88 -24 rate;
#X obj 130 -6 inlet;
#X text 130 -23 env;
#X obj 169 -6 inlet;
#X text 168 -23 speed;
#X obj -189 337 *~;
#X obj -189 362 clip~ -1 1;
#X obj -189 408 *~;
#X obj 208 -6 inlet;
#X text 207 -23 disthp;
#X obj 252 -6 inlet;
#X text 251 -23 amphp;
#X obj 292 -6 inlet;
#X obj 336 -6 inlet;
#X text 10 -24 res;
#X text 291 -23 distlp;
#X text 335 -23 amplp;
#X obj -236 443 +~;
#X obj 378 -6 inlet;
#X text 376 -23 cutoff;
#X obj 420 -6 inlet;
#X text 422 -24 res;
#X obj -299 493 lop~;
#X obj 460 -6 inlet;
#X text 461 -24 dry;
#X obj -45 601 outlet~;
#X obj -32 521 +~;
#X obj -55 410 *~;
#X obj -81 470 *~;
#X obj -55 338 *~;
#X obj -55 363 clip~ -1 1;
#X obj 29 338 *~;
#X obj 29 363 clip~ -1 1;
#X obj 29 409 *~;
#X obj -18 444 +~;
#X obj -81 494 lop~;
#X text 542 -21 sync;
#X obj -113 428 mtof~;
#X obj -330 514 * -1;
#X obj -330 536 + 1;
#X obj -267 585 +~;
#X obj -251 561 *~;
#X obj 498 -7 inlet;
#X text 503 -22 on;
#X obj -125 502 * -1;
#X obj -125 524 + 1;
#X obj -46 575 +~;
#X obj -32 544 *~;
#X obj -351 560 *~ 1;
#X obj -146 552 *~ 1;
#X obj -171 429 mtof;
#X floatatom -216 502 7 0 0 0 - - -, f 7;
#X floatatom -194 186 7 0 0 0 - - -, f 7;
#X obj -192 159 mtof;
#X obj 541 -5 r synd;
#X obj -272 296 iemlib/vcf_hp2~;
#X obj -201 271 iemlib/vcf_lp2~;
#X obj -16 472 iemlib/vcf_lp2~ 2;
#X obj 119 299 iemlib/vcf_lp2~;
#X obj -54 297 iemlib/vcf_hp2~;
#X obj -236 471 iemlib/vcf_lp2~ 2;
#X connect 0 0 15 0;
#X connect 0 0 4 0;
#X connect 0 0 71 0;
#X connect 0 0 78 0;
#X connect 0 0 79 0;
#X connect 2 0 64 0;
#X connect 3 0 40 0;
#X connect 4 0 45 0;
#X connect 5 0 15 1;
#X connect 5 0 51 0;
#X connect 5 0 72 0;
#X connect 5 0 81 0;
#X connect 5 0 82 0;
#X connect 6 0 7 0;
#X connect 7 0 3 0;
#X connect 8 0 9 0;
#X connect 9 0 13 0;
#X connect 10 0 11 0;
#X connect 11 0 78 1;
#X connect 11 0 79 1;
#X connect 11 0 81 1;
#X connect 11 0 82 1;
#X connect 12 0 14 1;
#X connect 13 0 10 1;
#X connect 14 0 13 1;
#X connect 15 0 16 0;
#X connect 16 0 12 0;
#X connect 17 0 10 0;
#X connect 17 0 76 0;
#X connect 19 0 78 2;
#X connect 19 0 79 2;
#X connect 19 0 81 2;
#X connect 19 0 82 2;
#X connect 20 0 9 1;
#X connect 22 0 8 0;
#X connect 24 0 14 0;
#X connect 26 0 12 1;
#X connect 28 0 29 0;
#X connect 29 0 30 0;
#X connect 30 0 40 1;
#X connect 31 0 6 1;
#X connect 31 0 52 1;
#X connect 33 0 3 1;
#X connect 33 0 50 1;
#X connect 35 0 28 1;
#X connect 35 0 54 1;
#X connect 36 0 30 1;
#X connect 36 0 56 1;
#X connect 40 0 83 0;
#X connect 41 0 60 0;
#X connect 41 0 73 0;
#X connect 43 0 80 2;
#X connect 43 0 83 2;
#X connect 45 0 2 0;
#X connect 46 0 4 1;
#X connect 46 0 51 1;
#X connect 49 0 70 0;
#X connect 50 0 57 0;
#X connect 51 0 58 0;
#X connect 52 0 53 0;
#X connect 53 0 50 0;
#X connect 54 0 55 0;
#X connect 55 0 56 0;
#X connect 56 0 57 1;
#X connect 57 0 80 0;
#X connect 58 0 49 0;
#X connect 60 0 80 1;
#X connect 60 0 83 1;
#X connect 61 0 62 0;
#X connect 62 0 71 1;
#X connect 63 0 1 0;
#X connect 64 0 63 1;
#X connect 65 0 64 1;
#X connect 65 0 61 0;
#X connect 65 0 67 0;
#X connect 65 0 70 1;
#X connect 67 0 68 0;
#X connect 68 0 72 1;
#X connect 69 0 48 0;
#X connect 70 0 69 1;
#X connect 71 0 63 0;
#X connect 72 0 69 0;
#X connect 73 0 58 1;
#X connect 73 0 45 1;
#X connect 73 0 74 0;
#X connect 76 0 75 0;
#X connect 77 0 8 1;
#X connect 78 0 6 0;
#X connect 79 0 28 0;
#X connect 80 0 49 1;
#X connect 81 0 54 0;
#X connect 82 0 52 0;
#X connect 83 0 2 1;
#X restore 68 267 pd mod-fuzz -------------------;
#X obj 333 239 hsl 128 15 0 1 0 1 empty empty dry_amp 5 7 0 10 -262144
-260097 -1 12700 1;
#X obj 311 62 tgl 15 1 empty empty empty 17 7 0 10 -258113 -1 -1 0
1;
#X obj 69 129 inlet~;
#X obj 81 149 inlet~;
#X obj 68 290 outlet~;
#X obj 250 290 outlet~;
#X connect 0 0 12 8;
#X connect 1 0 12 2;
#X connect 2 0 12 3;
#X connect 3 0 12 5;
#X connect 4 0 12 4;
#X connect 5 0 12 6;
#X connect 6 0 12 7;
#X connect 7 0 12 9;
#X connect 8 0 12 10;
#X connect 9 0 12 11;
#X connect 10 0 12 12;
#X connect 11 0 12 13;
#X connect 12 0 17 0;
#X connect 12 1 18 0;
#X connect 13 0 12 14;
#X connect 14 0 12 15;
#X connect 15 0 12 0;
#X connect 16 0 12 1;
#X coords 0 -1 1 1 170 220 1 300 40;
