#N canvas 505 176 1034 419 10;
#X obj 107 142 bng 15 250 50 0 empty empty load 17 7 0 10 -262144 -1
-1;
#X obj 269 220 openpanel;
#X obj 267 351 soundfiler;
#X obj 107 161 bng 15 250 50 0 empty empty play 17 7 0 10 -262144 -1
-1;
#X msg 267 329 read -resize \$1 array-\$2;
#X obj 269 242 pack s \$0;
#X obj 287 96 tabplay~ array-\$0;
#X obj 287 40 inlet;
#X msg 343 249 set \$1;
#X msg 343 271 /home/zimmer/Pd/samples/sd/sd.wav;
#X obj 355 221 loadbang;
#X obj 287 150 outlet~;
#X obj 107 123 tgl 15 0 empty empty empty 17 7 0 10 -262144 -1 -1 0
1;
#X obj 157 123 vsl 15 50 0 1 0 0 empty empty empty 0 -9 0 10 -262144
-1 -1 0 1;
#X obj 287 118 *~;
#X obj 286 185 table array-\$0;
#X obj 137 283 switch~;
#X msg 287 69 0, f 2;
#X obj 39 21 loadbang;
#X msg 43 49 0.5;
#X msg 34 79 1;
#X msg 413 158 r msampler-\$1-load;
#X connect 0 0 1 0;
#X connect 1 0 5 0;
#X connect 1 0 8 0;
#X connect 3 0 17 0;
#X connect 4 0 2 0;
#X connect 5 0 4 0;
#X connect 6 0 14 0;
#X connect 7 0 3 0;
#X connect 8 0 9 0;
#X connect 9 0 5 0;
#X connect 10 0 9 0;
#X connect 12 0 16 0;
#X connect 13 0 14 1;
#X connect 14 0 11 0;
#X connect 17 0 6 0;
#X connect 18 0 20 0;
#X connect 18 0 19 0;
#X connect 19 0 13 0;
#X connect 20 0 12 0;
#X connect 21 0 5 0;
#X coords 0 -1 1 1 80 80 1 100 100;
