#N canvas 1 78 1905 1001 10;
#X obj 111 663 r vel_out-\$1;
#X obj 58 688 poly 8 1;
#X obj 58 710 pack 0 0 0;
#X obj 58 732 outlet;
#X obj 104 253 bng 15 250 50 0 empty empty empty 17 7 0 10 -262144
-1 -1;
#X obj 121 253 bng 15 250 50 0 empty empty empty 17 7 0 10 -262144
-1 -1;
#X obj 139 253 bng 15 250 50 0 empty empty empty 17 7 0 10 -262144
-1 -1;
#X obj 156 253 bng 15 250 50 0 empty empty empty 17 7 0 10 -262144
-1 -1;
#X obj 175 253 bng 15 250 50 0 empty empty empty 17 7 0 10 -262144
-1 -1;
#X obj 192 253 bng 15 250 50 0 empty empty empty 17 7 0 10 -262144
-1 -1;
#X obj 210 253 bng 15 250 50 0 empty empty empty 17 7 0 10 -262144
-1 -1;
#X obj 228 253 bng 15 250 50 0 empty empty empty 17 7 0 10 -262144
-1 -1;
#X obj 246 253 bng 15 250 50 0 empty empty empty 17 7 0 10 -262144
-1 -1;
#X obj 263 253 bng 15 250 50 0 empty empty empty 17 7 0 10 -262144
-1 -1;
#X obj 281 253 bng 15 250 50 0 empty empty empty 17 7 0 10 -262144
-1 -1;
#X obj 299 253 bng 15 250 50 0 empty empty empty 17 7 0 10 -262144
-1 -1;
#X obj 317 253 bng 15 250 50 0 empty empty empty 17 7 0 10 -262144
-1 -1;
#X obj 334 253 bng 15 250 50 0 empty empty empty 17 7 0 10 -262144
-1 -1;
#X obj 352 253 bng 15 250 50 0 empty empty empty 17 7 0 10 -262144
-1 -1;
#X obj 369 253 bng 15 250 50 0 empty empty empty 17 7 0 10 -262144
-1 -1;
#X obj 104 19 inlet, f 6;
#X obj 104 69 sel 0 1 2 3 4 5 6 7 8 9 10 11 12 13 14 15;
#X obj 104 94 spigot 0;
#X obj 121 116 spigot 0;
#X obj 139 136 spigot 0;
#X obj 156 158 spigot 0;
#X obj 175 94 spigot 0;
#X obj 192 116 spigot 0;
#X obj 210 136 spigot 0;
#X obj 228 158 spigot 0;
#X obj 246 94 spigot 0;
#X obj 263 116 spigot 0;
#X obj 281 136 spigot 0;
#X obj 299 158 spigot 0;
#X obj 317 94 spigot 0;
#X obj 334 116 spigot 0;
#X obj 352 135 spigot 0;
#X obj 369 158 spigot 0;
#X obj 104 47 %;
#X obj 153 19 r sqnt-\$1-nsteps;
#X obj 284 10 loadbang;
#X msg 284 30 16;
#X obj 58 640 r note_out-\$1;
#N canvas 0 78 1920 1002 calc 0;
#X obj 37 25 inlet;
#X obj 336 25 inlet;
#X obj 46 685 outlet;
#X msg 118 277 261.65;
#X obj 190 503 pow;
#X floatatom 316 297 5 0 0 1 v_(octave) - -, f 5;
#X floatatom 352 348 5 0 0 1 k_(degree) - -, f 5;
#X floatatom 511 344 5 0 0 1 N_(number_of_degrees) - -, f 5;
#X obj 100 564 *;
#X floatatom 100 586 10 0 0 0 - - -, f 10;
#X obj 334 369 f;
#X obj 298 320 f;
#X obj 493 368 f;
#X obj 190 476 f;
#X obj 172 528 f;
#X obj 100 480 f;
#X obj 280 486 f;
#X obj 316 417 f;
#X msg 208 277 2;
#X obj 334 394 /;
#X obj 298 446 +;
#X obj 44 134 bng 15 250 50 0 empty empty empty 17 7 0 10 -262144 -1
-1;
#X msg 352 321 11, f 5;
#X msg 448 191 set \$1;
#X obj 448 164 - 1;
#X obj 44 157 t b b b b b;
#X obj 336 73 - 4;
#X msg 336 95 set \$1;
#X msg 316 272 -2;
#X msg 511 318 72;
#X connect 0 0 24 0;
#X connect 1 0 26 0;
#X connect 3 0 15 1;
#X connect 4 0 14 1;
#X connect 5 0 11 1;
#X connect 6 0 10 1;
#X connect 7 0 12 1;
#X connect 8 0 9 0;
#X connect 9 0 2 0;
#X connect 10 0 19 0;
#X connect 11 0 20 0;
#X connect 12 0 19 1;
#X connect 13 0 4 0;
#X connect 14 0 8 1;
#X connect 15 0 8 0;
#X connect 16 0 4 1;
#X connect 17 0 20 1;
#X connect 18 0 13 1;
#X connect 19 0 17 1;
#X connect 20 0 16 1;
#X connect 21 0 25 0;
#X connect 22 0 6 0;
#X connect 23 0 22 0;
#X connect 24 0 23 0;
#X connect 24 0 21 0;
#X connect 25 0 14 0;
#X connect 25 0 15 0;
#X connect 25 1 16 0;
#X connect 25 1 13 0;
#X connect 25 2 17 0;
#X connect 25 2 11 0;
#X connect 25 3 12 0;
#X connect 25 3 10 0;
#X connect 25 4 29 0;
#X connect 25 4 22 0;
#X connect 25 4 28 0;
#X connect 25 4 18 0;
#X connect 25 4 3 0;
#X connect 26 0 27 0;
#X connect 26 0 21 0;
#X connect 27 0 28 0;
#X connect 28 0 5 0;
#X connect 29 0 7 0;
#X restore 21 851 pd calc;
#X obj 21 878 s note_out-\$1;
#X obj 21 801 r scaledegree-\$1;
#X obj 67 823 r octavek-\$1;
#X obj 778 468 r octpattern-\$1;
#X obj 778 491 unpack f f f f f f f f f f f f f f f f;
#X obj 760 558 f;
#X obj 790 558 f;
#X obj 820 558 f;
#X obj 850 558 f;
#X obj 879 558 f;
#X obj 909 558 f;
#X obj 939 558 f;
#X obj 969 558 f;
#X obj 999 558 f;
#X obj 1029 558 f;
#X obj 1059 558 f;
#X obj 1089 558 f;
#X obj 1120 558 f;
#X obj 1150 558 f;
#X obj 1180 558 f;
#X obj 1210 558 f;
#X obj 215 334 unpack f f f f f f f f f f f f f f f f;
#X obj 197 441 f;
#X obj 227 441 f;
#X obj 257 441 f;
#X obj 287 441 f;
#X obj 316 441 f;
#X obj 346 441 f;
#X obj 376 441 f;
#X obj 406 441 f;
#X obj 436 441 f;
#X obj 466 441 f;
#X obj 496 441 f;
#X obj 526 441 f;
#X obj 557 441 f;
#X obj 587 441 f;
#X obj 617 441 f;
#X obj 647 441 f;
#X obj 631 76 unpack f f f f f f f f f f f f f f f f;
#X obj 613 154 f;
#X obj 643 154 f;
#X obj 673 154 f;
#X obj 703 154 f;
#X obj 732 154 f;
#X obj 762 154 f;
#X obj 792 154 f;
#X obj 822 154 f;
#X obj 852 154 f;
#X obj 882 154 f;
#X obj 912 154 f;
#X obj 942 154 f;
#X obj 973 154 f;
#X obj 1003 154 f;
#X obj 1033 154 f;
#X obj 1061 154 f;
#X obj 215 311 r notepattern-\$1;
#X obj 631 53 r velpattern-\$1;
#X msg 1081 36 100 100 100 100 100 100 100 100 100 100 100 100 100
100 100 100;
#X msg 1114 79 4 4 4 4 4 4 4 4 4 4 4 4 4 4 4 4;
#X obj 1081 5 loadbang;
#X obj 197 583 s scaledegree-\$1;
#X obj 760 740 s octavek-\$1;
#X obj 613 343 s vel_out-\$1;
#X connect 0 0 1 1;
#X connect 1 0 2 0;
#X connect 1 1 2 1;
#X connect 1 2 2 2;
#X connect 2 0 3 0;
#X connect 4 0 66 0;
#X connect 4 0 49 0;
#X connect 4 0 83 0;
#X connect 5 0 67 0;
#X connect 5 0 50 0;
#X connect 5 0 84 0;
#X connect 6 0 68 0;
#X connect 6 0 51 0;
#X connect 6 0 85 0;
#X connect 7 0 69 0;
#X connect 7 0 52 0;
#X connect 7 0 86 0;
#X connect 8 0 70 0;
#X connect 8 0 53 0;
#X connect 8 0 87 0;
#X connect 9 0 71 0;
#X connect 9 0 54 0;
#X connect 9 0 88 0;
#X connect 10 0 72 0;
#X connect 10 0 55 0;
#X connect 10 0 89 0;
#X connect 11 0 73 0;
#X connect 11 0 56 0;
#X connect 11 0 90 0;
#X connect 12 0 74 0;
#X connect 12 0 57 0;
#X connect 12 0 91 0;
#X connect 13 0 75 0;
#X connect 13 0 58 0;
#X connect 13 0 92 0;
#X connect 14 0 76 0;
#X connect 14 0 59 0;
#X connect 14 0 93 0;
#X connect 15 0 77 0;
#X connect 15 0 60 0;
#X connect 15 0 94 0;
#X connect 16 0 78 0;
#X connect 16 0 61 0;
#X connect 16 0 95 0;
#X connect 17 0 79 0;
#X connect 17 0 62 0;
#X connect 17 0 96 0;
#X connect 18 0 80 0;
#X connect 18 0 63 0;
#X connect 18 0 97 0;
#X connect 19 0 81 0;
#X connect 19 0 64 0;
#X connect 19 0 98 0;
#X connect 20 0 38 0;
#X connect 21 0 22 0;
#X connect 21 1 23 0;
#X connect 21 2 24 0;
#X connect 21 3 25 0;
#X connect 21 4 26 0;
#X connect 21 5 27 0;
#X connect 21 6 28 0;
#X connect 21 7 29 0;
#X connect 21 8 30 0;
#X connect 21 9 31 0;
#X connect 21 10 32 0;
#X connect 21 11 33 0;
#X connect 21 12 34 0;
#X connect 21 13 35 0;
#X connect 21 14 36 0;
#X connect 21 15 37 0;
#X connect 22 0 4 0;
#X connect 23 0 5 0;
#X connect 24 0 6 0;
#X connect 25 0 7 0;
#X connect 26 0 8 0;
#X connect 27 0 9 0;
#X connect 28 0 10 0;
#X connect 29 0 11 0;
#X connect 30 0 12 0;
#X connect 31 0 13 0;
#X connect 32 0 14 0;
#X connect 33 0 15 0;
#X connect 34 0 16 0;
#X connect 35 0 17 0;
#X connect 36 0 18 0;
#X connect 37 0 19 0;
#X connect 38 0 21 0;
#X connect 39 0 38 1;
#X connect 40 0 41 0;
#X connect 41 0 38 1;
#X connect 42 0 1 0;
#X connect 43 0 44 0;
#X connect 45 0 43 0;
#X connect 46 0 43 1;
#X connect 47 0 48 0;
#X connect 48 0 49 1;
#X connect 48 1 50 1;
#X connect 48 2 51 1;
#X connect 48 3 52 1;
#X connect 48 4 53 1;
#X connect 48 5 54 1;
#X connect 48 6 55 1;
#X connect 48 7 56 1;
#X connect 48 8 57 1;
#X connect 48 9 58 1;
#X connect 48 10 59 1;
#X connect 48 11 60 1;
#X connect 48 12 61 1;
#X connect 48 13 62 1;
#X connect 48 14 63 1;
#X connect 48 15 64 1;
#X connect 49 0 105 0;
#X connect 50 0 105 0;
#X connect 51 0 105 0;
#X connect 52 0 105 0;
#X connect 53 0 105 0;
#X connect 54 0 105 0;
#X connect 55 0 105 0;
#X connect 56 0 105 0;
#X connect 57 0 105 0;
#X connect 58 0 105 0;
#X connect 59 0 105 0;
#X connect 60 0 105 0;
#X connect 61 0 105 0;
#X connect 62 0 105 0;
#X connect 63 0 105 0;
#X connect 64 0 105 0;
#X connect 65 0 66 1;
#X connect 65 0 22 1;
#X connect 65 1 67 1;
#X connect 65 1 23 1;
#X connect 65 2 68 1;
#X connect 65 2 24 1;
#X connect 65 3 69 1;
#X connect 65 3 25 1;
#X connect 65 4 70 1;
#X connect 65 4 26 1;
#X connect 65 5 71 1;
#X connect 65 5 27 1;
#X connect 65 6 72 1;
#X connect 65 6 28 1;
#X connect 65 7 73 1;
#X connect 65 7 29 1;
#X connect 65 8 74 1;
#X connect 65 8 30 1;
#X connect 65 9 75 1;
#X connect 65 9 31 1;
#X connect 65 10 76 1;
#X connect 65 10 32 1;
#X connect 65 11 77 1;
#X connect 65 11 33 1;
#X connect 65 12 78 1;
#X connect 65 12 34 1;
#X connect 65 13 79 1;
#X connect 65 13 35 1;
#X connect 65 14 80 1;
#X connect 65 14 36 1;
#X connect 65 15 81 1;
#X connect 65 15 37 1;
#X connect 66 0 104 0;
#X connect 67 0 104 0;
#X connect 68 0 104 0;
#X connect 69 0 104 0;
#X connect 70 0 104 0;
#X connect 71 0 104 0;
#X connect 72 0 104 0;
#X connect 73 0 104 0;
#X connect 74 0 104 0;
#X connect 75 0 104 0;
#X connect 76 0 104 0;
#X connect 77 0 104 0;
#X connect 78 0 104 0;
#X connect 79 0 104 0;
#X connect 80 0 104 0;
#X connect 81 0 104 0;
#X connect 82 0 83 1;
#X connect 82 1 84 1;
#X connect 82 2 85 1;
#X connect 82 3 86 1;
#X connect 82 4 87 1;
#X connect 82 5 88 1;
#X connect 82 6 89 1;
#X connect 82 7 90 1;
#X connect 82 8 91 1;
#X connect 82 9 92 1;
#X connect 82 10 93 1;
#X connect 82 11 94 1;
#X connect 82 12 95 1;
#X connect 82 13 96 1;
#X connect 82 14 97 1;
#X connect 82 15 98 1;
#X connect 83 0 106 0;
#X connect 84 0 106 0;
#X connect 85 0 106 0;
#X connect 86 0 106 0;
#X connect 87 0 106 0;
#X connect 88 0 106 0;
#X connect 89 0 106 0;
#X connect 90 0 106 0;
#X connect 91 0 106 0;
#X connect 92 0 106 0;
#X connect 93 0 106 0;
#X connect 94 0 106 0;
#X connect 95 0 106 0;
#X connect 96 0 106 0;
#X connect 97 0 106 0;
#X connect 98 0 106 0;
#X connect 99 0 65 0;
#X connect 100 0 82 0;
#X connect 101 0 82 0;
#X connect 102 0 48 0;
#X connect 103 0 101 0;
#X connect 103 0 102 0;
#X coords 0 1001 1 1000 550 220 0;
