#N canvas 2 77 1905 1001 10;
#X obj 351 801 r vel_out-\$1;
#X obj 295 832 poly 8 1;
#X obj 295 854 pack 0 0 0;
#X obj 295 876 outlet;
#X obj 104 267 nbx 5 14 0 72 0 0 empty empty empty 0 -8 0 10 -262144
-1 -1 2 256;
#X obj 133 943 r sqnt-\$1-note1;
#X obj 164 267 nbx 5 14 0 72 0 0 empty empty empty 0 -8 0 10 -262144
-1 -1 0 256;
#X obj 193 963 r sqnt-\$1-note2;
#X obj 225 267 nbx 5 14 0 72 0 0 empty empty empty 0 -8 0 10 -262144
-1 -1 0 256;
#X obj 254 943 r sqnt-\$1-note3;
#X obj 285 267 nbx 5 14 0 72 0 0 empty empty empty 0 -8 0 10 -262144
-1 -1 0 256;
#X obj 314 963 r sqnt-\$1-note4;
#X obj 344 267 nbx 5 14 0 72 0 0 empty empty empty 0 -8 0 10 -262144
-1 -1 45 256;
#X obj 373 943 r sqnt-\$1-note5;
#X obj 404 267 nbx 5 14 0 72 0 0 empty empty empty 0 -8 0 10 -262144
-1 -1 0 256;
#X obj 433 963 r sqnt-\$1-note6;
#X obj 465 267 nbx 5 14 0 72 0 0 empty empty empty 0 -8 0 10 -262144
-1 -1 0 256;
#X obj 494 943 r sqnt-\$1-note7;
#X obj 525 267 nbx 5 14 0 72 0 0 empty empty empty 0 -8 0 10 -262144
-1 -1 0 256;
#X obj 554 963 r sqnt-\$1-note8;
#X obj 135 355 nbx 5 14 0 72 0 0 empty empty empty 0 -8 0 10 -262144
-1 -1 0 256;
#X obj 130 986 r sqnt-\$1-note9;
#X obj 195 355 nbx 5 14 0 72 0 0 empty empty empty 0 -8 0 10 -262144
-1 -1 0 256;
#X obj 190 1006 r sqnt-\$1-note10;
#X obj 256 355 nbx 5 14 0 72 0 0 empty empty empty 0 -8 0 10 -262144
-1 -1 21 256;
#X obj 251 986 r sqnt-\$1-note11;
#X obj 316 355 nbx 5 14 0 72 0 0 empty empty empty 0 -8 0 10 -262144
-1 -1 0 256;
#X obj 311 1006 r sqnt-\$1-note12;
#X obj 375 354 nbx 5 14 0 72 0 0 empty empty empty 0 -8 0 10 -262144
-1 -1 0 256;
#X obj 370 986 r sqnt-\$1-note13;
#X obj 435 354 nbx 5 14 0 72 0 0 empty empty empty 0 -8 0 10 -262144
-1 -1 0 256;
#X obj 430 1006 r sqnt-\$1-note14;
#X obj 491 986 r sqnt-\$1-note15;
#X obj 556 355 nbx 5 14 0 72 0 0 empty empty empty 0 -8 0 10 -262144
-1 -1 0 256;
#X obj 551 1006 r sqnt-\$1-note16;
#X obj 104 241 bng 15 250 50 0 empty empty empty 17 7 0 10 -262144
-1 -1;
#X obj 164 241 bng 15 250 50 0 empty empty empty 17 7 0 10 -262144
-1 -1;
#X obj 224 241 bng 15 250 50 0 empty empty empty 17 7 0 10 -262144
-1 -1;
#X obj 284 241 bng 15 250 50 0 empty empty empty 17 7 0 10 -262144
-1 -1;
#X obj 344 241 bng 15 250 50 0 empty empty empty 17 7 0 10 -262144
-1 -1;
#X obj 404 241 bng 15 250 50 0 empty empty empty 17 7 0 10 -262144
-1 -1;
#X obj 464 244 bng 15 250 50 0 empty empty empty 17 7 0 10 -262144
-1 -1;
#X obj 524 242 bng 15 250 50 0 empty empty empty 17 7 0 10 -262144
-1 -1;
#X obj 137 330 bng 15 250 50 0 empty empty empty 17 7 0 10 -262144
-1 -1;
#X obj 195 329 bng 15 250 50 0 empty empty empty 17 7 0 10 -262144
-1 -1;
#X obj 255 329 bng 15 250 50 0 empty empty empty 17 7 0 10 -262144
-1 -1;
#X obj 315 329 bng 15 250 50 0 empty empty empty 17 7 0 10 -262144
-1 -1;
#X obj 376 328 bng 15 250 50 0 empty empty empty 17 7 0 10 -262144
-1 -1;
#X obj 435 329 bng 15 250 50 0 empty empty empty 17 7 0 10 -262144
-1 -1;
#X obj 495 329 bng 15 250 50 0 empty empty empty 17 7 0 10 -262144
-1 -1;
#X obj 555 329 bng 15 250 50 0 empty empty empty 17 7 0 10 -262144
-1 -1;
#X obj 104 2 inlet, f 6;
#X obj 104 57 sel 0 1 2 3 4 5 6 7 8 9 10 11 12 13 14 15;
#X obj 104 82 spigot 0;
#X obj 121 104 spigot 0;
#X obj 139 124 spigot 0;
#X obj 156 146 spigot 0;
#X obj 175 82 spigot 0;
#X obj 192 104 spigot 0;
#X obj 210 124 spigot 0;
#X obj 228 146 spigot 0;
#X obj 246 82 spigot 0;
#X obj 263 104 spigot 0;
#X obj 281 124 spigot 0;
#X obj 299 146 spigot 0;
#X obj 317 82 spigot 0;
#X obj 334 104 spigot 0;
#X obj 354 123 spigot 0;
#X obj 370 146 spigot 0;
#X obj 104 35 %;
#X obj 153 2 r sqnt-\$1-nsteps;
#X obj 533 205 nbx 2 14 0 16 0 0 empty empty steps 35 9 0 10 -262144
-1 -1 16 256;
#X obj 533 3 loadbang;
#X msg 533 25 16;
#X obj 105 303 nbx 5 14 0 120 0 0 empty empty empty 0 -8 0 10 -262144
-1 -1 100 256;
#X obj 165 303 nbx 5 14 0 120 0 0 empty empty empty 0 -8 0 10 -262144
-1 -1 100 256;
#X obj 225 303 nbx 5 14 0 120 0 0 empty empty empty 0 -8 0 10 -262144
-1 -1 100 256;
#X obj 285 303 nbx 5 14 0 120 0 0 empty empty empty 0 -8 0 10 -262144
-1 -1 100 256;
#X obj 345 303 nbx 5 14 0 120 0 0 empty empty empty 0 -8 0 10 -262144
-1 -1 100 256;
#X obj 405 303 nbx 5 14 0 120 0 0 empty empty empty 0 -8 0 10 -262144
-1 -1 100 256;
#X obj 464 302 nbx 5 14 0 120 0 0 empty empty empty 0 -8 0 10 -262144
-1 -1 100 256;
#X obj 525 303 nbx 5 14 0 120 0 0 empty empty empty 0 -8 0 10 -262144
-1 -1 100 256;
#X obj 135 392 nbx 5 14 0 120 0 0 empty empty empty 0 -8 0 10 -262144
-1 -1 100 256;
#X obj 195 392 nbx 5 14 0 120 0 0 empty empty empty 0 -8 0 10 -262144
-1 -1 100 256;
#X obj 255 392 nbx 5 14 0 120 0 0 empty empty empty 0 -8 0 10 -262144
-1 -1 100 256;
#X obj 315 392 nbx 5 14 0 120 0 0 empty empty empty 0 -8 0 10 -262144
-1 -1 100 256;
#X obj 375 392 nbx 5 14 0 120 0 0 empty empty empty 0 -8 0 10 -262144
-1 -1 100 256;
#X obj 435 392 nbx 5 14 0 120 0 0 empty empty empty 0 -8 0 10 -262144
-1 -1 100 256;
#X obj 495 392 nbx 5 14 0 120 0 0 empty empty empty 0 -8 0 10 -262144
-1 -1 100 256;
#X obj 555 392 nbx 5 14 0 120 0 0 empty empty empty 0 -8 0 10 -262144
-1 -1 100 256;
#X obj 10 608 r sqnt-\$1-vel1;
#X obj 129 610 r sqnt-\$1-vel3;
#X obj 247 610 r sqnt-\$1-vel5;
#X obj 368 610 r sqnt-\$1-vel7;
#X obj 67 630 r sqnt-\$1-vel2;
#X obj 188 630 r sqnt-\$1-vel4;
#X obj 307 630 r sqnt-\$1-vel6;
#X obj 428 630 r sqnt-\$1-vel8;
#X obj 4 653 r sqnt-\$1-vel9;
#X obj 125 653 r sqnt-\$1-vel11;
#X obj 244 653 r sqnt-\$1-vel13;
#X obj 365 653 r sqnt-\$1-vel15;
#X obj 64 673 r sqnt-\$1-vel10;
#X obj 185 673 r sqnt-\$1-vel12;
#X obj 304 673 r sqnt-\$1-vel14;
#X obj 425 673 r sqnt-\$1-vel16;
#X msg 31 453 set \$1;
#X msg 31 477 100;
#X msg 91 453 set \$1;
#X msg 91 475 100;
#X msg 152 453 set \$1;
#X msg 152 479 100;
#X msg 212 453 set \$1;
#X msg 212 475 100;
#X msg 271 453 set \$1;
#X msg 271 475 100;
#X msg 331 453 set \$1;
#X msg 331 475 100;
#X msg 392 453 set \$1;
#X msg 392 475 100;
#X msg 452 453 set \$1;
#X msg 452 475 100;
#X msg 61 503 set \$1;
#X msg 61 527 100;
#X msg 121 503 set \$1;
#X msg 121 525 100;
#X msg 182 503 set \$1;
#X msg 182 525 100;
#X msg 242 503 set \$1;
#X msg 242 525 100;
#X msg 301 503 set \$1;
#X msg 301 525 100;
#X msg 361 503 set \$1;
#X msg 361 525 100;
#X msg 422 503 set \$1;
#X msg 422 525 100;
#X msg 482 503 set \$1;
#X msg 482 525 100;
#X obj 295 769 r note_out-\$1;
#X obj 437 571 s vel_out-\$1;
#N canvas 88 242 927 666 patterns 0;
#X obj 32 383 r notepattern-\$1;
#X obj 32 405 unpack f f f f f f f f f f f f f f f f;
#X obj 32 470 s sqnt-\$1-note1;
#X obj 20 526 s sqnt-\$1-note9;
#X obj 152 470 s sqnt-\$1-note3;
#X obj 92 490 s sqnt-\$1-note2;
#X obj 80 546 s sqnt-\$1-note10;
#X obj 213 490 s sqnt-\$1-note4;
#X obj 141 526 s sqnt-\$1-note11;
#X obj 201 546 s sqnt-\$1-note12;
#X obj 272 470 s sqnt-\$1-note5;
#X obj 332 490 s sqnt-\$1-note6;
#X obj 260 526 s sqnt-\$1-note13;
#X obj 320 546 s sqnt-\$1-note14;
#X obj 381 526 s sqnt-\$1-note15;
#X obj 393 470 s sqnt-\$1-note7;
#X obj 453 490 s sqnt-\$1-note8;
#X obj 441 546 s sqnt-\$1-note16;
#X obj 43 119 unpack f f f f f f f f f f f f f f f f;
#X obj 43 149 s sqnt-\$1-vel1;
#X obj 84 255 s sqnt-\$1-vel9;
#X obj 163 149 s sqnt-\$1-vel3;
#X obj 103 169 s sqnt-\$1-vel2;
#X obj 144 275 s sqnt-\$1-vel10;
#X obj 224 169 s sqnt-\$1-vel4;
#X obj 205 255 s sqnt-\$1-vel11;
#X obj 265 275 s sqnt-\$1-vel12;
#X obj 63 194 s sqnt-\$1-vel5;
#X obj 123 214 s sqnt-\$1-vel6;
#X obj 121 303 s sqnt-\$1-vel13;
#X obj 181 323 s sqnt-\$1-vel14;
#X obj 242 303 s sqnt-\$1-vel15;
#X obj 173 193 s sqnt-\$1-vel7;
#X obj 233 213 s sqnt-\$1-vel8;
#X obj 302 323 s sqnt-\$1-vel16;
#X obj 43 97 r velpattern-\$1;
#X msg 21 38 100 100 100 100 100 100 100 100 100 100 100 100 100 100
100 100;
#X obj 21 7 inlet;
#X obj 453 246 s sqnt-\$1-oct1;
#X obj 561 246 s sqnt-\$1-oct2;
#X obj 669 246 s sqnt-\$1-oct3;
#X obj 777 246 s sqnt-\$1-oct4;
#X obj 463 266 s sqnt-\$1-oct5;
#X obj 571 266 s sqnt-\$1-oct6;
#X obj 679 266 s sqnt-\$1-oct7;
#X obj 787 266 s sqnt-\$1-oct8;
#X obj 473 286 s sqnt-\$1-oct9;
#X obj 581 286 s sqnt-\$1-oct10;
#X obj 689 286 s sqnt-\$1-oct11;
#X obj 797 286 s sqnt-\$1-oct12;
#X obj 483 306 s sqnt-\$1-oct13;
#X obj 591 306 s sqnt-\$1-oct14;
#X obj 699 306 s sqnt-\$1-oct15;
#X obj 807 306 s sqnt-\$1-oct16;
#X obj 485 120 r octpattern-\$1;
#X obj 485 142 unpack f f f f f f f f f f f f f f f f;
#X connect 0 0 1 0;
#X connect 1 0 2 0;
#X connect 1 1 5 0;
#X connect 1 2 4 0;
#X connect 1 3 7 0;
#X connect 1 4 10 0;
#X connect 1 5 11 0;
#X connect 1 6 15 0;
#X connect 1 7 16 0;
#X connect 1 8 3 0;
#X connect 1 9 6 0;
#X connect 1 10 8 0;
#X connect 1 11 9 0;
#X connect 1 12 12 0;
#X connect 1 13 13 0;
#X connect 1 14 14 0;
#X connect 1 15 17 0;
#X connect 18 0 19 0;
#X connect 18 1 22 0;
#X connect 18 2 21 0;
#X connect 18 3 24 0;
#X connect 18 4 27 0;
#X connect 18 5 28 0;
#X connect 18 6 32 0;
#X connect 18 7 33 0;
#X connect 18 8 20 0;
#X connect 18 9 23 0;
#X connect 18 10 25 0;
#X connect 18 11 26 0;
#X connect 18 12 29 0;
#X connect 18 13 30 0;
#X connect 18 14 31 0;
#X connect 18 15 34 0;
#X connect 35 0 18 0;
#X connect 36 0 18 0;
#X connect 37 0 36 0;
#X connect 54 0 55 0;
#X connect 55 0 38 0;
#X connect 55 1 39 0;
#X connect 55 2 40 0;
#X connect 55 3 41 0;
#X connect 55 4 42 0;
#X connect 55 5 43 0;
#X connect 55 6 44 0;
#X connect 55 7 45 0;
#X connect 55 8 46 0;
#X connect 55 9 47 0;
#X connect 55 10 48 0;
#X connect 55 11 49 0;
#X connect 55 12 50 0;
#X connect 55 13 51 0;
#X connect 55 14 52 0;
#X connect 55 15 53 0;
#X restore 592 31 pd patterns;
#X msg 560 534 set \$1;
#X msg 560 556 2;
#X obj 104 285 nbx 5 14 0 8 0 0 empty empty empty 0 -8 0 10 -262144
-1 -1 2 256;
#X obj 164 285 nbx 5 14 0 8 0 0 empty empty empty 0 -8 0 10 -262144
-1 -1 0 256;
#X obj 225 285 nbx 5 14 0 8 0 0 empty empty empty 0 -8 0 10 -262144
-1 -1 0 256;
#X obj 285 285 nbx 5 14 0 8 0 0 empty empty empty 0 -8 0 10 -262144
-1 -1 0 256;
#X obj 344 285 nbx 5 14 0 8 0 0 empty empty empty 0 -8 0 10 -262144
-1 -1 3 256;
#X obj 404 285 nbx 5 14 0 8 0 0 empty empty empty 0 -8 0 10 -262144
-1 -1 0 256;
#X obj 465 285 nbx 5 14 0 8 0 0 empty empty empty 0 -8 0 10 -262144
-1 -1 0 256;
#X obj 525 285 nbx 5 14 0 8 0 0 empty empty empty 0 -8 0 10 -262144
-1 -1 4 256;
#X obj 135 373 nbx 5 14 0 8 0 0 empty empty empty 0 -8 0 10 -262144
-1 -1 0 256;
#X obj 195 373 nbx 5 14 0 8 0 0 empty empty empty 0 -8 0 10 -262144
-1 -1 0 256;
#X obj 256 373 nbx 5 14 0 8 0 0 empty empty empty 0 -8 0 10 -262144
-1 -1 2 256;
#X obj 316 373 nbx 5 14 0 8 0 0 empty empty empty 0 -8 0 10 -262144
-1 -1 0 256;
#X obj 375 373 nbx 5 14 0 8 0 0 empty empty empty 0 -8 0 10 -262144
-1 -1 0 256;
#X obj 435 373 nbx 5 14 0 8 0 0 empty empty empty 0 -8 0 10 -262144
-1 -1 0 256;
#X obj 496 373 nbx 5 14 0 8 0 0 empty empty empty 0 -8 0 10 -262144
-1 -1 0 256;
#X obj 556 373 nbx 5 14 0 8 0 0 empty empty empty 0 -8 0 10 -262144
-1 -1 0 256;
#N canvas 0 78 1920 1002 calc 0;
#X obj 37 25 inlet;
#X obj 336 25 inlet;
#X obj 46 685 outlet;
#X msg 118 277 261.65;
#X obj 190 503 pow;
#X floatatom 316 297 5 0 0 1 v_(octave) - -, f 5;
#X floatatom 352 348 5 0 0 1 k_(degree) - -, f 5;
#X floatatom 511 344 5 0 0 1 N_(number_of_degrees) - -, f 5;
#X obj 100 564 *;
#X floatatom 100 586 10 0 0 0 - - -, f 10;
#X obj 334 369 f;
#X obj 298 320 f;
#X obj 493 368 f;
#X obj 190 476 f;
#X obj 172 528 f;
#X obj 100 480 f;
#X obj 280 486 f;
#X obj 316 417 f;
#X msg 208 277 2;
#X obj 334 394 /;
#X obj 298 446 +;
#X obj 44 134 bng 15 250 50 0 empty empty empty 17 7 0 10 -262144 -1
-1;
#X msg 352 321 20, f 5;
#X msg 448 191 set \$1;
#X obj 448 164 - 1;
#X obj 44 157 t b b b b b;
#X obj 336 73 - 4;
#X msg 336 95 set \$1;
#X msg 316 272 -2;
#X msg 511 318 72;
#X connect 0 0 24 0;
#X connect 1 0 26 0;
#X connect 3 0 15 1;
#X connect 4 0 14 1;
#X connect 5 0 11 1;
#X connect 6 0 10 1;
#X connect 7 0 12 1;
#X connect 8 0 9 0;
#X connect 9 0 2 0;
#X connect 10 0 19 0;
#X connect 11 0 20 0;
#X connect 12 0 19 1;
#X connect 13 0 4 0;
#X connect 14 0 8 1;
#X connect 15 0 8 0;
#X connect 16 0 4 1;
#X connect 17 0 20 1;
#X connect 18 0 13 1;
#X connect 19 0 17 1;
#X connect 20 0 16 1;
#X connect 21 0 25 0;
#X connect 22 0 6 0;
#X connect 23 0 22 0;
#X connect 24 0 23 0;
#X connect 24 0 21 0;
#X connect 25 0 14 0;
#X connect 25 0 15 0;
#X connect 25 1 16 0;
#X connect 25 1 13 0;
#X connect 25 2 17 0;
#X connect 25 2 11 0;
#X connect 25 3 12 0;
#X connect 25 3 10 0;
#X connect 25 4 29 0;
#X connect 25 4 22 0;
#X connect 25 4 28 0;
#X connect 25 4 18 0;
#X connect 25 4 3 0;
#X connect 26 0 27 0;
#X connect 26 0 21 0;
#X connect 27 0 28 0;
#X connect 28 0 5 0;
#X connect 29 0 7 0;
#X restore 476 773 pd calc;
#X obj 472 820 s note_out-\$1;
#X obj 476 723 r scaledegree-\$1;
#X obj 522 745 r octavek-\$1;
#X obj 560 578 s scaledegree-\$1;
#X msg 680 534 set \$1;
#X msg 680 556 0;
#X obj 680 578 s scaledegree-\$1;
#X msg 800 534 set \$1;
#X msg 800 556 0;
#X obj 800 578 s scaledegree-\$1;
#X msg 920 534 set \$1;
#X msg 920 556 0;
#X obj 920 578 s scaledegree-\$1;
#X msg 1040 534 set \$1;
#X msg 1040 556 45;
#X obj 1040 578 s scaledegree-\$1;
#X msg 1160 534 set \$1;
#X msg 1160 556 0;
#X obj 1160 578 s scaledegree-\$1;
#X msg 1280 534 set \$1;
#X msg 1280 556 0;
#X obj 1280 578 s scaledegree-\$1;
#X msg 1400 534 set \$1;
#X msg 1400 556 0;
#X obj 1400 578 s scaledegree-\$1;
#X msg 590 604 set \$1;
#X msg 590 626 0;
#X obj 590 648 s scaledegree-\$1;
#X msg 710 604 set \$1;
#X msg 710 626 0;
#X obj 710 648 s scaledegree-\$1;
#X msg 830 604 set \$1;
#X msg 830 626 21;
#X obj 830 648 s scaledegree-\$1;
#X msg 950 604 set \$1;
#X msg 950 626 0;
#X obj 950 648 s scaledegree-\$1;
#X msg 1070 604 set \$1;
#X msg 1070 626 0;
#X obj 1070 648 s scaledegree-\$1;
#X msg 1190 604 set \$1;
#X msg 1190 626 0;
#X obj 1190 648 s scaledegree-\$1;
#X msg 1310 602 set \$1;
#X msg 1310 624 0;
#X obj 1310 646 s scaledegree-\$1;
#X msg 1430 604 set \$1;
#X msg 1430 626 0;
#X obj 1430 648 s scaledegree-\$1;
#X msg 669 700 set \$1;
#X msg 669 722 2;
#X obj 670 744 s octavek-\$1;
#X msg 759 700 set \$1;
#X msg 759 722 0;
#X obj 760 744 s octavek-\$1;
#X msg 849 700 set \$1;
#X msg 849 722 0;
#X obj 850 744 s octavek-\$1;
#X msg 937 697 set \$1;
#X msg 939 721 0;
#X obj 940 744 s octavek-\$1;
#X msg 1030 693 set \$1;
#X msg 1030 718 3;
#X obj 1030 744 s octavek-\$1;
#X msg 1119 700 set \$1;
#X msg 1119 722 0;
#X obj 1120 744 s octavek-\$1;
#X msg 1209 700 set \$1;
#X msg 1209 722 0;
#X obj 1210 744 s octavek-\$1;
#X msg 1299 700 set \$1;
#X msg 1299 722 4;
#X obj 1300 744 s octavek-\$1;
#X msg 699 770 set \$1;
#X msg 699 792 0;
#X obj 700 814 s octavek-\$1;
#X msg 789 770 set \$1;
#X msg 789 792 0;
#X obj 790 814 s octavek-\$1;
#X msg 879 770 set \$1;
#X msg 879 792 2;
#X obj 880 814 s octavek-\$1;
#X msg 969 770 set \$1;
#X msg 969 792 0;
#X obj 970 814 s octavek-\$1;
#X msg 1059 770 set \$1;
#X msg 1059 792 0;
#X obj 1060 814 s octavek-\$1;
#X msg 1149 770 set \$1;
#X msg 1149 792 0;
#X obj 1150 814 s octavek-\$1;
#X msg 1239 770 set \$1;
#X msg 1239 792 0;
#X obj 1240 814 s octavek-\$1;
#X msg 1329 770 set \$1;
#X msg 1329 792 0;
#X obj 1330 814 s octavek-\$1;
#X msg 497 26 4;
#X obj 496 355 nbx 5 14 0 72 0 0 empty empty empty 0 -8 0 10 -262144
-1 -1 0 256;
#X obj 741 81 r sqnt-\$1-oct1;
#X obj 850 81 r sqnt-\$1-oct2;
#X obj 957 81 r sqnt-\$1-oct3;
#X obj 1066 81 r sqnt-\$1-oct4;
#X obj 916 146 r sqnt-\$1-oct5;
#X obj 883 189 r sqnt-\$1-oct6;
#X obj 990 189 r sqnt-\$1-oct7;
#X obj 1099 189 r sqnt-\$1-oct8;
#X obj 904 258 r sqnt-\$1-oct9;
#X obj 1016 258 r sqnt-\$1-oct10;
#X obj 1129 258 r sqnt-\$1-oct11;
#X obj 1242 258 r sqnt-\$1-oct12;
#X obj 924 278 r sqnt-\$1-oct13;
#X obj 1036 278 r sqnt-\$1-oct14;
#X obj 1149 278 r sqnt-\$1-oct15;
#X obj 1262 278 r sqnt-\$1-oct16;
#X connect 0 0 1 1;
#X connect 1 0 2 0;
#X connect 1 1 2 1;
#X connect 1 2 2 2;
#X connect 2 0 3 0;
#X connect 4 0 53 1;
#X connect 4 0 141 0;
#X connect 5 0 4 0;
#X connect 6 0 54 1;
#X connect 6 0 164 0;
#X connect 7 0 6 0;
#X connect 8 0 55 1;
#X connect 8 0 167 0;
#X connect 9 0 8 0;
#X connect 10 0 56 1;
#X connect 10 0 170 0;
#X connect 11 0 10 0;
#X connect 12 0 57 1;
#X connect 12 0 173 0;
#X connect 13 0 12 0;
#X connect 14 0 58 1;
#X connect 14 0 176 0;
#X connect 15 0 14 0;
#X connect 16 0 59 1;
#X connect 16 0 179 0;
#X connect 17 0 16 0;
#X connect 18 0 60 1;
#X connect 18 0 182 0;
#X connect 19 0 18 0;
#X connect 20 0 61 1;
#X connect 20 0 185 0;
#X connect 21 0 20 0;
#X connect 22 0 62 1;
#X connect 22 0 188 0;
#X connect 23 0 22 0;
#X connect 24 0 63 1;
#X connect 24 0 191 0;
#X connect 25 0 24 0;
#X connect 26 0 64 1;
#X connect 26 0 194 0;
#X connect 27 0 26 0;
#X connect 28 0 65 1;
#X connect 28 0 197 0;
#X connect 29 0 28 0;
#X connect 30 0 66 1;
#X connect 30 0 200 0;
#X connect 31 0 30 0;
#X connect 33 0 68 1;
#X connect 33 0 206 0;
#X connect 34 0 33 0;
#X connect 35 0 107 0;
#X connect 35 0 142 0;
#X connect 35 0 210 0;
#X connect 36 0 109 0;
#X connect 36 0 165 0;
#X connect 36 0 213 0;
#X connect 37 0 111 0;
#X connect 37 0 168 0;
#X connect 37 0 216 0;
#X connect 38 0 113 0;
#X connect 38 0 171 0;
#X connect 38 0 219 0;
#X connect 39 0 115 0;
#X connect 39 0 174 0;
#X connect 39 0 222 0;
#X connect 40 0 117 0;
#X connect 40 0 177 0;
#X connect 40 0 225 0;
#X connect 41 0 119 0;
#X connect 41 0 180 0;
#X connect 41 0 228 0;
#X connect 42 0 121 0;
#X connect 42 0 183 0;
#X connect 42 0 231 0;
#X connect 43 0 123 0;
#X connect 43 0 186 0;
#X connect 43 0 234 0;
#X connect 44 0 125 0;
#X connect 44 0 189 0;
#X connect 44 0 237 0;
#X connect 45 0 127 0;
#X connect 45 0 192 0;
#X connect 45 0 240 0;
#X connect 46 0 129 0;
#X connect 46 0 195 0;
#X connect 46 0 243 0;
#X connect 47 0 131 0;
#X connect 47 0 198 0;
#X connect 47 0 246 0;
#X connect 48 0 133 0;
#X connect 48 0 201 0;
#X connect 48 0 249 0;
#X connect 49 0 135 0;
#X connect 49 0 204 0;
#X connect 49 0 252 0;
#X connect 49 0 203 0;
#X connect 50 0 137 0;
#X connect 50 0 207 0;
#X connect 50 0 255 0;
#X connect 51 0 69 0;
#X connect 52 0 53 0;
#X connect 52 1 54 0;
#X connect 52 2 55 0;
#X connect 52 3 56 0;
#X connect 52 4 57 0;
#X connect 52 5 58 0;
#X connect 52 6 59 0;
#X connect 52 7 60 0;
#X connect 52 8 61 0;
#X connect 52 9 62 0;
#X connect 52 10 63 0;
#X connect 52 11 64 0;
#X connect 52 12 65 0;
#X connect 52 13 66 0;
#X connect 52 14 67 0;
#X connect 52 15 68 0;
#X connect 53 0 35 0;
#X connect 54 0 36 0;
#X connect 55 0 37 0;
#X connect 56 0 38 0;
#X connect 57 0 39 0;
#X connect 58 0 40 0;
#X connect 59 0 41 0;
#X connect 60 0 42 0;
#X connect 61 0 43 0;
#X connect 62 0 44 0;
#X connect 63 0 45 0;
#X connect 64 0 46 0;
#X connect 65 0 47 0;
#X connect 66 0 48 0;
#X connect 67 0 49 0;
#X connect 68 0 50 0;
#X connect 69 0 52 0;
#X connect 70 0 71 0;
#X connect 71 0 69 1;
#X connect 72 0 73 0;
#X connect 72 0 140 0;
#X connect 72 0 257 0;
#X connect 73 0 71 0;
#X connect 74 0 106 0;
#X connect 75 0 108 0;
#X connect 76 0 110 0;
#X connect 77 0 112 0;
#X connect 78 0 114 0;
#X connect 79 0 116 0;
#X connect 80 0 118 0;
#X connect 81 0 120 0;
#X connect 82 0 122 0;
#X connect 83 0 124 0;
#X connect 84 0 126 0;
#X connect 85 0 128 0;
#X connect 86 0 130 0;
#X connect 87 0 132 0;
#X connect 88 0 134 0;
#X connect 89 0 136 0;
#X connect 90 0 74 0;
#X connect 91 0 76 0;
#X connect 92 0 78 0;
#X connect 93 0 80 0;
#X connect 94 0 75 0;
#X connect 95 0 77 0;
#X connect 96 0 79 0;
#X connect 97 0 81 0;
#X connect 98 0 82 0;
#X connect 99 0 84 0;
#X connect 100 0 86 0;
#X connect 101 0 88 0;
#X connect 102 0 83 0;
#X connect 103 0 85 0;
#X connect 104 0 87 0;
#X connect 105 0 89 0;
#X connect 106 0 107 0;
#X connect 107 0 139 0;
#X connect 108 0 109 0;
#X connect 109 0 139 0;
#X connect 110 0 111 0;
#X connect 111 0 139 0;
#X connect 112 0 113 0;
#X connect 113 0 139 0;
#X connect 114 0 115 0;
#X connect 115 0 139 0;
#X connect 116 0 117 0;
#X connect 117 0 139 0;
#X connect 118 0 119 0;
#X connect 119 0 139 0;
#X connect 120 0 121 0;
#X connect 121 0 139 0;
#X connect 122 0 123 0;
#X connect 123 0 139 0;
#X connect 124 0 125 0;
#X connect 125 0 139 0;
#X connect 126 0 127 0;
#X connect 127 0 139 0;
#X connect 128 0 129 0;
#X connect 129 0 139 0;
#X connect 130 0 131 0;
#X connect 131 0 139 0;
#X connect 132 0 133 0;
#X connect 133 0 139 0;
#X connect 134 0 135 0;
#X connect 135 0 139 0;
#X connect 136 0 137 0;
#X connect 137 0 139 0;
#X connect 138 0 1 0;
#X connect 141 0 142 0;
#X connect 142 0 163 0;
#X connect 143 0 209 0;
#X connect 144 0 212 0;
#X connect 145 0 215 0;
#X connect 146 0 218 0;
#X connect 147 0 221 0;
#X connect 148 0 224 0;
#X connect 149 0 227 0;
#X connect 150 0 230 0;
#X connect 151 0 233 0;
#X connect 152 0 236 0;
#X connect 153 0 239 0;
#X connect 154 0 242 0;
#X connect 155 0 245 0;
#X connect 156 0 248 0;
#X connect 157 0 251 0;
#X connect 158 0 254 0;
#X connect 159 0 160 0;
#X connect 161 0 159 0;
#X connect 162 0 159 1;
#X connect 164 0 165 0;
#X connect 165 0 166 0;
#X connect 167 0 168 0;
#X connect 168 0 169 0;
#X connect 170 0 171 0;
#X connect 171 0 172 0;
#X connect 173 0 174 0;
#X connect 174 0 175 0;
#X connect 176 0 177 0;
#X connect 177 0 178 0;
#X connect 179 0 180 0;
#X connect 180 0 181 0;
#X connect 182 0 183 0;
#X connect 183 0 184 0;
#X connect 185 0 186 0;
#X connect 186 0 187 0;
#X connect 188 0 189 0;
#X connect 189 0 190 0;
#X connect 191 0 192 0;
#X connect 192 0 193 0;
#X connect 194 0 195 0;
#X connect 195 0 196 0;
#X connect 197 0 198 0;
#X connect 198 0 199 0;
#X connect 200 0 201 0;
#X connect 201 0 202 0;
#X connect 203 0 204 0;
#X connect 204 0 205 0;
#X connect 206 0 207 0;
#X connect 207 0 208 0;
#X connect 209 0 210 0;
#X connect 210 0 211 0;
#X connect 212 0 213 0;
#X connect 213 0 214 0;
#X connect 215 0 216 0;
#X connect 216 0 217 0;
#X connect 218 0 219 0;
#X connect 219 0 220 0;
#X connect 221 0 222 0;
#X connect 222 0 223 0;
#X connect 224 0 225 0;
#X connect 225 0 226 0;
#X connect 227 0 228 0;
#X connect 228 0 229 0;
#X connect 230 0 231 0;
#X connect 231 0 232 0;
#X connect 233 0 234 0;
#X connect 234 0 235 0;
#X connect 236 0 237 0;
#X connect 237 0 238 0;
#X connect 239 0 240 0;
#X connect 240 0 241 0;
#X connect 242 0 243 0;
#X connect 243 0 244 0;
#X connect 245 0 246 0;
#X connect 246 0 247 0;
#X connect 248 0 249 0;
#X connect 249 0 250 0;
#X connect 251 0 252 0;
#X connect 252 0 253 0;
#X connect 254 0 255 0;
#X connect 255 0 256 0;
#X connect 257 0 143 0;
#X connect 257 0 144 0;
#X connect 257 0 145 0;
#X connect 257 0 146 0;
#X connect 257 0 147 0;
#X connect 257 0 148 0;
#X connect 257 0 149 0;
#X connect 257 0 150 0;
#X connect 257 0 151 0;
#X connect 257 0 152 0;
#X connect 257 0 153 0;
#X connect 257 0 154 0;
#X connect 257 0 155 0;
#X connect 257 0 156 0;
#X connect 257 0 157 0;
#X connect 257 0 158 0;
#X connect 258 0 67 1;
#X connect 259 0 143 0;
#X connect 260 0 144 0;
#X connect 261 0 145 0;
#X connect 262 0 146 0;
#X connect 263 0 147 0;
#X connect 264 0 148 0;
#X connect 265 0 149 0;
#X connect 266 0 150 0;
#X connect 267 0 151 0;
#X connect 268 0 152 0;
#X connect 269 0 153 0;
#X connect 270 0 154 0;
#X connect 271 0 155 0;
#X connect 272 0 156 0;
#X connect 273 0 157 0;
#X connect 274 0 158 0;
#X coords 0 -1 1 1 550 220 1 80 200;
