#N canvas 30 77 1877 1001 10;
#X obj 351 800 r vel_out-\$1;
#X obj 295 831 poly 8 1;
#X obj 295 853 pack 0 0 0;
#X obj 295 875 outlet;
#X obj 95 266 nbx 5 14 0 8000 0 0 empty empty empty 0 -8 0 10 -262144
-1 -1 0 256;
#X obj 583 53 r sqnt-\$1-note1;
#X obj 155 266 nbx 5 14 0 8000 0 0 empty empty empty 0 -8 0 10 -262144
-1 -1 0 256;
#X obj 643 73 r sqnt-\$1-note2;
#X obj 216 266 nbx 5 14 0 8000 0 0 empty empty empty 0 -8 0 10 -262144
-1 -1 0 256;
#X obj 704 53 r sqnt-\$1-note3;
#X obj 276 266 nbx 5 14 0 8000 0 0 empty empty empty 0 -8 0 10 -262144
-1 -1 0 256;
#X obj 764 73 r sqnt-\$1-note4;
#X obj 335 266 nbx 5 14 0 8000 0 0 empty empty empty 0 -8 0 10 -262144
-1 -1 0 256;
#X obj 823 53 r sqnt-\$1-note5;
#X obj 395 266 nbx 5 14 0 8000 0 0 empty empty empty 0 -8 0 10 -262144
-1 -1 0 256;
#X obj 883 73 r sqnt-\$1-note6;
#X obj 456 266 nbx 5 14 0 8000 0 0 empty empty empty 0 -8 0 10 -262144
-1 -1 0 256;
#X obj 944 53 r sqnt-\$1-note7;
#X obj 516 266 nbx 5 14 0 8000 0 0 empty empty empty 0 -8 0 10 -262144
-1 -1 0 256;
#X obj 1004 73 r sqnt-\$1-note8;
#X obj 126 332 nbx 5 14 0 8000 0 0 empty empty empty 0 -8 0 10 -262144
-1 -1 0 256;
#X obj 580 96 r sqnt-\$1-note9;
#X obj 186 332 nbx 5 14 0 8000 0 0 empty empty empty 0 -8 0 10 -262144
-1 -1 0 256;
#X obj 640 116 r sqnt-\$1-note10;
#X obj 247 332 nbx 5 14 0 8000 0 0 empty empty empty 0 -8 0 10 -262144
-1 -1 0 256;
#X obj 701 96 r sqnt-\$1-note11;
#X obj 307 332 nbx 5 14 0 8000 0 0 empty empty empty 0 -8 0 10 -262144
-1 -1 0 256;
#X obj 761 116 r sqnt-\$1-note12;
#X obj 366 332 nbx 5 14 0 8000 0 0 empty empty empty 0 -8 0 10 -262144
-1 -1 0 256;
#X obj 820 96 r sqnt-\$1-note13;
#X obj 426 332 nbx 5 14 0 8000 0 0 empty empty empty 0 -8 0 10 -262144
-1 -1 0 256;
#X obj 880 116 r sqnt-\$1-note14;
#X obj 487 332 nbx 5 14 0 8000 0 0 empty empty empty 0 -8 0 10 -262144
-1 -1 0 256;
#X obj 941 96 r sqnt-\$1-note15;
#X obj 547 332 nbx 5 14 0 8000 0 0 empty empty empty 0 -8 0 10 -262144
-1 -1 0 256;
#X obj 1001 116 r sqnt-\$1-note16;
#X obj 95 240 bng 15 250 50 0 empty empty empty 17 7 0 10 -262144 -1
-1;
#X obj 155 240 bng 15 250 50 0 empty empty empty 17 7 0 10 -262144
-1 -1;
#X obj 215 240 bng 15 250 50 0 empty empty empty 17 7 0 10 -262144
-1 -1;
#X obj 275 240 bng 15 250 50 0 empty empty empty 17 7 0 10 -262144
-1 -1;
#X obj 335 240 bng 15 250 50 0 empty empty empty 17 7 0 10 -262144
-1 -1;
#X obj 395 240 bng 15 250 50 0 empty empty empty 17 7 0 10 -262144
-1 -1;
#X obj 455 240 bng 15 250 50 0 empty empty empty 17 7 0 10 -262144
-1 -1;
#X obj 515 241 bng 15 250 50 0 empty empty empty 17 7 0 10 -262144
-1 -1;
#X obj 126 306 bng 15 250 50 0 empty empty empty 17 7 0 10 -262144
-1 -1;
#X obj 186 306 bng 15 250 50 0 empty empty empty 17 7 0 10 -262144
-1 -1;
#X obj 246 306 bng 15 250 50 0 empty empty empty 17 7 0 10 -262144
-1 -1;
#X obj 306 306 bng 15 250 50 0 empty empty empty 17 7 0 10 -262144
-1 -1;
#X obj 372 300 bng 15 250 50 0 empty empty empty 17 7 0 10 -262144
-1 -1;
#X obj 426 306 bng 15 250 50 0 empty empty empty 17 7 0 10 -262144
-1 -1;
#X obj 486 306 bng 15 250 50 0 empty empty empty 17 7 0 10 -262144
-1 -1;
#X obj 546 306 bng 15 250 50 0 empty empty empty 17 7 0 10 -262144
-1 -1;
#X obj 104 1 inlet, f 6;
#X obj 104 56 sel 0 1 2 3 4 5 6 7 8 9 10 11 12 13 14 15;
#X obj 104 81 spigot 0;
#X msg 193 536 set \$1;
#X msg 193 566 0;
#X msg 253 536 set \$1;
#X msg 253 558 \$1;
#X msg 314 536 set \$1;
#X msg 314 558 \$1;
#X msg 374 536 set \$1;
#X msg 374 558 0;
#X msg 433 536 set \$1;
#X msg 433 558 \$1;
#X msg 493 536 set \$1;
#X msg 493 558 \$1;
#X msg 554 536 set \$1;
#X msg 554 558 \$1;
#X msg 614 536 set \$1;
#X msg 614 558 \$1;
#X msg 226 581 set \$1;
#X msg 226 603 \$1;
#X msg 286 581 set \$1;
#X msg 286 603 \$1;
#X msg 347 581 set \$1;
#X msg 347 603 \$1;
#X msg 407 581 set \$1;
#X msg 407 603 \$1;
#X msg 466 581 set \$1;
#X msg 466 603 \$1;
#X msg 526 581 set \$1;
#X msg 526 603 \$1;
#X msg 587 581 set \$1;
#X msg 587 603 \$1;
#X msg 647 581 set \$1;
#X msg 647 603 \$1;
#X obj 121 103 spigot 0;
#X obj 139 123 spigot 0;
#X obj 156 145 spigot 0;
#X obj 175 81 spigot 0;
#X obj 192 103 spigot 0;
#X obj 210 123 spigot 0;
#X obj 228 145 spigot 0;
#X obj 246 81 spigot 0;
#X obj 263 103 spigot 0;
#X obj 281 123 spigot 0;
#X obj 299 145 spigot 0;
#X obj 317 81 spigot 0;
#X obj 334 103 spigot 0;
#X obj 352 123 spigot 0;
#X obj 370 145 spigot 0;
#X obj 104 34 %;
#X obj 153 1 r sqnt-\$1-nsteps;
#X obj 511 215 nbx 2 14 0 16 0 0 empty empty steps 35 9 0 10 -262144
-1 -1 16 256;
#X obj 533 2 loadbang;
#X msg 533 24 16;
#X obj 949 282 r notepattern-\$1;
#X obj 949 304 unpack f f f f f f f f f f f f f f f f;
#X obj 760 358 s sqnt-\$1-note1;
#X obj 748 414 s sqnt-\$1-note9;
#X obj 880 358 s sqnt-\$1-note3;
#X obj 820 378 s sqnt-\$1-note2;
#X obj 808 434 s sqnt-\$1-note10;
#X obj 941 378 s sqnt-\$1-note4;
#X obj 869 414 s sqnt-\$1-note11;
#X obj 929 434 s sqnt-\$1-note12;
#X obj 1000 358 s sqnt-\$1-note5;
#X obj 1060 378 s sqnt-\$1-note6;
#X obj 988 414 s sqnt-\$1-note13;
#X obj 1048 434 s sqnt-\$1-note14;
#X obj 1109 414 s sqnt-\$1-note15;
#X obj 1121 358 s sqnt-\$1-note7;
#X obj 1181 378 s sqnt-\$1-note8;
#X obj 1169 434 s sqnt-\$1-note16;
#X obj 96 284 nbx 5 14 0 120 0 0 empty empty empty 0 -8 0 10 -262144
-1 -1 100 256;
#X obj 156 284 nbx 5 14 0 120 0 0 empty empty empty 0 -8 0 10 -262144
-1 -1 100 256;
#X obj 216 284 nbx 5 14 0 120 0 0 empty empty empty 0 -8 0 10 -262144
-1 -1 100 256;
#X obj 276 284 nbx 5 14 0 120 0 0 empty empty empty 0 -8 0 10 -262144
-1 -1 100 256;
#X obj 336 284 nbx 5 14 0 120 0 0 empty empty empty 0 -8 0 10 -262144
-1 -1 100 256;
#X obj 396 284 nbx 5 14 0 120 0 0 empty empty empty 0 -8 0 10 -262144
-1 -1 100 256;
#X obj 455 283 nbx 5 14 0 120 0 0 empty empty empty 0 -8 0 10 -262144
-1 -1 100 256;
#X obj 516 284 nbx 5 14 0 120 0 0 empty empty empty 0 -8 0 10 -262144
-1 -1 100 256;
#X obj 126 351 nbx 5 14 0 120 0 0 empty empty empty 0 -8 0 10 -262144
-1 -1 100 256;
#X obj 186 351 nbx 5 14 0 120 0 0 empty empty empty 0 -8 0 10 -262144
-1 -1 100 256;
#X obj 246 351 nbx 5 14 0 120 0 0 empty empty empty 0 -8 0 10 -262144
-1 -1 100 256;
#X obj 306 351 nbx 5 14 0 120 0 0 empty empty empty 0 -8 0 10 -262144
-1 -1 100 256;
#X obj 366 351 nbx 5 14 0 120 0 0 empty empty empty 0 -8 0 10 -262144
-1 -1 100 256;
#X obj 426 351 nbx 5 14 0 120 0 0 empty empty empty 0 -8 0 10 -262144
-1 -1 100 256;
#X obj 486 351 nbx 5 14 0 120 0 0 empty empty empty 0 -8 0 10 -262144
-1 -1 100 256;
#X obj 546 351 nbx 5 14 0 120 0 0 empty empty empty 0 -8 0 10 -262144
-1 -1 100 256;
#X obj 690 148 r sqnt-\$1-vel1;
#X obj 809 150 r sqnt-\$1-vel3;
#X obj 927 150 r sqnt-\$1-vel5;
#X obj 1048 150 r sqnt-\$1-vel7;
#X obj 747 170 r sqnt-\$1-vel2;
#X obj 868 170 r sqnt-\$1-vel4;
#X obj 987 170 r sqnt-\$1-vel6;
#X obj 1108 170 r sqnt-\$1-vel8;
#X obj 684 193 r sqnt-\$1-vel9;
#X obj 805 193 r sqnt-\$1-vel11;
#X obj 924 193 r sqnt-\$1-vel13;
#X obj 1045 193 r sqnt-\$1-vel15;
#X obj 744 213 r sqnt-\$1-vel10;
#X obj 865 213 r sqnt-\$1-vel12;
#X obj 984 213 r sqnt-\$1-vel14;
#X obj 1105 213 r sqnt-\$1-vel16;
#X msg 348 636 set \$1;
#X msg 348 660 100;
#X msg 408 636 set \$1;
#X msg 408 658 100;
#X msg 469 636 set \$1;
#X msg 469 662 100;
#X msg 529 636 set \$1;
#X msg 529 658 100;
#X msg 588 636 set \$1;
#X msg 588 658 100;
#X msg 648 636 set \$1;
#X msg 648 658 100;
#X msg 709 636 set \$1;
#X msg 709 658 100;
#X msg 769 636 set \$1;
#X msg 769 658 100;
#X msg 378 686 set \$1;
#X msg 378 710 100;
#X msg 438 686 set \$1;
#X msg 438 708 100;
#X msg 499 686 set \$1;
#X msg 499 708 100;
#X msg 559 686 set \$1;
#X msg 559 708 100;
#X msg 618 686 set \$1;
#X msg 618 708 100;
#X msg 678 686 set \$1;
#X msg 678 708 100;
#X msg 739 686 set \$1;
#X msg 739 708 100;
#X msg 799 686 set \$1;
#X msg 799 708 100;
#X obj 85 735 s note_out-\$1;
#X obj 295 768 r note_out-\$1;
#X obj 754 754 s vel_out-\$1;
#X obj 1018 499 unpack f f f f f f f f f f f f f f f f;
#X obj 829 553 s sqnt-\$1-vel1;
#X obj 870 659 s sqnt-\$1-vel9;
#X obj 949 553 s sqnt-\$1-vel3;
#X obj 889 573 s sqnt-\$1-vel2;
#X obj 930 679 s sqnt-\$1-vel10;
#X obj 1010 573 s sqnt-\$1-vel4;
#X obj 991 659 s sqnt-\$1-vel11;
#X obj 1051 679 s sqnt-\$1-vel12;
#X obj 849 598 s sqnt-\$1-vel5;
#X obj 909 618 s sqnt-\$1-vel6;
#X obj 907 707 s sqnt-\$1-vel13;
#X obj 967 727 s sqnt-\$1-vel14;
#X obj 1028 707 s sqnt-\$1-vel15;
#X obj 959 597 s sqnt-\$1-vel7;
#X obj 1019 617 s sqnt-\$1-vel8;
#X obj 1088 727 s sqnt-\$1-vel16;
#X obj 1018 477 r velpattern-\$1;
#X msg 1308 24 100 100 100 100 100 100 100 100 100 100 100 100 100
100 100 100;
#X connect 0 0 1 1;
#X connect 1 0 2 0;
#X connect 1 1 2 1;
#X connect 1 2 2 2;
#X connect 2 0 3 0;
#X connect 4 0 55 0;
#X connect 4 0 54 1;
#X connect 5 0 4 0;
#X connect 6 0 57 0;
#X connect 6 0 87 1;
#X connect 7 0 6 0;
#X connect 8 0 59 0;
#X connect 8 0 88 1;
#X connect 9 0 8 0;
#X connect 10 0 61 0;
#X connect 10 0 89 1;
#X connect 11 0 10 0;
#X connect 12 0 63 0;
#X connect 12 0 90 1;
#X connect 13 0 12 0;
#X connect 14 0 65 0;
#X connect 14 0 91 1;
#X connect 15 0 14 0;
#X connect 16 0 67 0;
#X connect 16 0 92 1;
#X connect 17 0 16 0;
#X connect 18 0 69 0;
#X connect 18 0 93 1;
#X connect 19 0 18 0;
#X connect 20 0 71 0;
#X connect 20 0 94 1;
#X connect 21 0 20 0;
#X connect 22 0 73 0;
#X connect 22 0 95 1;
#X connect 23 0 22 0;
#X connect 24 0 75 0;
#X connect 24 0 96 1;
#X connect 25 0 24 0;
#X connect 26 0 77 0;
#X connect 26 0 97 1;
#X connect 27 0 26 0;
#X connect 28 0 79 0;
#X connect 28 0 98 1;
#X connect 29 0 28 0;
#X connect 30 0 81 0;
#X connect 30 0 99 1;
#X connect 31 0 30 0;
#X connect 32 0 83 0;
#X connect 32 0 100 1;
#X connect 33 0 32 0;
#X connect 34 0 85 0;
#X connect 34 0 101 1;
#X connect 35 0 34 0;
#X connect 36 0 56 0;
#X connect 36 0 158 0;
#X connect 37 0 58 0;
#X connect 37 0 160 0;
#X connect 38 0 60 0;
#X connect 38 0 162 0;
#X connect 39 0 62 0;
#X connect 39 0 164 0;
#X connect 40 0 64 0;
#X connect 40 0 166 0;
#X connect 41 0 66 0;
#X connect 41 0 168 0;
#X connect 42 0 68 0;
#X connect 42 0 170 0;
#X connect 43 0 70 0;
#X connect 43 0 172 0;
#X connect 44 0 72 0;
#X connect 44 0 174 0;
#X connect 45 0 74 0;
#X connect 45 0 176 0;
#X connect 46 0 76 0;
#X connect 46 0 178 0;
#X connect 47 0 78 0;
#X connect 47 0 180 0;
#X connect 48 0 80 0;
#X connect 48 0 182 0;
#X connect 49 0 82 0;
#X connect 49 0 184 0;
#X connect 50 0 84 0;
#X connect 50 0 186 0;
#X connect 51 0 86 0;
#X connect 51 0 188 0;
#X connect 52 0 102 0;
#X connect 53 0 54 0;
#X connect 53 1 87 0;
#X connect 53 2 88 0;
#X connect 53 3 89 0;
#X connect 53 4 90 0;
#X connect 53 5 91 0;
#X connect 53 6 92 0;
#X connect 53 7 93 0;
#X connect 53 8 94 0;
#X connect 53 9 95 0;
#X connect 53 10 96 0;
#X connect 53 11 97 0;
#X connect 53 12 98 0;
#X connect 53 13 99 0;
#X connect 53 14 100 0;
#X connect 53 15 101 0;
#X connect 54 0 36 0;
#X connect 55 0 56 0;
#X connect 56 0 189 0;
#X connect 57 0 58 0;
#X connect 58 0 189 0;
#X connect 59 0 60 0;
#X connect 60 0 189 0;
#X connect 61 0 62 0;
#X connect 62 0 189 0;
#X connect 63 0 64 0;
#X connect 64 0 189 0;
#X connect 65 0 66 0;
#X connect 66 0 189 0;
#X connect 67 0 68 0;
#X connect 68 0 189 0;
#X connect 69 0 70 0;
#X connect 70 0 189 0;
#X connect 71 0 72 0;
#X connect 72 0 189 0;
#X connect 73 0 74 0;
#X connect 74 0 189 0;
#X connect 75 0 76 0;
#X connect 76 0 189 0;
#X connect 77 0 78 0;
#X connect 78 0 189 0;
#X connect 79 0 80 0;
#X connect 80 0 189 0;
#X connect 81 0 82 0;
#X connect 82 0 189 0;
#X connect 83 0 84 0;
#X connect 84 0 189 0;
#X connect 85 0 86 0;
#X connect 86 0 189 0;
#X connect 87 0 37 0;
#X connect 88 0 38 0;
#X connect 89 0 39 0;
#X connect 90 0 40 0;
#X connect 91 0 41 0;
#X connect 92 0 42 0;
#X connect 93 0 43 0;
#X connect 94 0 44 0;
#X connect 95 0 45 0;
#X connect 96 0 46 0;
#X connect 97 0 47 0;
#X connect 98 0 48 0;
#X connect 99 0 49 0;
#X connect 100 0 50 0;
#X connect 101 0 51 0;
#X connect 102 0 53 0;
#X connect 103 0 104 0;
#X connect 104 0 102 1;
#X connect 105 0 106 0;
#X connect 105 0 210 0;
#X connect 106 0 104 0;
#X connect 107 0 108 0;
#X connect 108 0 109 0;
#X connect 108 1 112 0;
#X connect 108 2 111 0;
#X connect 108 3 114 0;
#X connect 108 4 117 0;
#X connect 108 5 118 0;
#X connect 108 6 122 0;
#X connect 108 7 123 0;
#X connect 108 8 110 0;
#X connect 108 9 113 0;
#X connect 108 10 115 0;
#X connect 108 11 116 0;
#X connect 108 12 119 0;
#X connect 108 13 120 0;
#X connect 108 14 121 0;
#X connect 108 15 124 0;
#X connect 125 0 157 0;
#X connect 126 0 159 0;
#X connect 127 0 161 0;
#X connect 128 0 163 0;
#X connect 129 0 165 0;
#X connect 130 0 167 0;
#X connect 131 0 169 0;
#X connect 132 0 171 0;
#X connect 133 0 173 0;
#X connect 134 0 175 0;
#X connect 135 0 177 0;
#X connect 136 0 179 0;
#X connect 137 0 181 0;
#X connect 138 0 183 0;
#X connect 139 0 185 0;
#X connect 140 0 187 0;
#X connect 141 0 125 0;
#X connect 142 0 127 0;
#X connect 143 0 129 0;
#X connect 144 0 131 0;
#X connect 145 0 126 0;
#X connect 146 0 128 0;
#X connect 147 0 130 0;
#X connect 148 0 132 0;
#X connect 149 0 133 0;
#X connect 150 0 135 0;
#X connect 151 0 137 0;
#X connect 152 0 139 0;
#X connect 153 0 134 0;
#X connect 154 0 136 0;
#X connect 155 0 138 0;
#X connect 156 0 140 0;
#X connect 157 0 158 0;
#X connect 158 0 191 0;
#X connect 159 0 160 0;
#X connect 160 0 191 0;
#X connect 161 0 162 0;
#X connect 162 0 191 0;
#X connect 163 0 164 0;
#X connect 164 0 191 0;
#X connect 165 0 166 0;
#X connect 166 0 191 0;
#X connect 167 0 168 0;
#X connect 168 0 191 0;
#X connect 169 0 170 0;
#X connect 170 0 191 0;
#X connect 171 0 172 0;
#X connect 172 0 191 0;
#X connect 173 0 174 0;
#X connect 174 0 191 0;
#X connect 175 0 176 0;
#X connect 176 0 191 0;
#X connect 177 0 178 0;
#X connect 178 0 191 0;
#X connect 179 0 180 0;
#X connect 180 0 191 0;
#X connect 181 0 182 0;
#X connect 182 0 191 0;
#X connect 183 0 184 0;
#X connect 184 0 191 0;
#X connect 185 0 186 0;
#X connect 186 0 191 0;
#X connect 187 0 188 0;
#X connect 188 0 191 0;
#X connect 190 0 1 0;
#X connect 192 0 193 0;
#X connect 192 1 196 0;
#X connect 192 2 195 0;
#X connect 192 3 198 0;
#X connect 192 4 201 0;
#X connect 192 5 202 0;
#X connect 192 6 206 0;
#X connect 192 7 207 0;
#X connect 192 8 194 0;
#X connect 192 9 197 0;
#X connect 192 10 199 0;
#X connect 192 11 200 0;
#X connect 192 12 203 0;
#X connect 192 13 204 0;
#X connect 192 14 205 0;
#X connect 192 15 208 0;
#X connect 209 0 192 0;
#X connect 210 0 192 0;
#X coords 0 -1 1 1 530 180 1 80 200;
