#N canvas 265 108 450 514 10;
#X obj 88 257 *~;
#X obj 24 257 *~;
#X obj 127 172 f;
#X obj 127 194 - 1;
#X obj 127 217 * -1;
#X obj 23 14 inlet~;
#X obj 24 279 outlet~;
#X obj 88 279 outlet~;
#X obj 109 135 hsl 50 15 0 1 0 0 empty empty empty -2 -8 0 10 -262144
-1 -1 2450 1;
#X obj 106 46 loadbang;
#X msg 106 67 0.5;
#X connect 0 0 7 0;
#X connect 1 0 6 0;
#X connect 2 0 3 0;
#X connect 3 0 4 0;
#X connect 4 0 1 1;
#X connect 5 0 1 0;
#X connect 5 0 0 0;
#X connect 8 0 0 1;
#X connect 8 0 2 0;
#X connect 9 0 10 0;
#X connect 10 0 8 0;
#X coords 0 -1 1 1 70 60 1 100 100;
