#N canvas 569 116 1089 737 10;
#X obj 102 102 cnv 15 120 120 empty empty osc-\$1 10 12 0 14 -228856
-1 0;
#X obj 111 155 vradio 15 1 0 4 empty empty empty 0 -8 0 10 -262144
-1 -1 1;
#X obj 197 163 vsl 15 50 0 1 0 0 empty empty vol 0 -9 0 10 -262144
-1 -1 1470 1;
#X obj 111 132 tgl 15 0 empty empty empty 17 7 0 10 -262144 -1 -1 1
1;
#X text 129 155 sine;
#X text 129 171 saw;
#X text 129 185 square;
#X text 129 201 triangle;
#X obj 426 54 unpack 0 0 0;
#X obj 426 105 sel 1 2 3 4 5 6 7 8;
#N canvas 2 78 450 337 voice 0;
#N canvas 2 78 450 300 sine 0;
#X obj 48 37 osc~;
#X obj 132 15 inlet;
#X obj 132 37 switch~;
#X obj 48 59 outlet~;
#X obj 48 15 inlet~;
#X connect 0 0 3 0;
#X connect 1 0 2 0;
#X connect 4 0 0 0;
#X restore 56 230 pd sine;
#X obj 218 38 sel 0 1 2 3;
#X msg 218 100 1;
#X msg 234 119 0;
#X msg 268 100 1;
#X msg 284 119 0;
#X msg 318 100 1;
#X msg 334 119 0;
#X msg 368 100 1;
#X msg 384 119 0;
#X obj 218 14 r select-wave-\$1;
#N canvas 1 78 450 300 square 0;
#X obj 21 11 loadbang;
#X obj 21 33 t b b;
#X obj 21 177 phasor~;
#X obj 21 199 *~ 2051;
#X obj 21 243 outlet~;
#X obj 21 221 tabread4~ sqr;
#X obj 157 102 table sqr;
#X msg 157 50 \; sqr sinesum 2051 1 0 0.333333 0 0.2 0 0.142857 0 0.111111
0 0.090909 0 0.076923;
#X msg 21 97 \; sqr normalize1;
#X obj 156 155 inlet;
#X obj 156 177 switch~;
#X obj 21 155 inlet~;
#X connect 0 0 1 0;
#X connect 1 0 8 0;
#X connect 1 1 7 0;
#X connect 2 0 3 0;
#X connect 3 0 5 0;
#X connect 5 0 4 0;
#X connect 9 0 10 0;
#X connect 11 0 2 0;
#X restore 163 230 pd square;
#N canvas 1 78 450 300 triangle 0;
#X obj 14 16 loadbang;
#X obj 14 38 t b b;
#X obj 19 207 phasor~;
#X obj 19 273 outlet~;
#X obj 131 186 inlet;
#X obj 131 208 tgl 15 0 empty empty empty 17 7 0 10 -262144 -1 -1 0
1;
#X obj 131 230 switch~;
#X obj 18 229 *~ 2051;
#X msg 46 69 \; tri sinesum 2051 1 0 -0.111111 0 0.4 0 -0.204082 0
0.0123457 0 -0.00826446 0;
#X msg 14 125 \; tri normalize 1;
#X obj 267 138 table tri;
#X obj 19 185 inlet~;
#X obj 19 251 tabread4~ tri;
#X connect 0 0 1 0;
#X connect 1 0 9 0;
#X connect 1 1 8 0;
#X connect 2 0 7 0;
#X connect 4 0 5 0;
#X connect 5 0 6 0;
#X connect 7 0 12 0;
#X connect 11 0 2 0;
#X connect 12 0 3 0;
#X restore 233 230 pd triangle;
#X obj 55 292 outlet~;
#X obj 56 18 inlet~;
#N canvas 1 78 450 300 saw 0;
#X obj 132 15 inlet;
#X obj 132 37 switch~;
#X obj 48 37 phasor~;
#X obj 48 59 outlet~;
#X obj 48 15 inlet~;
#X connect 0 0 1 0;
#X connect 2 0 3 0;
#X connect 4 0 2 0;
#X restore 113 230 pd saw;
#X connect 0 0 13 0;
#X connect 1 0 2 0;
#X connect 1 0 3 0;
#X connect 1 1 4 0;
#X connect 1 1 5 0;
#X connect 1 2 6 0;
#X connect 1 2 7 0;
#X connect 1 3 8 0;
#X connect 1 3 9 0;
#X connect 2 0 0 1;
#X connect 3 0 11 1;
#X connect 3 0 12 1;
#X connect 3 0 15 1;
#X connect 4 0 15 1;
#X connect 5 0 0 1;
#X connect 5 0 11 1;
#X connect 5 0 12 1;
#X connect 6 0 11 1;
#X connect 7 0 12 1;
#X connect 7 0 0 1;
#X connect 7 0 15 1;
#X connect 8 0 12 1;
#X connect 9 0 11 1;
#X connect 9 0 0 1;
#X connect 9 0 15 1;
#X connect 10 0 1 0;
#X connect 11 0 13 0;
#X connect 12 0 13 0;
#X connect 14 0 0 0;
#X connect 14 0 15 0;
#X connect 14 0 11 0;
#X connect 14 0 12 0;
#X connect 15 0 13 0;
#X restore 426 387 pd voice;
#X obj 426 409 *~;
#X obj 428 684 outlet~;
#X text 366 409 envelope;
#X text 381 631 volume;
#X obj 426 431 *~ 0.4;
#X obj 427 631 *~;
#X obj 488 684 outlet~;
#X obj 496 409 *~;
#X obj 496 431 *~ 0.4;
#X obj 566 409 *~;
#X obj 566 431 *~ 0.4;
#X obj 636 409 *~;
#X obj 636 431 *~ 0.4;
#X obj 706 409 *~;
#X obj 706 431 *~ 0.4;
#X obj 776 409 *~;
#X obj 776 431 *~ 0.4;
#X obj 846 409 *~;
#X obj 846 431 *~ 0.4;
#X obj 916 409 *~;
#X obj 916 431 *~ 0.4;
#X obj 485 206 bng 15 250 50 0 empty empty empty 17 7 0 10 -262144
-1 -1;
#X msg 434 227 set \$1;
#X msg 434 249 183.242;
#X obj 567 206 bng 15 250 50 0 empty empty empty 17 7 0 10 -262144
-1 -1;
#X msg 516 227 set \$1;
#X msg 516 249 183.242;
#X obj 646 206 bng 15 250 50 0 empty empty empty 17 7 0 10 -262144
-1 -1;
#X msg 595 227 set \$1;
#X msg 595 249 183.242;
#X obj 728 206 bng 15 250 50 0 empty empty empty 17 7 0 10 -262144
-1 -1;
#X msg 677 227 set \$1;
#X msg 677 249 183.242;
#X obj 812 206 bng 15 250 50 0 empty empty empty 17 7 0 10 -262144
-1 -1;
#X msg 761 227 set \$1;
#X msg 761 249 183.242;
#X obj 894 206 bng 15 250 50 0 empty empty empty 17 7 0 10 -262144
-1 -1;
#X msg 843 227 set \$1;
#X msg 843 249 183.242;
#X obj 973 206 bng 15 250 50 0 empty empty empty 17 7 0 10 -262144
-1 -1;
#X msg 922 227 set \$1;
#X msg 925 249 183.242;
#X obj 1055 206 bng 15 250 50 0 empty empty empty 17 7 0 10 -262144
-1 -1;
#X msg 1004 227 set \$1;
#X msg 1004 249 183.242;
#X msg 464 272 set \$1;
#X msg 464 294 100;
#X msg 546 272 set \$1;
#X msg 546 294 100;
#X msg 625 272 set \$1;
#X msg 625 294 100;
#X msg 707 272 set \$1;
#X msg 707 295 100;
#X msg 791 272 set \$1;
#X msg 791 294 100;
#X msg 873 272 set \$1;
#X msg 873 294 100;
#X msg 952 272 set \$1;
#X msg 955 294 100;
#X msg 1034 272 set \$1;
#X msg 1034 294 100;
#N canvas 2 78 450 300 env 0;
#X obj 28 245 vline~;
#X obj 28 181 pack f f f f;
#X msg 171 209 0 \$2;
#X obj 171 177 pack f f;
#X msg 28 209 \$1 \$2 \, \$4 \$3 \$2;
#X obj 171 135 sel 0;
#X obj 28 267 outlet~;
#X obj 28 23 inlet;
#X obj 28 45 / 127;
#X obj 70 23 r poly-osc-\$1-a;
#X obj 82 44 r poly-osc-\$1-d;
#X obj 100 65 r poly-osc-\$1-s;
#X obj 231 79 r poly-osc-\$1-r;
#X connect 0 0 6 0;
#X connect 1 0 4 0;
#X connect 2 0 0 0;
#X connect 3 0 2 0;
#X connect 4 0 0 0;
#X connect 5 0 3 0;
#X connect 7 0 5 0;
#X connect 7 0 8 0;
#X connect 8 0 1 0;
#X connect 9 0 1 1;
#X connect 10 0 1 2;
#X connect 11 0 1 3;
#X connect 12 0 3 1;
#X restore 464 320 pd env;
#N canvas 1 78 450 300 env 0;
#X obj 28 245 vline~;
#X obj 28 181 pack f f f f;
#X msg 171 209 0 \$2;
#X obj 171 177 pack f f;
#X msg 28 209 \$1 \$2 \, \$4 \$3 \$2;
#X obj 171 135 sel 0;
#X obj 28 267 outlet~;
#X obj 28 23 inlet;
#X obj 28 45 / 127;
#X obj 70 23 r poly-osc-\$1-a;
#X obj 82 44 r poly-osc-\$1-d;
#X obj 100 65 r poly-osc-\$1-s;
#X obj 231 79 r poly-osc-\$1-r;
#X connect 0 0 6 0;
#X connect 1 0 4 0;
#X connect 2 0 0 0;
#X connect 3 0 2 0;
#X connect 4 0 0 0;
#X connect 5 0 3 0;
#X connect 7 0 5 0;
#X connect 7 0 8 0;
#X connect 8 0 1 0;
#X connect 9 0 1 1;
#X connect 10 0 1 2;
#X connect 11 0 1 3;
#X connect 12 0 3 1;
#X restore 546 320 pd env;
#N canvas 1 78 450 300 env 0;
#X obj 28 245 vline~;
#X obj 28 181 pack f f f f;
#X msg 171 209 0 \$2;
#X obj 171 177 pack f f;
#X msg 28 209 \$1 \$2 \, \$4 \$3 \$2;
#X obj 171 135 sel 0;
#X obj 28 267 outlet~;
#X obj 28 23 inlet;
#X obj 28 45 / 127;
#X obj 70 23 r poly-osc-\$1-a;
#X obj 82 44 r poly-osc-\$1-d;
#X obj 100 65 r poly-osc-\$1-s;
#X obj 231 79 r poly-osc-\$1-r;
#X connect 0 0 6 0;
#X connect 1 0 4 0;
#X connect 2 0 0 0;
#X connect 3 0 2 0;
#X connect 4 0 0 0;
#X connect 5 0 3 0;
#X connect 7 0 5 0;
#X connect 7 0 8 0;
#X connect 8 0 1 0;
#X connect 9 0 1 1;
#X connect 10 0 1 2;
#X connect 11 0 1 3;
#X connect 12 0 3 1;
#X restore 625 320 pd env;
#N canvas 1 78 450 300 env 0;
#X obj 28 245 vline~;
#X obj 28 181 pack f f f f;
#X msg 171 209 0 \$2;
#X obj 171 177 pack f f;
#X msg 28 209 \$1 \$2 \, \$4 \$3 \$2;
#X obj 171 135 sel 0;
#X obj 28 267 outlet~;
#X obj 28 23 inlet;
#X obj 28 45 / 127;
#X obj 70 23 r poly-osc-\$1-a;
#X obj 82 44 r poly-osc-\$1-d;
#X obj 100 65 r poly-osc-\$1-s;
#X obj 231 79 r poly-osc-\$1-r;
#X connect 0 0 6 0;
#X connect 1 0 4 0;
#X connect 2 0 0 0;
#X connect 3 0 2 0;
#X connect 4 0 0 0;
#X connect 5 0 3 0;
#X connect 7 0 5 0;
#X connect 7 0 8 0;
#X connect 8 0 1 0;
#X connect 9 0 1 1;
#X connect 10 0 1 2;
#X connect 11 0 1 3;
#X connect 12 0 3 1;
#X restore 707 320 pd env;
#N canvas 1 78 450 300 env 0;
#X obj 28 245 vline~;
#X obj 28 181 pack f f f f;
#X msg 171 209 0 \$2;
#X obj 171 177 pack f f;
#X msg 28 209 \$1 \$2 \, \$4 \$3 \$2;
#X obj 171 135 sel 0;
#X obj 28 267 outlet~;
#X obj 28 23 inlet;
#X obj 28 45 / 127;
#X obj 70 23 r poly-osc-\$1-a;
#X obj 82 44 r poly-osc-\$1-d;
#X obj 100 65 r poly-osc-\$1-s;
#X obj 231 79 r poly-osc-\$1-r;
#X connect 0 0 6 0;
#X connect 1 0 4 0;
#X connect 2 0 0 0;
#X connect 3 0 2 0;
#X connect 4 0 0 0;
#X connect 5 0 3 0;
#X connect 7 0 5 0;
#X connect 7 0 8 0;
#X connect 8 0 1 0;
#X connect 9 0 1 1;
#X connect 10 0 1 2;
#X connect 11 0 1 3;
#X connect 12 0 3 1;
#X restore 791 320 pd env;
#N canvas 1 78 450 300 env 0;
#X obj 28 245 vline~;
#X obj 28 181 pack f f f f;
#X msg 171 209 0 \$2;
#X obj 171 177 pack f f;
#X msg 28 209 \$1 \$2 \, \$4 \$3 \$2;
#X obj 171 135 sel 0;
#X obj 28 267 outlet~;
#X obj 28 23 inlet;
#X obj 28 45 / 127;
#X obj 70 23 r poly-osc-\$1-a;
#X obj 82 44 r poly-osc-\$1-d;
#X obj 100 65 r poly-osc-\$1-s;
#X obj 231 79 r poly-osc-\$1-r;
#X connect 0 0 6 0;
#X connect 1 0 4 0;
#X connect 2 0 0 0;
#X connect 3 0 2 0;
#X connect 4 0 0 0;
#X connect 5 0 3 0;
#X connect 7 0 5 0;
#X connect 7 0 8 0;
#X connect 8 0 1 0;
#X connect 9 0 1 1;
#X connect 10 0 1 2;
#X connect 11 0 1 3;
#X connect 12 0 3 1;
#X restore 872 320 pd env;
#N canvas 1 78 450 300 env 0;
#X obj 28 245 vline~;
#X obj 28 181 pack f f f f;
#X msg 171 209 0 \$2;
#X obj 171 177 pack f f;
#X msg 28 209 \$1 \$2 \, \$4 \$3 \$2;
#X obj 171 135 sel 0;
#X obj 28 267 outlet~;
#X obj 28 23 inlet;
#X obj 28 45 / 127;
#X obj 70 23 r poly-osc-\$1-a;
#X obj 82 44 r poly-osc-\$1-d;
#X obj 100 65 r poly-osc-\$1-s;
#X obj 231 79 r poly-osc-\$1-r;
#X connect 0 0 6 0;
#X connect 1 0 4 0;
#X connect 2 0 0 0;
#X connect 3 0 2 0;
#X connect 4 0 0 0;
#X connect 5 0 3 0;
#X connect 7 0 5 0;
#X connect 7 0 8 0;
#X connect 8 0 1 0;
#X connect 9 0 1 1;
#X connect 10 0 1 2;
#X connect 11 0 1 3;
#X connect 12 0 3 1;
#X restore 954 320 pd env;
#N canvas 1 78 450 300 env 0;
#X obj 28 245 vline~;
#X obj 28 181 pack f f f f;
#X msg 171 209 0 \$2;
#X obj 171 177 pack f f;
#X msg 28 209 \$1 \$2 \, \$4 \$3 \$2;
#X obj 171 135 sel 0;
#X obj 28 267 outlet~;
#X obj 28 23 inlet;
#X obj 28 45 / 127;
#X obj 70 23 r poly-osc-\$1-a;
#X obj 82 44 r poly-osc-\$1-d;
#X obj 100 65 r poly-osc-\$1-s;
#X obj 231 79 r poly-osc-\$1-r;
#X connect 0 0 6 0;
#X connect 1 0 4 0;
#X connect 2 0 0 0;
#X connect 3 0 2 0;
#X connect 4 0 0 0;
#X connect 5 0 3 0;
#X connect 7 0 5 0;
#X connect 7 0 8 0;
#X connect 8 0 1 0;
#X connect 9 0 1 1;
#X connect 10 0 1 2;
#X connect 11 0 1 3;
#X connect 12 0 3 1;
#X restore 1034 320 pd env;
#X obj 426 9 inlet;
#X obj 226 102 cnv 15 100 120 empty empty envelope 10 12 0 14 -228856
-1 0;
#X obj 238 163 vsl 15 50 0 2000 0 0 empty empty a 0 -9 0 10 -262144
-1 -1 1300 1;
#X obj 257 163 vsl 15 50 0 8000 0 0 empty empty d 0 -9 0 10 -262144
-1 -1 4200 1;
#X obj 277 163 vsl 15 50 0 100 0 0 empty empty s 0 -9 0 10 -262144
-1 -1 0 1;
#X obj 297 163 vsl 15 50 0 1000 0 0 empty empty r 0 -9 0 10 -262144
-1 -1 3900 1;
#X obj 238 246 s poly-osc-\$1-a;
#X obj 257 266 s poly-osc-\$1-d;
#X obj 277 287 s poly-osc-\$1-s;
#X obj 297 308 s poly-osc-\$1-r;
#X obj 124 283 s select-wave-\$1;
#X obj 47 16 loadbang;
#X msg 47 68 0;
#X obj 173 253 switch~;
#X obj 427 350 +~;
#X obj 457 350 +~;
#X obj 488 350 +~;
#X obj 519 350 +~;
#X obj 547 350 +~;
#X obj 577 350 +~;
#X obj 608 350 +~;
#X obj 639 350 +~;
#X obj 942 12 inlet~;
#N canvas 1 78 450 337 voice 0;
#N canvas 1 78 450 300 sine 0;
#X obj 48 37 osc~;
#X obj 132 15 inlet;
#X obj 132 37 switch~;
#X obj 48 59 outlet~;
#X obj 48 15 inlet~;
#X connect 0 0 3 0;
#X connect 1 0 2 0;
#X connect 4 0 0 0;
#X restore 56 230 pd sine;
#X obj 218 38 sel 0 1 2 3;
#X msg 218 100 1;
#X msg 234 119 0;
#X msg 268 100 1;
#X msg 284 119 0;
#X msg 318 100 1;
#X msg 334 119 0;
#X msg 368 100 1;
#X msg 384 119 0;
#X obj 218 14 r select-wave-\$1;
#N canvas 1 78 450 300 square 0;
#X obj 21 11 loadbang;
#X obj 21 33 t b b;
#X obj 21 177 phasor~;
#X obj 21 199 *~ 2051;
#X obj 21 243 outlet~;
#X obj 21 221 tabread4~ sqr;
#X obj 157 102 table sqr;
#X msg 157 50 \; sqr sinesum 2051 1 0 0.333333 0 0.2 0 0.142857 0 0.111111
0 0.090909 0 0.076923;
#X msg 21 97 \; sqr normalize1;
#X obj 156 155 inlet;
#X obj 156 177 switch~;
#X obj 21 155 inlet~;
#X connect 0 0 1 0;
#X connect 1 0 8 0;
#X connect 1 1 7 0;
#X connect 2 0 3 0;
#X connect 3 0 5 0;
#X connect 5 0 4 0;
#X connect 9 0 10 0;
#X connect 11 0 2 0;
#X restore 163 230 pd square;
#N canvas 1 78 450 300 triangle 0;
#X obj 14 16 loadbang;
#X obj 14 38 t b b;
#X obj 19 207 phasor~;
#X obj 19 273 outlet~;
#X obj 131 186 inlet;
#X obj 131 208 tgl 15 0 empty empty empty 17 7 0 10 -262144 -1 -1 0
1;
#X obj 131 230 switch~;
#X obj 18 229 *~ 2051;
#X msg 46 69 \; tri sinesum 2051 1 0 -0.111111 0 0.4 0 -0.204082 0
0.0123457 0 -0.00826446 0;
#X msg 14 125 \; tri normalize 1;
#X obj 267 138 table tri;
#X obj 19 185 inlet~;
#X obj 19 251 tabread4~ tri;
#X connect 0 0 1 0;
#X connect 1 0 9 0;
#X connect 1 1 8 0;
#X connect 2 0 7 0;
#X connect 4 0 5 0;
#X connect 5 0 6 0;
#X connect 7 0 12 0;
#X connect 11 0 2 0;
#X connect 12 0 3 0;
#X restore 233 230 pd triangle;
#X obj 55 292 outlet~;
#X obj 56 18 inlet~;
#N canvas 1 78 450 300 saw 0;
#X obj 132 15 inlet;
#X obj 132 37 switch~;
#X obj 48 37 phasor~;
#X obj 48 59 outlet~;
#X obj 48 15 inlet~;
#X connect 0 0 1 0;
#X connect 2 0 3 0;
#X connect 4 0 2 0;
#X restore 113 230 pd saw;
#X connect 0 0 13 0;
#X connect 1 0 2 0;
#X connect 1 0 3 0;
#X connect 1 1 4 0;
#X connect 1 1 5 0;
#X connect 1 2 6 0;
#X connect 1 2 7 0;
#X connect 1 3 8 0;
#X connect 1 3 9 0;
#X connect 2 0 0 1;
#X connect 3 0 11 1;
#X connect 3 0 12 1;
#X connect 3 0 15 1;
#X connect 4 0 15 1;
#X connect 5 0 0 1;
#X connect 5 0 11 1;
#X connect 5 0 12 1;
#X connect 6 0 11 1;
#X connect 7 0 12 1;
#X connect 7 0 0 1;
#X connect 7 0 15 1;
#X connect 8 0 12 1;
#X connect 9 0 11 1;
#X connect 9 0 0 1;
#X connect 9 0 15 1;
#X connect 10 0 1 0;
#X connect 11 0 13 0;
#X connect 12 0 13 0;
#X connect 14 0 0 0;
#X connect 14 0 15 0;
#X connect 14 0 11 0;
#X connect 14 0 12 0;
#X connect 15 0 13 0;
#X restore 496 387 pd voice;
#N canvas 1 78 450 337 voice 0;
#N canvas 1 78 450 300 sine 0;
#X obj 48 37 osc~;
#X obj 132 15 inlet;
#X obj 132 37 switch~;
#X obj 48 59 outlet~;
#X obj 48 15 inlet~;
#X connect 0 0 3 0;
#X connect 1 0 2 0;
#X connect 4 0 0 0;
#X restore 56 230 pd sine;
#X obj 218 38 sel 0 1 2 3;
#X msg 218 100 1;
#X msg 234 119 0;
#X msg 268 100 1;
#X msg 284 119 0;
#X msg 318 100 1;
#X msg 334 119 0;
#X msg 368 100 1;
#X msg 384 119 0;
#X obj 218 14 r select-wave-\$1;
#N canvas 1 78 450 300 square 0;
#X obj 21 11 loadbang;
#X obj 21 33 t b b;
#X obj 21 177 phasor~;
#X obj 21 199 *~ 2051;
#X obj 21 243 outlet~;
#X obj 21 221 tabread4~ sqr;
#X obj 157 102 table sqr;
#X msg 157 50 \; sqr sinesum 2051 1 0 0.333333 0 0.2 0 0.142857 0 0.111111
0 0.090909 0 0.076923;
#X msg 21 97 \; sqr normalize1;
#X obj 156 155 inlet;
#X obj 156 177 switch~;
#X obj 21 155 inlet~;
#X connect 0 0 1 0;
#X connect 1 0 8 0;
#X connect 1 1 7 0;
#X connect 2 0 3 0;
#X connect 3 0 5 0;
#X connect 5 0 4 0;
#X connect 9 0 10 0;
#X connect 11 0 2 0;
#X restore 163 230 pd square;
#N canvas 1 78 450 300 triangle 0;
#X obj 14 16 loadbang;
#X obj 14 38 t b b;
#X obj 19 207 phasor~;
#X obj 19 273 outlet~;
#X obj 131 186 inlet;
#X obj 131 208 tgl 15 0 empty empty empty 17 7 0 10 -262144 -1 -1 0
1;
#X obj 131 230 switch~;
#X obj 18 229 *~ 2051;
#X msg 46 69 \; tri sinesum 2051 1 0 -0.111111 0 0.4 0 -0.204082 0
0.0123457 0 -0.00826446 0;
#X msg 14 125 \; tri normalize 1;
#X obj 267 138 table tri;
#X obj 19 185 inlet~;
#X obj 19 251 tabread4~ tri;
#X connect 0 0 1 0;
#X connect 1 0 9 0;
#X connect 1 1 8 0;
#X connect 2 0 7 0;
#X connect 4 0 5 0;
#X connect 5 0 6 0;
#X connect 7 0 12 0;
#X connect 11 0 2 0;
#X connect 12 0 3 0;
#X restore 233 230 pd triangle;
#X obj 55 292 outlet~;
#X obj 56 18 inlet~;
#N canvas 1 78 450 300 saw 0;
#X obj 132 15 inlet;
#X obj 132 37 switch~;
#X obj 48 37 phasor~;
#X obj 48 59 outlet~;
#X obj 48 15 inlet~;
#X connect 0 0 1 0;
#X connect 2 0 3 0;
#X connect 4 0 2 0;
#X restore 113 230 pd saw;
#X connect 0 0 13 0;
#X connect 1 0 2 0;
#X connect 1 0 3 0;
#X connect 1 1 4 0;
#X connect 1 1 5 0;
#X connect 1 2 6 0;
#X connect 1 2 7 0;
#X connect 1 3 8 0;
#X connect 1 3 9 0;
#X connect 2 0 0 1;
#X connect 3 0 11 1;
#X connect 3 0 12 1;
#X connect 3 0 15 1;
#X connect 4 0 15 1;
#X connect 5 0 0 1;
#X connect 5 0 11 1;
#X connect 5 0 12 1;
#X connect 6 0 11 1;
#X connect 7 0 12 1;
#X connect 7 0 0 1;
#X connect 7 0 15 1;
#X connect 8 0 12 1;
#X connect 9 0 11 1;
#X connect 9 0 0 1;
#X connect 9 0 15 1;
#X connect 10 0 1 0;
#X connect 11 0 13 0;
#X connect 12 0 13 0;
#X connect 14 0 0 0;
#X connect 14 0 15 0;
#X connect 14 0 11 0;
#X connect 14 0 12 0;
#X connect 15 0 13 0;
#X restore 566 387 pd voice;
#N canvas 1 78 450 337 voice 0;
#N canvas 1 78 450 300 sine 0;
#X obj 48 37 osc~;
#X obj 132 15 inlet;
#X obj 132 37 switch~;
#X obj 48 59 outlet~;
#X obj 48 15 inlet~;
#X connect 0 0 3 0;
#X connect 1 0 2 0;
#X connect 4 0 0 0;
#X restore 56 230 pd sine;
#X obj 218 38 sel 0 1 2 3;
#X msg 218 100 1;
#X msg 234 119 0;
#X msg 268 100 1;
#X msg 284 119 0;
#X msg 318 100 1;
#X msg 334 119 0;
#X msg 368 100 1;
#X msg 384 119 0;
#X obj 218 14 r select-wave-\$1;
#N canvas 1 78 450 300 square 0;
#X obj 21 11 loadbang;
#X obj 21 33 t b b;
#X obj 21 177 phasor~;
#X obj 21 199 *~ 2051;
#X obj 21 243 outlet~;
#X obj 21 221 tabread4~ sqr;
#X obj 157 102 table sqr;
#X msg 157 50 \; sqr sinesum 2051 1 0 0.333333 0 0.2 0 0.142857 0 0.111111
0 0.090909 0 0.076923;
#X msg 21 97 \; sqr normalize1;
#X obj 156 155 inlet;
#X obj 156 177 switch~;
#X obj 21 155 inlet~;
#X connect 0 0 1 0;
#X connect 1 0 8 0;
#X connect 1 1 7 0;
#X connect 2 0 3 0;
#X connect 3 0 5 0;
#X connect 5 0 4 0;
#X connect 9 0 10 0;
#X connect 11 0 2 0;
#X restore 163 230 pd square;
#N canvas 1 78 450 300 triangle 0;
#X obj 14 16 loadbang;
#X obj 14 38 t b b;
#X obj 19 207 phasor~;
#X obj 19 273 outlet~;
#X obj 131 186 inlet;
#X obj 131 208 tgl 15 0 empty empty empty 17 7 0 10 -262144 -1 -1 0
1;
#X obj 131 230 switch~;
#X obj 18 229 *~ 2051;
#X msg 46 69 \; tri sinesum 2051 1 0 -0.111111 0 0.4 0 -0.204082 0
0.0123457 0 -0.00826446 0;
#X msg 14 125 \; tri normalize 1;
#X obj 267 138 table tri;
#X obj 19 185 inlet~;
#X obj 19 251 tabread4~ tri;
#X connect 0 0 1 0;
#X connect 1 0 9 0;
#X connect 1 1 8 0;
#X connect 2 0 7 0;
#X connect 4 0 5 0;
#X connect 5 0 6 0;
#X connect 7 0 12 0;
#X connect 11 0 2 0;
#X connect 12 0 3 0;
#X restore 233 230 pd triangle;
#X obj 55 292 outlet~;
#X obj 56 18 inlet~;
#N canvas 1 78 450 300 saw 0;
#X obj 132 15 inlet;
#X obj 132 37 switch~;
#X obj 48 37 phasor~;
#X obj 48 59 outlet~;
#X obj 48 15 inlet~;
#X connect 0 0 1 0;
#X connect 2 0 3 0;
#X connect 4 0 2 0;
#X restore 113 230 pd saw;
#X connect 0 0 13 0;
#X connect 1 0 2 0;
#X connect 1 0 3 0;
#X connect 1 1 4 0;
#X connect 1 1 5 0;
#X connect 1 2 6 0;
#X connect 1 2 7 0;
#X connect 1 3 8 0;
#X connect 1 3 9 0;
#X connect 2 0 0 1;
#X connect 3 0 11 1;
#X connect 3 0 12 1;
#X connect 3 0 15 1;
#X connect 4 0 15 1;
#X connect 5 0 0 1;
#X connect 5 0 11 1;
#X connect 5 0 12 1;
#X connect 6 0 11 1;
#X connect 7 0 12 1;
#X connect 7 0 0 1;
#X connect 7 0 15 1;
#X connect 8 0 12 1;
#X connect 9 0 11 1;
#X connect 9 0 0 1;
#X connect 9 0 15 1;
#X connect 10 0 1 0;
#X connect 11 0 13 0;
#X connect 12 0 13 0;
#X connect 14 0 0 0;
#X connect 14 0 15 0;
#X connect 14 0 11 0;
#X connect 14 0 12 0;
#X connect 15 0 13 0;
#X restore 636 387 pd voice;
#N canvas 1 78 450 337 voice 0;
#N canvas 1 78 450 300 sine 0;
#X obj 48 37 osc~;
#X obj 132 15 inlet;
#X obj 132 37 switch~;
#X obj 48 59 outlet~;
#X obj 48 15 inlet~;
#X connect 0 0 3 0;
#X connect 1 0 2 0;
#X connect 4 0 0 0;
#X restore 56 230 pd sine;
#X obj 218 38 sel 0 1 2 3;
#X msg 218 100 1;
#X msg 234 119 0;
#X msg 268 100 1;
#X msg 284 119 0;
#X msg 318 100 1;
#X msg 334 119 0;
#X msg 368 100 1;
#X msg 384 119 0;
#X obj 218 14 r select-wave-\$1;
#N canvas 1 78 450 300 square 0;
#X obj 21 11 loadbang;
#X obj 21 33 t b b;
#X obj 21 177 phasor~;
#X obj 21 199 *~ 2051;
#X obj 21 243 outlet~;
#X obj 21 221 tabread4~ sqr;
#X obj 157 102 table sqr;
#X msg 157 50 \; sqr sinesum 2051 1 0 0.333333 0 0.2 0 0.142857 0 0.111111
0 0.090909 0 0.076923;
#X msg 21 97 \; sqr normalize1;
#X obj 156 155 inlet;
#X obj 156 177 switch~;
#X obj 21 155 inlet~;
#X connect 0 0 1 0;
#X connect 1 0 8 0;
#X connect 1 1 7 0;
#X connect 2 0 3 0;
#X connect 3 0 5 0;
#X connect 5 0 4 0;
#X connect 9 0 10 0;
#X connect 11 0 2 0;
#X restore 163 230 pd square;
#N canvas 1 78 450 300 triangle 0;
#X obj 14 16 loadbang;
#X obj 14 38 t b b;
#X obj 19 207 phasor~;
#X obj 19 273 outlet~;
#X obj 131 186 inlet;
#X obj 131 208 tgl 15 0 empty empty empty 17 7 0 10 -262144 -1 -1 0
1;
#X obj 131 230 switch~;
#X obj 18 229 *~ 2051;
#X msg 46 69 \; tri sinesum 2051 1 0 -0.111111 0 0.4 0 -0.204082 0
0.0123457 0 -0.00826446 0;
#X msg 14 125 \; tri normalize 1;
#X obj 267 138 table tri;
#X obj 19 185 inlet~;
#X obj 19 251 tabread4~ tri;
#X connect 0 0 1 0;
#X connect 1 0 9 0;
#X connect 1 1 8 0;
#X connect 2 0 7 0;
#X connect 4 0 5 0;
#X connect 5 0 6 0;
#X connect 7 0 12 0;
#X connect 11 0 2 0;
#X connect 12 0 3 0;
#X restore 233 230 pd triangle;
#X obj 55 292 outlet~;
#X obj 56 18 inlet~;
#N canvas 1 78 450 300 saw 0;
#X obj 132 15 inlet;
#X obj 132 37 switch~;
#X obj 48 37 phasor~;
#X obj 48 59 outlet~;
#X obj 48 15 inlet~;
#X connect 0 0 1 0;
#X connect 2 0 3 0;
#X connect 4 0 2 0;
#X restore 113 230 pd saw;
#X connect 0 0 13 0;
#X connect 1 0 2 0;
#X connect 1 0 3 0;
#X connect 1 1 4 0;
#X connect 1 1 5 0;
#X connect 1 2 6 0;
#X connect 1 2 7 0;
#X connect 1 3 8 0;
#X connect 1 3 9 0;
#X connect 2 0 0 1;
#X connect 3 0 11 1;
#X connect 3 0 12 1;
#X connect 3 0 15 1;
#X connect 4 0 15 1;
#X connect 5 0 0 1;
#X connect 5 0 11 1;
#X connect 5 0 12 1;
#X connect 6 0 11 1;
#X connect 7 0 12 1;
#X connect 7 0 0 1;
#X connect 7 0 15 1;
#X connect 8 0 12 1;
#X connect 9 0 11 1;
#X connect 9 0 0 1;
#X connect 9 0 15 1;
#X connect 10 0 1 0;
#X connect 11 0 13 0;
#X connect 12 0 13 0;
#X connect 14 0 0 0;
#X connect 14 0 15 0;
#X connect 14 0 11 0;
#X connect 14 0 12 0;
#X connect 15 0 13 0;
#X restore 706 387 pd voice;
#N canvas 1 78 450 337 voice 0;
#N canvas 1 78 450 300 sine 0;
#X obj 48 37 osc~;
#X obj 132 15 inlet;
#X obj 132 37 switch~;
#X obj 48 59 outlet~;
#X obj 48 15 inlet~;
#X connect 0 0 3 0;
#X connect 1 0 2 0;
#X connect 4 0 0 0;
#X restore 56 230 pd sine;
#X obj 218 38 sel 0 1 2 3;
#X msg 218 100 1;
#X msg 234 119 0;
#X msg 268 100 1;
#X msg 284 119 0;
#X msg 318 100 1;
#X msg 334 119 0;
#X msg 368 100 1;
#X msg 384 119 0;
#X obj 218 14 r select-wave-\$1;
#N canvas 1 78 450 300 square 0;
#X obj 21 11 loadbang;
#X obj 21 33 t b b;
#X obj 21 177 phasor~;
#X obj 21 199 *~ 2051;
#X obj 21 243 outlet~;
#X obj 21 221 tabread4~ sqr;
#X obj 157 102 table sqr;
#X msg 157 50 \; sqr sinesum 2051 1 0 0.333333 0 0.2 0 0.142857 0 0.111111
0 0.090909 0 0.076923;
#X msg 21 97 \; sqr normalize1;
#X obj 156 155 inlet;
#X obj 156 177 switch~;
#X obj 21 155 inlet~;
#X connect 0 0 1 0;
#X connect 1 0 8 0;
#X connect 1 1 7 0;
#X connect 2 0 3 0;
#X connect 3 0 5 0;
#X connect 5 0 4 0;
#X connect 9 0 10 0;
#X connect 11 0 2 0;
#X restore 163 230 pd square;
#N canvas 1 78 450 300 triangle 0;
#X obj 14 16 loadbang;
#X obj 14 38 t b b;
#X obj 19 207 phasor~;
#X obj 19 273 outlet~;
#X obj 131 186 inlet;
#X obj 131 208 tgl 15 0 empty empty empty 17 7 0 10 -262144 -1 -1 0
1;
#X obj 131 230 switch~;
#X obj 18 229 *~ 2051;
#X msg 46 69 \; tri sinesum 2051 1 0 -0.111111 0 0.4 0 -0.204082 0
0.0123457 0 -0.00826446 0;
#X msg 14 125 \; tri normalize 1;
#X obj 267 138 table tri;
#X obj 19 185 inlet~;
#X obj 19 251 tabread4~ tri;
#X connect 0 0 1 0;
#X connect 1 0 9 0;
#X connect 1 1 8 0;
#X connect 2 0 7 0;
#X connect 4 0 5 0;
#X connect 5 0 6 0;
#X connect 7 0 12 0;
#X connect 11 0 2 0;
#X connect 12 0 3 0;
#X restore 233 230 pd triangle;
#X obj 55 292 outlet~;
#X obj 56 18 inlet~;
#N canvas 1 78 450 300 saw 0;
#X obj 132 15 inlet;
#X obj 132 37 switch~;
#X obj 48 37 phasor~;
#X obj 48 59 outlet~;
#X obj 48 15 inlet~;
#X connect 0 0 1 0;
#X connect 2 0 3 0;
#X connect 4 0 2 0;
#X restore 113 230 pd saw;
#X connect 0 0 13 0;
#X connect 1 0 2 0;
#X connect 1 0 3 0;
#X connect 1 1 4 0;
#X connect 1 1 5 0;
#X connect 1 2 6 0;
#X connect 1 2 7 0;
#X connect 1 3 8 0;
#X connect 1 3 9 0;
#X connect 2 0 0 1;
#X connect 3 0 11 1;
#X connect 3 0 12 1;
#X connect 3 0 15 1;
#X connect 4 0 15 1;
#X connect 5 0 0 1;
#X connect 5 0 11 1;
#X connect 5 0 12 1;
#X connect 6 0 11 1;
#X connect 7 0 12 1;
#X connect 7 0 0 1;
#X connect 7 0 15 1;
#X connect 8 0 12 1;
#X connect 9 0 11 1;
#X connect 9 0 0 1;
#X connect 9 0 15 1;
#X connect 10 0 1 0;
#X connect 11 0 13 0;
#X connect 12 0 13 0;
#X connect 14 0 0 0;
#X connect 14 0 15 0;
#X connect 14 0 11 0;
#X connect 14 0 12 0;
#X connect 15 0 13 0;
#X restore 776 387 pd voice;
#N canvas 1 78 450 337 voice 0;
#N canvas 1 78 450 300 sine 0;
#X obj 48 37 osc~;
#X obj 132 15 inlet;
#X obj 132 37 switch~;
#X obj 48 59 outlet~;
#X obj 48 15 inlet~;
#X connect 0 0 3 0;
#X connect 1 0 2 0;
#X connect 4 0 0 0;
#X restore 56 230 pd sine;
#X obj 218 38 sel 0 1 2 3;
#X msg 218 100 1;
#X msg 234 119 0;
#X msg 268 100 1;
#X msg 284 119 0;
#X msg 318 100 1;
#X msg 334 119 0;
#X msg 368 100 1;
#X msg 384 119 0;
#X obj 218 14 r select-wave-\$1;
#N canvas 1 78 450 300 square 0;
#X obj 21 11 loadbang;
#X obj 21 33 t b b;
#X obj 21 177 phasor~;
#X obj 21 199 *~ 2051;
#X obj 21 243 outlet~;
#X obj 21 221 tabread4~ sqr;
#X obj 157 102 table sqr;
#X msg 157 50 \; sqr sinesum 2051 1 0 0.333333 0 0.2 0 0.142857 0 0.111111
0 0.090909 0 0.076923;
#X msg 21 97 \; sqr normalize1;
#X obj 156 155 inlet;
#X obj 156 177 switch~;
#X obj 21 155 inlet~;
#X connect 0 0 1 0;
#X connect 1 0 8 0;
#X connect 1 1 7 0;
#X connect 2 0 3 0;
#X connect 3 0 5 0;
#X connect 5 0 4 0;
#X connect 9 0 10 0;
#X connect 11 0 2 0;
#X restore 163 230 pd square;
#N canvas 1 78 450 300 triangle 0;
#X obj 14 16 loadbang;
#X obj 14 38 t b b;
#X obj 19 207 phasor~;
#X obj 19 273 outlet~;
#X obj 131 186 inlet;
#X obj 131 208 tgl 15 0 empty empty empty 17 7 0 10 -262144 -1 -1 0
1;
#X obj 131 230 switch~;
#X obj 18 229 *~ 2051;
#X msg 46 69 \; tri sinesum 2051 1 0 -0.111111 0 0.4 0 -0.204082 0
0.0123457 0 -0.00826446 0;
#X msg 14 125 \; tri normalize 1;
#X obj 267 138 table tri;
#X obj 19 185 inlet~;
#X obj 19 251 tabread4~ tri;
#X connect 0 0 1 0;
#X connect 1 0 9 0;
#X connect 1 1 8 0;
#X connect 2 0 7 0;
#X connect 4 0 5 0;
#X connect 5 0 6 0;
#X connect 7 0 12 0;
#X connect 11 0 2 0;
#X connect 12 0 3 0;
#X restore 233 230 pd triangle;
#X obj 55 292 outlet~;
#X obj 56 18 inlet~;
#N canvas 1 78 450 300 saw 0;
#X obj 132 15 inlet;
#X obj 132 37 switch~;
#X obj 48 37 phasor~;
#X obj 48 59 outlet~;
#X obj 48 15 inlet~;
#X connect 0 0 1 0;
#X connect 2 0 3 0;
#X connect 4 0 2 0;
#X restore 113 230 pd saw;
#X connect 0 0 13 0;
#X connect 1 0 2 0;
#X connect 1 0 3 0;
#X connect 1 1 4 0;
#X connect 1 1 5 0;
#X connect 1 2 6 0;
#X connect 1 2 7 0;
#X connect 1 3 8 0;
#X connect 1 3 9 0;
#X connect 2 0 0 1;
#X connect 3 0 11 1;
#X connect 3 0 12 1;
#X connect 3 0 15 1;
#X connect 4 0 15 1;
#X connect 5 0 0 1;
#X connect 5 0 11 1;
#X connect 5 0 12 1;
#X connect 6 0 11 1;
#X connect 7 0 12 1;
#X connect 7 0 0 1;
#X connect 7 0 15 1;
#X connect 8 0 12 1;
#X connect 9 0 11 1;
#X connect 9 0 0 1;
#X connect 9 0 15 1;
#X connect 10 0 1 0;
#X connect 11 0 13 0;
#X connect 12 0 13 0;
#X connect 14 0 0 0;
#X connect 14 0 15 0;
#X connect 14 0 11 0;
#X connect 14 0 12 0;
#X connect 15 0 13 0;
#X restore 846 387 pd voice;
#N canvas 1 78 450 337 voice 0;
#N canvas 1 78 450 300 sine 0;
#X obj 48 37 osc~;
#X obj 132 15 inlet;
#X obj 132 37 switch~;
#X obj 48 59 outlet~;
#X obj 48 15 inlet~;
#X connect 0 0 3 0;
#X connect 1 0 2 0;
#X connect 4 0 0 0;
#X restore 56 230 pd sine;
#X obj 218 38 sel 0 1 2 3;
#X msg 218 100 1;
#X msg 234 119 0;
#X msg 268 100 1;
#X msg 284 119 0;
#X msg 318 100 1;
#X msg 334 119 0;
#X msg 368 100 1;
#X msg 384 119 0;
#X obj 218 14 r select-wave-\$1;
#N canvas 1 78 450 300 square 0;
#X obj 21 11 loadbang;
#X obj 21 33 t b b;
#X obj 21 177 phasor~;
#X obj 21 199 *~ 2051;
#X obj 21 243 outlet~;
#X obj 21 221 tabread4~ sqr;
#X obj 157 102 table sqr;
#X msg 157 50 \; sqr sinesum 2051 1 0 0.333333 0 0.2 0 0.142857 0 0.111111
0 0.090909 0 0.076923;
#X msg 21 97 \; sqr normalize1;
#X obj 156 155 inlet;
#X obj 156 177 switch~;
#X obj 21 155 inlet~;
#X connect 0 0 1 0;
#X connect 1 0 8 0;
#X connect 1 1 7 0;
#X connect 2 0 3 0;
#X connect 3 0 5 0;
#X connect 5 0 4 0;
#X connect 9 0 10 0;
#X connect 11 0 2 0;
#X restore 163 230 pd square;
#N canvas 1 78 450 300 triangle 0;
#X obj 14 16 loadbang;
#X obj 14 38 t b b;
#X obj 19 207 phasor~;
#X obj 19 273 outlet~;
#X obj 131 186 inlet;
#X obj 131 208 tgl 15 0 empty empty empty 17 7 0 10 -262144 -1 -1 0
1;
#X obj 131 230 switch~;
#X obj 18 229 *~ 2051;
#X msg 46 69 \; tri sinesum 2051 1 0 -0.111111 0 0.4 0 -0.204082 0
0.0123457 0 -0.00826446 0;
#X msg 14 125 \; tri normalize 1;
#X obj 267 138 table tri;
#X obj 19 185 inlet~;
#X obj 19 251 tabread4~ tri;
#X connect 0 0 1 0;
#X connect 1 0 9 0;
#X connect 1 1 8 0;
#X connect 2 0 7 0;
#X connect 4 0 5 0;
#X connect 5 0 6 0;
#X connect 7 0 12 0;
#X connect 11 0 2 0;
#X connect 12 0 3 0;
#X restore 233 230 pd triangle;
#X obj 55 292 outlet~;
#X obj 56 18 inlet~;
#N canvas 1 78 450 300 saw 0;
#X obj 132 15 inlet;
#X obj 132 37 switch~;
#X obj 48 37 phasor~;
#X obj 48 59 outlet~;
#X obj 48 15 inlet~;
#X connect 0 0 1 0;
#X connect 2 0 3 0;
#X connect 4 0 2 0;
#X restore 113 230 pd saw;
#X connect 0 0 13 0;
#X connect 1 0 2 0;
#X connect 1 0 3 0;
#X connect 1 1 4 0;
#X connect 1 1 5 0;
#X connect 1 2 6 0;
#X connect 1 2 7 0;
#X connect 1 3 8 0;
#X connect 1 3 9 0;
#X connect 2 0 0 1;
#X connect 3 0 11 1;
#X connect 3 0 12 1;
#X connect 3 0 15 1;
#X connect 4 0 15 1;
#X connect 5 0 0 1;
#X connect 5 0 11 1;
#X connect 5 0 12 1;
#X connect 6 0 11 1;
#X connect 7 0 12 1;
#X connect 7 0 0 1;
#X connect 7 0 15 1;
#X connect 8 0 12 1;
#X connect 9 0 11 1;
#X connect 9 0 0 1;
#X connect 9 0 15 1;
#X connect 10 0 1 0;
#X connect 11 0 13 0;
#X connect 12 0 13 0;
#X connect 14 0 0 0;
#X connect 14 0 15 0;
#X connect 14 0 11 0;
#X connect 14 0 12 0;
#X connect 15 0 13 0;
#X restore 916 387 pd voice;
#X obj 238 16 r poly-osc-\$1-a_in;
#X obj 118 15 r select-wave-\$1-in;
#X msg 126 78 1;
#X obj 257 36 r poly-osc-\$1-d_in;
#X obj 277 57 r poly-osc-\$1-s_in;
#X obj 298 78 r poly-osc-\$1-r_in;
#X msg 165 65 0.3;
#X connect 1 0 90 0;
#X connect 2 0 16 1;
#X connect 3 0 93 0;
#X connect 8 0 9 0;
#X connect 8 1 33 0;
#X connect 8 1 36 0;
#X connect 8 1 39 0;
#X connect 8 1 42 0;
#X connect 8 1 45 0;
#X connect 8 1 48 0;
#X connect 8 1 51 0;
#X connect 8 1 54 0;
#X connect 8 2 56 0;
#X connect 8 2 58 0;
#X connect 8 2 60 0;
#X connect 8 2 62 0;
#X connect 8 2 64 0;
#X connect 8 2 66 0;
#X connect 8 2 68 0;
#X connect 8 2 70 0;
#X connect 9 0 32 0;
#X connect 9 1 35 0;
#X connect 9 2 38 0;
#X connect 9 3 41 0;
#X connect 9 4 44 0;
#X connect 9 5 47 0;
#X connect 9 6 50 0;
#X connect 9 7 53 0;
#X connect 10 0 11 0;
#X connect 11 0 15 0;
#X connect 15 0 16 0;
#X connect 16 0 12 0;
#X connect 16 0 17 0;
#X connect 18 0 19 0;
#X connect 19 0 16 0;
#X connect 20 0 21 0;
#X connect 21 0 16 0;
#X connect 22 0 23 0;
#X connect 23 0 16 0;
#X connect 24 0 25 0;
#X connect 25 0 16 0;
#X connect 26 0 27 0;
#X connect 27 0 16 0;
#X connect 28 0 29 0;
#X connect 29 0 16 0;
#X connect 30 0 31 0;
#X connect 31 0 16 0;
#X connect 32 0 34 0;
#X connect 32 0 57 0;
#X connect 33 0 34 0;
#X connect 34 0 94 0;
#X connect 35 0 37 0;
#X connect 35 0 59 0;
#X connect 36 0 37 0;
#X connect 37 0 95 0;
#X connect 38 0 40 0;
#X connect 38 0 61 0;
#X connect 39 0 40 0;
#X connect 40 0 96 0;
#X connect 41 0 43 0;
#X connect 41 0 63 0;
#X connect 42 0 43 0;
#X connect 43 0 97 0;
#X connect 44 0 46 0;
#X connect 44 0 65 0;
#X connect 45 0 46 0;
#X connect 46 0 98 0;
#X connect 47 0 49 0;
#X connect 47 0 67 0;
#X connect 48 0 49 0;
#X connect 49 0 99 0;
#X connect 50 0 52 0;
#X connect 50 0 69 0;
#X connect 51 0 52 0;
#X connect 52 0 100 0;
#X connect 53 0 55 0;
#X connect 53 0 71 0;
#X connect 54 0 55 0;
#X connect 55 0 101 0;
#X connect 56 0 57 0;
#X connect 57 0 72 0;
#X connect 58 0 59 0;
#X connect 59 0 73 0;
#X connect 60 0 61 0;
#X connect 61 0 74 0;
#X connect 62 0 63 0;
#X connect 63 0 75 0;
#X connect 64 0 65 0;
#X connect 65 0 76 0;
#X connect 66 0 67 0;
#X connect 67 0 77 0;
#X connect 68 0 69 0;
#X connect 69 0 78 0;
#X connect 70 0 71 0;
#X connect 71 0 79 0;
#X connect 72 0 11 1;
#X connect 73 0 18 1;
#X connect 74 0 20 1;
#X connect 75 0 22 1;
#X connect 76 0 24 1;
#X connect 77 0 26 1;
#X connect 78 0 28 1;
#X connect 79 0 30 1;
#X connect 80 0 8 0;
#X connect 82 0 86 0;
#X connect 83 0 87 0;
#X connect 84 0 88 0;
#X connect 85 0 89 0;
#X connect 91 0 92 0;
#X connect 91 0 112 0;
#X connect 91 0 116 0;
#X connect 92 0 1 0;
#X connect 94 0 10 0;
#X connect 95 0 103 0;
#X connect 96 0 104 0;
#X connect 97 0 105 0;
#X connect 98 0 106 0;
#X connect 99 0 107 0;
#X connect 100 0 108 0;
#X connect 101 0 109 0;
#X connect 102 0 94 1;
#X connect 102 0 95 1;
#X connect 102 0 96 1;
#X connect 102 0 97 1;
#X connect 102 0 98 1;
#X connect 102 0 99 1;
#X connect 102 0 100 1;
#X connect 102 0 101 1;
#X connect 103 0 18 0;
#X connect 104 0 20 0;
#X connect 105 0 22 0;
#X connect 106 0 24 0;
#X connect 107 0 26 0;
#X connect 108 0 28 0;
#X connect 109 0 30 0;
#X connect 110 0 82 0;
#X connect 111 0 1 0;
#X connect 112 0 3 0;
#X connect 113 0 83 0;
#X connect 114 0 84 0;
#X connect 115 0 85 0;
#X connect 116 0 2 0;
#X coords 0 -1 1 1 228 124 1 100 100;
