#N canvas 757 294 388 361 10;
#X obj 101 271 line, f 7;
#X floatatom 150 117 5 0 0 0 to - -, f 5;
#X floatatom 150 138 5 0 0 0 in_(ms) - -, f 5;
#X obj 53 206 bng 15 250 50 0 empty empty empty 17 7 0 10 -262144 -1
-1;
#X obj 101 294 outlet;
#X obj 123 76 t b f;
#X obj 123 40 inlet;
#X obj 185 68 r ramp-\$1-time;
#X obj 184 44 r ramp-\$1-to;
#X obj 140 244 r ramp-\$1-grain;
#X msg 101 195 set \$1 \$2;
#X msg 101 221 747.217 2000;
#X obj 101 171 pack f f;
#X connect 0 0 4 0;
#X connect 1 0 12 0;
#X connect 2 0 12 1;
#X connect 3 0 11 0;
#X connect 5 0 3 0;
#X connect 5 1 1 0;
#X connect 6 0 5 0;
#X connect 7 0 2 0;
#X connect 8 0 1 0;
#X connect 9 0 0 2;
#X connect 10 0 11 0;
#X connect 11 0 0 0;
#X connect 12 0 10 0;
#X coords 0 -1 1 1 85 60 1 100 100;
