#N canvas 0 78 1920 1002 10;
#X obj 102 393 line, f 7;
#X msg 101 252 set \$1;
#X msg 127 280 addcomma;
#X msg 102 364 1978 \, 1402 504;
#X floatatom 177 143 5 0 0 0 value_1 - -, f 5;
#X floatatom 177 159 5 0 0 0 value_2 - -, f 5;
#X floatatom 177 176 5 0 0 0 time - -, f 5;
#X obj 393 229 pack f f;
#X msg 204 305 set add2 \$1 \$2;
#X msg 204 327 add2 644 504;
#X obj 290 116 t b b b;
#X obj 492 138 bng 15 250 50 0 empty empty empty 17 7 0 10 -262144
-1 -1;
#X obj 77 70 random 2000;
#X obj 177 70 random 2000;
#X obj 20 9 inlet;
#X obj 20 31 t b b;
#X floatatom 177 199 5 0 0 0 out - -, f 5;
#X obj 102 434 outlet;
#X obj 271 5 inlet;
#X connect 0 0 16 0;
#X connect 1 0 3 0;
#X connect 2 0 3 0;
#X connect 3 0 0 0;
#X connect 4 0 1 0;
#X connect 4 0 10 0;
#X connect 5 0 7 0;
#X connect 6 0 7 1;
#X connect 6 0 11 0;
#X connect 7 0 8 0;
#X connect 8 0 9 0;
#X connect 9 0 3 0;
#X connect 10 0 9 0;
#X connect 10 1 11 0;
#X connect 10 2 2 0;
#X connect 11 0 5 0;
#X connect 12 0 4 0;
#X connect 13 0 5 0;
#X connect 14 0 15 0;
#X connect 15 0 3 0;
#X connect 15 1 13 0;
#X connect 15 1 12 0;
#X connect 16 0 17 0;
#X connect 18 0 6 0;
#X coords 0 -1 1 1 120 120 1 100 100;
