#N canvas 1282 50 638 1009 10;
#X obj 250 491 qlist;
#X obj 374 148 bng 15 250 50 0 empty empty empty 17 7 0 10 -262144
-1 -1;
#X msg 250 315 symbol read;
#X obj 107 127 bng 15 250 50 0 empty empty load_txt 17 7 0 10 -262144
-1 -1;
#X obj 355 238 openpanel;
#X obj 250 389 pack s s;
#X obj 182 302 delay 2;
#X obj 181 274 bng 15 250 50 0 empty empty empty 17 7 0 10 -262144
-1 -1;
#X obj 107 148 bng 15 250 50 0 empty empty read 17 7 0 10 -262144 -1
-1;
#X obj 250 517 print;
#X msg 65 416 rewind \, bang;
#X obj 181 391 delay 2;
#X msg 437 338 symbol /home/zimmer/Pd/patches/ze.txt;
#X obj 181 333 delay 2;
#X msg 250 433 set \$1 \$2;
#X msg 250 456 read /home/zimmer/Pd/patches/ze.txt;
#X msg 436 317 set symbol \$1;
#X symbolatom 178 128 30 0 0 0 - - -, f 30;
#X obj 327 12 loadbang;
#X obj 41 269 print;
#X obj 436 239 r path-to-txt-\$1;
#X msg 589 55 clear;
#X obj 103 211 r readtxt-msg-\$1;
#X connect 0 0 9 0;
#X connect 0 1 1 0;
#X connect 2 0 5 0;
#X connect 3 0 4 0;
#X connect 3 0 2 0;
#X connect 4 0 16 0;
#X connect 4 0 7 0;
#X connect 5 0 14 0;
#X connect 6 0 13 0;
#X connect 6 0 12 0;
#X connect 7 0 6 0;
#X connect 8 0 10 0;
#X connect 10 0 0 0;
#X connect 11 0 15 0;
#X connect 12 0 5 1;
#X connect 12 0 17 0;
#X connect 13 0 11 0;
#X connect 13 0 5 0;
#X connect 14 0 15 0;
#X connect 15 0 0 0;
#X connect 16 0 12 0;
#X connect 20 0 16 0;
#X connect 21 0 0 0;
#X connect 22 0 0 0;
#X connect 22 0 19 0;
#X coords 0 -1 1 1 300 100 1 100 100;
