#N canvas 86 92 994 748 10;
#X obj 100 100 cnv 15 110 100 empty empty empty 20 12 0 14 -1 -66577
0;
#X obj 101 101 cnv 15 106 96 empty empty reverb 2 12 0 14 -162280 -66577
0;
#X obj 39 241 rev3~, f 27;
#X obj 40 280 outlet~;
#X obj 100 280 outlet~;
#X obj 125 126 vsl 15 60 0 100 0 0 empty empty empty 0 -9 0 10 -228856
-1 -1 0 1;
#X obj 145 126 vsl 15 60 70 100 0 0 empty empty empty 0 -9 0 10 -228856
-1 -1 0 1;
#X obj 166 126 vsl 15 60 40 20000 0 0 empty empty empty 0 -9 0 10 -228856
-1 -1 0 1;
#X obj 186 126 vsl 15 60 0 100 0 0 empty empty empty 0 -9 0 10 -228856
-1 -1 0 1;
#X obj 105 124 tgl 15 0 empty empty empty 17 7 0 10 -228856 -1 -1 1
1;
#X obj 38 65 inlet~;
#X obj 88 65 inlet~;
#X obj 105 214 switch~;
#X obj 49 37 r rev-\$0-on;
#X obj 125 17 r rev-\$0-level;
#X obj 145 38 r rev-\$0-live;
#X obj 166 59 r rev-\$0-freq;
#X obj 186 80 r rev-\$0-dump;
#X obj 163 280 outlet~;
#X obj 224 280 outlet~;
#X connect 2 0 3 0;
#X connect 2 1 4 0;
#X connect 2 2 18 0;
#X connect 2 3 19 0;
#X connect 5 0 2 2;
#X connect 6 0 2 3;
#X connect 7 0 2 4;
#X connect 8 0 2 5;
#X connect 9 0 12 0;
#X connect 10 0 2 0;
#X connect 11 0 2 1;
#X connect 13 0 9 0;
#X connect 14 0 5 0;
#X connect 15 0 6 0;
#X connect 16 0 7 0;
#X connect 17 0 8 0;
#X coords 0 -1 1 1 110 100 1 100 100;
