#N canvas 340 294 745 605 10;
#X obj 110 152 hsl 128 15 0 1 0 0 empty empty roomsize 6 7 0 10 -262144
-1 -1 5300 1;
#X obj 110 172 hsl 128 15 0 1 0 0 empty empty damping 6 7 0 10 -262144
-1 -1 3100 1;
#X obj 110 192 hsl 128 15 0 1 0 0 empty empty width 6 7 0 10 -262144
-1 -1 4600 1;
#X obj 110 213 hsl 128 15 0 1 0 0 empty empty dry 6 7 0 10 -262144
-1 -1 5700 1;
#X obj 110 234 hsl 128 15 0 1 0 0 empty empty wet 6 7 0 10 -262144
-1 -1 3300 1;
#X obj 176 490 freeverb~;
#X msg 217 277 roomsize \$1;
#X msg 231 300 damping \$1;
#X msg 242 324 width \$1;
#X msg 254 347 dry \$1;
#X msg 266 369 wet \$1;
#X obj 225 132 tgl 15 0 empty empty freeze -38 7 0 10 -262144 -1 -1
0 1;
#X msg 384 406 freeze \$1;
#X obj 225 113 tgl 15 0 empty empty bypass -38 7 0 10 -262144 -1 -1
0 1;
#X msg 377 429 bypass \$1;
#X obj 176 512 outlet~;
#X obj 235 512 outlet~;
#X obj 25 82 inlet~;
#X obj 88 64 inlet~;
#X obj 312 80 r revf-\$1-roomsize;
#X obj 322 101 r revf-\$1-damping;
#X obj 332 123 r revf-\$1-width;
#X obj 342 143 r revf-\$1-dry;
#X obj 360 163 r revf-\$1-wet;
#X obj 288 32 r revf-\$1-bypass;
#X obj 300 55 r revf-\$1-freeze;
#X connect 0 0 6 0;
#X connect 1 0 7 0;
#X connect 2 0 8 0;
#X connect 3 0 9 0;
#X connect 4 0 10 0;
#X connect 5 0 15 0;
#X connect 5 1 16 0;
#X connect 6 0 5 0;
#X connect 7 0 5 0;
#X connect 8 0 5 0;
#X connect 9 0 5 0;
#X connect 10 0 5 0;
#X connect 11 0 12 0;
#X connect 12 0 5 0;
#X connect 13 0 14 0;
#X connect 14 0 5 0;
#X connect 17 0 5 0;
#X connect 18 0 5 1;
#X connect 19 0 0 0;
#X connect 20 0 1 0;
#X connect 21 0 2 0;
#X connect 22 0 3 0;
#X connect 23 0 4 0;
#X connect 24 0 13 0;
#X connect 25 0 11 0;
#X coords 0 -1 1 1 150 160 1 100 100;
