#N canvas 962 75 956 774 10;
#X obj 110 174 hsl 128 15 0 1 0 0 empty empty start 8 8 0 10 -262144
-1 -1 0 1;
#X obj 110 189 hsl 128 15 0 1 0 0 empty empty end 8 8 0 10 -262144
-1 -1 12700 1;
#X obj 110 229 hsl 128 15 0 1 0 0 empty empty min 8 8 0 10 -262144
-1 -1 0 1;
#X obj 110 245 hsl 128 15 0 1 0 0 empty empty max 8 8 0 10 -262144
-1 -1 12700 1;
#X obj 204 210 nbx 3 15 0 400 0 0 empty empty empty 0 -8 0 10 -262144
-1 -1 0 256;
#X obj 226 152 nbx 3 15 0 1 0 0 empty empty speed -32 8 0 10 -262144
-1 -1 1 256;
#X obj 247 176 vsl 15 80 0 60 0 0 empty empty empty 0 -9 0 10 -262144
-1 -1 0 1;
#X obj 107 153 bng 15 250 50 0 empty empty load_file 17 7 0 10 -262144
-1 -1;
#X obj 424 58 openpanel;
#X obj 424 154 soundfiler;
#X obj 424 176 expr 44100 / $f1;
#X floatatom 424 308 5 0 0 0 - - -, f 5;
#X obj 424 357 *;
#X obj 424 379 phasor~;
#X obj 424 463 *~;
#X obj 424 485 +~;
#X obj 424 507 *~;
#X obj 488 200 expr 1 / $f1;
#X obj 455 236 *;
#X obj 509 286 t b f;
#X obj 583 371 t b f;
#X obj 487 425 -;
#X obj 426 610 hip~ 5;
#X obj 426 585 *~;
#X msg 582 547 \$1 20;
#X obj 582 569 line~;
#X obj 617 75 bng 15 250 50 0 empty empty empty 17 7 0 10 -262144 -1
-1;
#X obj 781 205 bng 15 250 50 0 empty empty empty 17 7 0 10 -262144
-1 -1;
#X obj 674 418 bng 15 250 50 0 empty empty empty 17 7 0 10 -262144
-1 -1;
#X msg 674 393 start;
#X obj 674 444 metro 1000;
#X obj 781 249 random 1000;
#X obj 425 555 *~;
#X obj 855 48 f;
#X obj 841 104 t b f;
#X obj 855 133 -;
#X obj 855 155 f;
#X floatatom 855 177 5 0 0 0 - - -, f 5;
#X obj 781 278 f;
#X obj 781 303 +;
#X obj 741 393 expr 15000 / $f1;
#X obj 675 22 inlet~;
#X obj 626 49 r rsampler-\$1-bang;
#X obj 617 22 inlet;
#X obj 235 95 r rsampler-\$1-vol;
#X obj 202 73 r rsampler-\$1-speed;
#X obj 175 31 r rsampler-\$1-start;
#X obj 189 51 r rsampler-\$1-end;
#X obj 781 327 * 0.001;
#X obj 184 210 tgl 15 0 empty empty random -40 8 0 10 -262144 -1 -1
0 1;
#X obj 247 130 tgl 15 0 empty empty empty 17 7 0 10 -262144 -1 -1 0
1;
#X obj 286 158 switch~;
#X obj 425 638 outlet~;
#X obj 281 445 spigot 0;
#X obj 281 314 bng 15 250 50 0 empty empty empty 17 7 0 10 -262144
-1 -1;
#X obj 781 26 r rsampler-\$1-randompoint;
#X obj 326 27 r rsampler-\$1-on;
#X obj 36 80 r rsampler-\$1-max;
#X obj 26 61 r rsampler-\$1-min;
#X obj 140 8 r rsampler-\$1-bpm;
#X obj 24 17 loadbang;
#X msg 24 39 1;
#X obj 91 349 table array-\$0;
#X obj 424 529 tabread4~ array-\$0;
#X msg 424 131 read -resize \$1 array-\$2;
#X obj 52 388 loadbang;
#X msg 52 410 0;
#X obj 52 440 + \$0;
#X floatatom 52 462 5 0 0 0 - - -, f 5;
#X obj 424 80 pack s f;
#X floatatom 803 358 5 0 0 0 - - -, f 5;
#X obj 855 196 * 1000;
#X obj 453 24 r rsampler-\$1-load;
#X msg 687 169 0;
#X connect 0 0 20 0;
#X connect 1 0 21 0;
#X connect 2 0 34 0;
#X connect 3 0 33 0;
#X connect 4 0 54 0;
#X connect 4 0 40 0;
#X connect 5 0 19 0;
#X connect 6 0 24 0;
#X connect 7 0 8 0;
#X connect 8 0 69 0;
#X connect 9 0 10 0;
#X connect 9 0 16 1;
#X connect 10 0 18 1;
#X connect 10 0 11 0;
#X connect 11 0 12 0;
#X connect 12 0 13 0;
#X connect 13 0 14 0;
#X connect 14 0 15 0;
#X connect 15 0 16 0;
#X connect 16 0 63 0;
#X connect 17 0 18 0;
#X connect 18 0 11 0;
#X connect 19 0 11 0;
#X connect 19 1 12 1;
#X connect 20 0 21 0;
#X connect 20 1 21 1;
#X connect 20 1 15 1;
#X connect 21 0 14 1;
#X connect 21 0 17 0;
#X connect 22 0 52 0;
#X connect 23 0 22 0;
#X connect 24 0 25 0;
#X connect 25 0 23 1;
#X connect 26 0 73 0;
#X connect 27 0 31 0;
#X connect 28 0 30 0;
#X connect 29 0 28 0;
#X connect 30 0 27 0;
#X connect 31 0 38 0;
#X connect 32 0 23 0;
#X connect 33 0 35 0;
#X connect 34 0 31 0;
#X connect 34 1 39 1;
#X connect 34 1 35 1;
#X connect 35 0 36 0;
#X connect 36 0 37 0;
#X connect 37 0 71 0;
#X connect 38 0 39 0;
#X connect 39 0 48 0;
#X connect 40 0 30 1;
#X connect 41 0 32 1;
#X connect 42 0 26 0;
#X connect 43 0 26 0;
#X connect 44 0 6 0;
#X connect 45 0 5 0;
#X connect 46 0 0 0;
#X connect 47 0 1 0;
#X connect 48 0 0 0;
#X connect 48 0 70 0;
#X connect 49 0 53 1;
#X connect 49 0 30 0;
#X connect 50 0 51 0;
#X connect 53 0 29 0;
#X connect 54 0 53 0;
#X connect 55 0 27 0;
#X connect 56 0 50 0;
#X connect 57 0 3 0;
#X connect 58 0 2 0;
#X connect 59 0 4 0;
#X connect 60 0 61 0;
#X connect 61 0 5 0;
#X connect 61 0 1 0;
#X connect 61 0 3 0;
#X connect 63 0 32 0;
#X connect 64 0 9 0;
#X connect 65 0 66 0;
#X connect 66 0 67 0;
#X connect 67 0 68 0;
#X connect 68 0 69 1;
#X connect 69 0 64 0;
#X connect 71 0 31 1;
#X connect 72 0 69 0;
#X connect 73 0 63 0;
#X coords 0 -1 1 1 170 150 1 100 120;
