#N canvas 0 32 1920 1048 10;
#X obj 118 380 sel 0 1 2 3 4 5 6 7 8 9 10 11 12 13 14 15;
#X obj 119 533 bng 15 250 50 0 empty empty empty 17 7 0 10 -262144
-1 -1;
#X obj 181 533 bng 15 250 50 0 empty empty empty 17 7 0 10 -262144
-1 -1;
#X obj 244 533 bng 15 250 50 0 empty empty empty 17 7 0 10 -262144
-1 -1;
#X obj 306 533 bng 15 250 50 0 empty empty empty 17 7 0 10 -262144
-1 -1;
#X obj 370 533 bng 15 250 50 0 empty empty empty 17 7 0 10 -262144
-1 -1;
#X obj 433 533 bng 15 250 50 0 empty empty empty 17 7 0 10 -262144
-1 -1;
#X obj 498 533 bng 15 250 50 0 empty empty empty 17 7 0 10 -262144
-1 -1;
#X obj 561 533 bng 15 250 50 0 empty empty empty 17 7 0 10 -262144
-1 -1;
#X obj 629 533 bng 15 250 50 0 empty empty empty 17 7 0 10 -262144
-1 -1;
#X obj 692 533 bng 15 250 50 0 empty empty empty 17 7 0 10 -262144
-1 -1;
#X obj 757 533 bng 15 250 50 0 empty empty empty 17 7 0 10 -262144
-1 -1;
#X obj 820 533 bng 15 250 50 0 empty empty empty 17 7 0 10 -262144
-1 -1;
#X obj 884 533 bng 15 250 50 0 empty empty empty 17 7 0 10 -262144
-1 -1;
#X obj 947 533 bng 15 250 50 0 empty empty empty 17 7 0 10 -262144
-1 -1;
#X obj 1010 533 bng 15 250 50 0 empty empty empty 17 7 0 10 -262144
-1 -1;
#X obj 1073 533 bng 15 250 50 0 empty empty empty 17 7 0 10 -262144
-1 -1;
#X obj 828 376 tgl 15 0 empty empty empty 17 7 0 10 -262144 -1 -1 0
1;
#X obj 848 376 tgl 15 0 empty empty empty 17 7 0 10 -262144 -1 -1 0
1;
#X obj 868 376 tgl 15 0 empty empty empty 17 7 0 10 -262144 -1 -1 0
1;
#X obj 888 376 tgl 15 0 empty empty empty 17 7 0 10 -262144 -1 -1 0
1;
#X obj 908 376 tgl 15 0 empty empty empty 17 7 0 10 -262144 -1 -1 0
1;
#X obj 928 376 tgl 15 0 empty empty empty 17 7 0 10 -262144 -1 -1 1
1;
#X obj 948 376 tgl 15 0 empty empty empty 17 7 0 10 -262144 -1 -1 0
1;
#X obj 968 376 tgl 15 0 empty empty empty 17 7 0 10 -262144 -1 -1 0
1;
#X obj 988 376 tgl 15 0 empty empty empty 17 7 0 10 -262144 -1 -1 0
1;
#X obj 1008 376 tgl 15 0 empty empty empty 17 7 0 10 -262144 -1 -1
0 1;
#X obj 1028 376 tgl 15 0 empty empty empty 17 7 0 10 -262144 -1 -1
0 1;
#X obj 1048 376 tgl 15 0 empty empty empty 17 7 0 10 -262144 -1 -1
0 1;
#X obj 1068 376 tgl 15 0 empty empty empty 17 7 0 10 -262144 -1 -1
1 1;
#X obj 1088 376 tgl 15 0 empty empty empty 17 7 0 10 -262144 -1 -1
0 1;
#X obj 1108 376 tgl 15 0 empty empty empty 17 7 0 10 -262144 -1 -1
0 1;
#X obj 1128 376 tgl 15 0 empty empty empty 17 7 0 10 -262144 -1 -1
0 1;
#X obj 865 136 unpack 0 0 0 0 0 0 0 0 0 0 0 0 0 0 0 0;
#X obj 118 71 inlet;
#X obj 118 118 %;
#X obj 164 71 r nsteps-\$1;
#X obj 119 1015 outlet;
#X obj 865 100 r pattern-\$1;
#X obj 119 508 spigot 0;
#X obj 181 508 spigot 0;
#X obj 244 508 spigot 0;
#X obj 306 508 spigot 0;
#X obj 370 508 spigot 0;
#X obj 433 508 spigot 0;
#X obj 498 508 spigot 0;
#X obj 561 508 spigot 0;
#X obj 629 507 spigot 0;
#X obj 692 508 spigot 0;
#X obj 757 507 spigot 0;
#X obj 820 507 spigot 0;
#X obj 884 507 spigot 0;
#X obj 947 507 spigot 0;
#X obj 1010 507 spigot 0;
#X obj 1073 507 spigot 0;
#X obj 1313 603 unpack 0 0 0 0 0 0 0 0 0 0 0 0 0 0 0 0;
#X obj 1205 138 unpack 0 0 0 0 0 0 0 0 0 0 0 0 0 0 0 0;
#N canvas 520 119 1343 896 repeat1 0;
#X obj 268 846 outlet;
#X text 318 844 bang;
#X floatatom 573 459 5 0 0 0 - - -, f 5;
#X obj 573 437 <;
#X obj 551 381 f;
#X obj 470 329 moses 1;
#X obj 363 621 bng 15 250 50 0 empty empty empty 17 7 0 10 -262144
-1 -1;
#X obj 363 583 metro 500;
#X obj 427 537 spigot;
#X floatatom 888 320 5 0 0 0 - - -, f 5;
#X floatatom 500 512 5 0 0 0 - - -, f 5;
#X obj 73 25 inlet;
#X text 117 27 step toggle;
#X obj 428 12 inlet;
#X text 377 40 select;
#X obj 691 152 r seq-\$1-repeat1;
#X floatatom 893 644 5 0 0 0 - - -, f 5;
#X floatatom 691 177 5 0 0 0 - - -, f 5;
#X msg 427 106 1;
#X msg 804 248 set \$1;
#X msg 804 270 0;
#X obj 268 658 spigot;
#X obj 893 622 &;
#X floatatom 555 198 5 0 0 0 - - -, f 5;
#X msg 463 109 0;
#X obj 555 176 != 0;
#X obj 484 35 r nsteps-\$1;
#X obj 428 34 %;
#X obj 427 68 sel 0;
#X floatatom 888 471 5 0 0 0 - - -, f 5;
#X obj 500 490 ==;
#X obj 595 623 f;
#X obj 888 449 /;
#X obj 924 369 f;
#X obj 691 222 delay 2;
#X obj 691 250 bng 15 250 50 0 empty empty empty 17 7 0 10 -262144
-1 -1;
#X obj 691 272 delay 2;
#X obj 691 300 bng 15 250 50 0 empty empty empty 17 7 0 10 -262144
-1 -1;
#X obj 691 332 delay 2;
#X obj 691 360 bng 15 250 50 0 empty empty empty 17 7 0 10 -262144
-1 -1;
#X obj 587 404 f;
#X obj 691 382 delay 2;
#X obj 691 410 bng 15 250 50 0 empty empty empty 17 7 0 10 -262144
-1 -1;
#X obj 888 51 r get-bpm-\$2;
#X connect 2 0 30 1;
#X connect 2 0 22 1;
#X connect 3 0 2 0;
#X connect 4 0 3 0;
#X connect 5 1 4 0;
#X connect 5 1 40 1;
#X connect 6 0 21 0;
#X connect 7 0 6 0;
#X connect 8 0 7 0;
#X connect 9 0 32 0;
#X connect 9 0 33 1;
#X connect 10 0 8 1;
#X connect 11 0 5 0;
#X connect 11 0 30 0;
#X connect 11 0 31 1;
#X connect 13 0 27 0;
#X connect 15 0 17 0;
#X connect 16 0 21 1;
#X connect 17 0 19 0;
#X connect 17 0 34 0;
#X connect 18 0 25 0;
#X connect 19 0 20 0;
#X connect 20 0 32 1;
#X connect 20 0 3 1;
#X connect 21 0 0 0;
#X connect 22 0 16 0;
#X connect 23 0 8 0;
#X connect 24 0 25 0;
#X connect 25 0 23 0;
#X connect 26 0 27 1;
#X connect 27 0 28 0;
#X connect 28 0 18 0;
#X connect 28 1 24 0;
#X connect 30 0 10 0;
#X connect 31 0 22 0;
#X connect 32 0 7 1;
#X connect 32 0 29 0;
#X connect 33 0 32 0;
#X connect 34 0 35 0;
#X connect 35 0 20 0;
#X connect 35 0 36 0;
#X connect 36 0 37 0;
#X connect 37 0 33 0;
#X connect 37 0 38 0;
#X connect 38 0 39 0;
#X connect 39 0 40 0;
#X connect 39 0 41 0;
#X connect 40 0 3 0;
#X connect 41 0 42 0;
#X connect 42 0 31 0;
#X connect 43 0 9 0;
#X restore 1117 725 pd repeat1;
#N canvas 465 152 1343 871 repeat2 0;
#X obj 427 39 inlet;
#X text 377 40 select;
#X obj 261 734 outlet;
#X text 311 732 bang;
#X floatatom 566 496 5 0 0 0 - - -, f 5;
#X obj 566 474 <;
#X obj 544 418 f;
#X obj 463 366 moses 1;
#X obj 356 658 bng 15 250 50 0 empty empty empty 17 7 0 10 -262144
-1 -1;
#X obj 356 620 metro 500;
#X obj 420 574 spigot;
#X floatatom 881 357 5 0 0 0 - - -, f 5;
#X floatatom 493 549 5 0 0 0 - - -, f 5;
#X obj 87 240 inlet;
#X text 128 239 step toggle;
#X floatatom 886 681 5 0 0 0 - - -, f 5;
#X floatatom 684 214 5 0 0 0 - - -, f 5;
#X msg 420 143 1;
#X msg 797 285 set \$1;
#X msg 797 307 0;
#X obj 261 695 spigot;
#X obj 886 659 &;
#X floatatom 548 235 5 0 0 0 - - -, f 5;
#X msg 456 146 0;
#X obj 548 213 != 0;
#X obj 477 72 r nsteps-\$1;
#X obj 421 71 %;
#X floatatom 881 508 5 0 0 0 - - -, f 5;
#X obj 493 527 ==;
#X obj 588 660 f;
#X obj 881 486 /;
#X obj 917 406 f;
#X obj 684 259 delay 2;
#X obj 684 287 bng 15 250 50 0 empty empty empty 17 7 0 10 -262144
-1 -1;
#X obj 684 309 delay 2;
#X obj 684 337 bng 15 250 50 0 empty empty empty 17 7 0 10 -262144
-1 -1;
#X obj 684 369 delay 2;
#X obj 684 397 bng 15 250 50 0 empty empty empty 17 7 0 10 -262144
-1 -1;
#X obj 580 441 f;
#X obj 684 419 delay 2;
#X obj 684 447 bng 15 250 50 0 empty empty empty 17 7 0 10 -262144
-1 -1;
#X obj 881 88 r get-bpm-\$2;
#X obj 684 189 r seq-\$1-repeat2;
#X obj 420 105 sel 1;
#X connect 0 0 26 0;
#X connect 4 0 28 1;
#X connect 4 0 21 1;
#X connect 5 0 4 0;
#X connect 6 0 5 0;
#X connect 7 1 6 0;
#X connect 7 1 38 1;
#X connect 8 0 20 0;
#X connect 9 0 8 0;
#X connect 10 0 9 0;
#X connect 11 0 30 0;
#X connect 11 0 31 1;
#X connect 12 0 10 1;
#X connect 13 0 7 0;
#X connect 13 0 28 0;
#X connect 13 0 29 1;
#X connect 15 0 20 1;
#X connect 16 0 18 0;
#X connect 16 0 32 0;
#X connect 17 0 24 0;
#X connect 18 0 19 0;
#X connect 19 0 30 1;
#X connect 19 0 5 1;
#X connect 20 0 2 0;
#X connect 21 0 15 0;
#X connect 22 0 10 0;
#X connect 23 0 24 0;
#X connect 24 0 22 0;
#X connect 25 0 26 1;
#X connect 26 0 43 0;
#X connect 28 0 12 0;
#X connect 29 0 21 0;
#X connect 30 0 9 1;
#X connect 30 0 27 0;
#X connect 31 0 30 0;
#X connect 32 0 33 0;
#X connect 33 0 19 0;
#X connect 33 0 34 0;
#X connect 34 0 35 0;
#X connect 35 0 31 0;
#X connect 35 0 36 0;
#X connect 36 0 37 0;
#X connect 37 0 38 0;
#X connect 37 0 39 0;
#X connect 38 0 5 0;
#X connect 39 0 40 0;
#X connect 40 0 29 0;
#X connect 41 0 11 0;
#X connect 42 0 16 0;
#X connect 43 0 17 0;
#X connect 43 1 23 0;
#X restore 1117 744 pd repeat2;
#N canvas 465 152 1343 871 repeat3 0;
#X obj 56 817 outlet;
#X text 106 815 bang;
#X obj 94 203 inlet;
#X text 135 202 step toggle;
#X obj 427 39 inlet;
#X text 377 40 select;
#X floatatom 562 523 5 0 0 0 - - -, f 5;
#X obj 562 501 <;
#X obj 540 445 f;
#X obj 459 393 moses 1;
#X obj 352 685 bng 15 250 50 0 empty empty empty 17 7 0 10 -262144
-1 -1;
#X obj 352 647 metro 500;
#X obj 416 601 spigot;
#X floatatom 877 384 5 0 0 0 - - -, f 5;
#X floatatom 489 576 5 0 0 0 - - -, f 5;
#X text 366 104 select;
#X floatatom 882 708 5 0 0 0 - - -, f 5;
#X floatatom 680 241 5 0 0 0 - - -, f 5;
#X obj 877 115 r get-bpm-\$2;
#X msg 416 170 1;
#X msg 793 312 set \$1;
#X msg 793 334 0;
#X obj 257 722 spigot;
#X obj 882 686 &;
#X floatatom 544 262 5 0 0 0 - - -, f 5;
#X msg 452 173 0;
#X obj 544 240 != 0;
#X obj 473 99 r nsteps-\$1;
#X obj 417 98 %;
#X floatatom 877 535 5 0 0 0 - - -, f 5;
#X obj 489 554 ==;
#X obj 584 687 f;
#X obj 877 513 /;
#X obj 913 433 f;
#X obj 680 286 delay 2;
#X obj 680 314 bng 15 250 50 0 empty empty empty 17 7 0 10 -262144
-1 -1;
#X obj 680 336 delay 2;
#X obj 680 364 bng 15 250 50 0 empty empty empty 17 7 0 10 -262144
-1 -1;
#X obj 680 396 delay 2;
#X obj 680 424 bng 15 250 50 0 empty empty empty 17 7 0 10 -262144
-1 -1;
#X obj 576 468 f;
#X obj 680 446 delay 2;
#X obj 680 474 bng 15 250 50 0 empty empty empty 17 7 0 10 -262144
-1 -1;
#X obj 416 132 sel 2;
#X obj 680 216 r seq-\$1-repeat3;
#X connect 2 0 30 0;
#X connect 2 0 31 1;
#X connect 2 0 9 0;
#X connect 4 0 28 0;
#X connect 6 0 30 1;
#X connect 6 0 23 1;
#X connect 7 0 6 0;
#X connect 8 0 7 0;
#X connect 9 1 8 0;
#X connect 9 1 40 1;
#X connect 10 0 22 0;
#X connect 11 0 10 0;
#X connect 12 0 11 0;
#X connect 13 0 32 0;
#X connect 13 0 33 1;
#X connect 14 0 12 1;
#X connect 16 0 22 1;
#X connect 17 0 20 0;
#X connect 17 0 34 0;
#X connect 18 0 13 0;
#X connect 19 0 26 0;
#X connect 20 0 21 0;
#X connect 21 0 32 1;
#X connect 21 0 7 1;
#X connect 22 0 0 0;
#X connect 23 0 16 0;
#X connect 24 0 12 0;
#X connect 25 0 26 0;
#X connect 26 0 24 0;
#X connect 27 0 28 1;
#X connect 28 0 43 0;
#X connect 30 0 14 0;
#X connect 31 0 23 0;
#X connect 32 0 11 1;
#X connect 32 0 29 0;
#X connect 33 0 32 0;
#X connect 34 0 35 0;
#X connect 35 0 21 0;
#X connect 35 0 36 0;
#X connect 36 0 37 0;
#X connect 37 0 33 0;
#X connect 37 0 38 0;
#X connect 38 0 39 0;
#X connect 39 0 40 0;
#X connect 39 0 41 0;
#X connect 40 0 7 0;
#X connect 41 0 42 0;
#X connect 42 0 31 0;
#X connect 43 0 19 0;
#X connect 43 1 25 0;
#X connect 44 0 17 0;
#X restore 1118 763 pd repeat3;
#N canvas 469 152 1343 871 repeat4 0;
#X obj 56 817 outlet;
#X text 106 815 bang;
#X obj 94 203 inlet;
#X text 135 202 step toggle;
#X obj 427 39 inlet;
#X text 377 40 select;
#X floatatom 570 513 5 0 0 0 - - -, f 5;
#X obj 570 491 <;
#X obj 548 435 f;
#X obj 467 383 moses 1;
#X obj 360 675 bng 15 250 50 0 empty empty empty 17 7 0 10 -262144
-1 -1;
#X obj 360 637 metro 500;
#X obj 424 591 spigot;
#X floatatom 885 374 5 0 0 0 - - -, f 5;
#X floatatom 497 566 5 0 0 0 - - -, f 5;
#X text 374 94 select;
#X floatatom 890 698 5 0 0 0 - - -, f 5;
#X floatatom 688 231 5 0 0 0 - - -, f 5;
#X obj 885 105 r get-bpm-\$2;
#X msg 424 160 1;
#X msg 801 302 set \$1;
#X msg 801 324 0;
#X obj 265 712 spigot;
#X obj 890 676 &;
#X floatatom 552 252 5 0 0 0 - - -, f 5;
#X msg 460 163 0;
#X obj 552 230 != 0;
#X obj 481 89 r nsteps-\$1;
#X obj 425 88 %;
#X floatatom 885 525 5 0 0 0 - - -, f 5;
#X obj 497 544 ==;
#X obj 592 677 f;
#X obj 885 503 /;
#X obj 921 423 f;
#X obj 688 276 delay 2;
#X obj 688 304 bng 15 250 50 0 empty empty empty 17 7 0 10 -262144
-1 -1;
#X obj 688 326 delay 2;
#X obj 688 354 bng 15 250 50 0 empty empty empty 17 7 0 10 -262144
-1 -1;
#X obj 688 386 delay 2;
#X obj 688 414 bng 15 250 50 0 empty empty empty 17 7 0 10 -262144
-1 -1;
#X obj 584 458 f;
#X obj 688 436 delay 2;
#X obj 688 464 bng 15 250 50 0 empty empty empty 17 7 0 10 -262144
-1 -1;
#X obj 688 206 r seq-\$1-repeat4;
#X obj 424 122 sel 3;
#X connect 2 0 9 0;
#X connect 2 0 30 0;
#X connect 2 0 31 1;
#X connect 4 0 28 0;
#X connect 6 0 30 1;
#X connect 6 0 23 1;
#X connect 7 0 6 0;
#X connect 8 0 7 0;
#X connect 9 1 8 0;
#X connect 9 1 40 1;
#X connect 10 0 22 0;
#X connect 11 0 10 0;
#X connect 12 0 11 0;
#X connect 13 0 32 0;
#X connect 13 0 33 1;
#X connect 14 0 12 1;
#X connect 16 0 22 1;
#X connect 17 0 20 0;
#X connect 17 0 34 0;
#X connect 18 0 13 0;
#X connect 19 0 26 0;
#X connect 20 0 21 0;
#X connect 21 0 32 1;
#X connect 21 0 7 1;
#X connect 22 0 0 0;
#X connect 23 0 16 0;
#X connect 24 0 12 0;
#X connect 25 0 26 0;
#X connect 26 0 24 0;
#X connect 27 0 28 1;
#X connect 28 0 44 0;
#X connect 30 0 14 0;
#X connect 31 0 23 0;
#X connect 32 0 11 1;
#X connect 32 0 29 0;
#X connect 33 0 32 0;
#X connect 34 0 35 0;
#X connect 35 0 21 0;
#X connect 35 0 36 0;
#X connect 36 0 37 0;
#X connect 37 0 33 0;
#X connect 37 0 38 0;
#X connect 38 0 39 0;
#X connect 39 0 40 0;
#X connect 39 0 41 0;
#X connect 40 0 7 0;
#X connect 41 0 42 0;
#X connect 42 0 31 0;
#X connect 43 0 17 0;
#X connect 44 0 19 0;
#X connect 44 1 25 0;
#X restore 1118 783 pd repeat4;
#N canvas 471 152 1343 871 repeat5 0;
#X obj 56 817 outlet;
#X text 106 815 bang;
#X obj 94 203 inlet;
#X text 135 202 step toggle;
#X obj 427 39 inlet;
#X text 377 40 select;
#X floatatom 564 517 5 0 0 0 - - -, f 5;
#X obj 564 495 <;
#X obj 542 439 f;
#X obj 461 387 moses 1;
#X obj 354 679 bng 15 250 50 0 empty empty empty 17 7 0 10 -262144
-1 -1;
#X obj 354 641 metro 500;
#X obj 418 595 spigot;
#X floatatom 879 378 5 0 0 0 - - -, f 5;
#X floatatom 491 570 5 0 0 0 - - -, f 5;
#X text 368 98 select;
#X floatatom 884 702 5 0 0 0 - - -, f 5;
#X floatatom 682 235 5 0 0 0 - - -, f 5;
#X obj 879 109 r get-bpm-\$2;
#X msg 418 164 1;
#X msg 795 306 set \$1;
#X msg 795 328 0;
#X obj 259 716 spigot;
#X obj 884 680 &;
#X floatatom 546 256 5 0 0 0 - - -, f 5;
#X msg 454 167 0;
#X obj 546 234 != 0;
#X obj 475 93 r nsteps-\$1;
#X obj 419 92 %;
#X floatatom 879 529 5 0 0 0 - - -, f 5;
#X obj 491 548 ==;
#X obj 586 681 f;
#X obj 879 507 /;
#X obj 915 427 f;
#X obj 682 280 delay 2;
#X obj 682 308 bng 15 250 50 0 empty empty empty 17 7 0 10 -262144
-1 -1;
#X obj 682 330 delay 2;
#X obj 682 358 bng 15 250 50 0 empty empty empty 17 7 0 10 -262144
-1 -1;
#X obj 682 390 delay 2;
#X obj 682 418 bng 15 250 50 0 empty empty empty 17 7 0 10 -262144
-1 -1;
#X obj 578 462 f;
#X obj 682 440 delay 2;
#X obj 682 468 bng 15 250 50 0 empty empty empty 17 7 0 10 -262144
-1 -1;
#X obj 682 210 r seq-\$1-repeat5;
#X obj 418 126 sel 4;
#X connect 2 0 9 0;
#X connect 2 0 30 0;
#X connect 2 0 31 1;
#X connect 4 0 28 0;
#X connect 6 0 30 1;
#X connect 6 0 23 1;
#X connect 7 0 6 0;
#X connect 8 0 7 0;
#X connect 9 1 8 0;
#X connect 9 1 40 1;
#X connect 10 0 22 0;
#X connect 11 0 10 0;
#X connect 12 0 11 0;
#X connect 13 0 32 0;
#X connect 13 0 33 1;
#X connect 14 0 12 1;
#X connect 16 0 22 1;
#X connect 17 0 20 0;
#X connect 17 0 34 0;
#X connect 18 0 13 0;
#X connect 19 0 26 0;
#X connect 20 0 21 0;
#X connect 21 0 32 1;
#X connect 21 0 7 1;
#X connect 22 0 0 0;
#X connect 23 0 16 0;
#X connect 24 0 12 0;
#X connect 25 0 26 0;
#X connect 26 0 24 0;
#X connect 27 0 28 1;
#X connect 28 0 44 0;
#X connect 30 0 14 0;
#X connect 31 0 23 0;
#X connect 32 0 11 1;
#X connect 32 0 29 0;
#X connect 33 0 32 0;
#X connect 34 0 35 0;
#X connect 35 0 21 0;
#X connect 35 0 36 0;
#X connect 36 0 37 0;
#X connect 37 0 33 0;
#X connect 37 0 38 0;
#X connect 38 0 39 0;
#X connect 39 0 40 0;
#X connect 39 0 41 0;
#X connect 40 0 7 0;
#X connect 41 0 42 0;
#X connect 42 0 31 0;
#X connect 43 0 17 0;
#X connect 44 0 19 0;
#X connect 44 1 25 0;
#X restore 1118 803 pd repeat5;
#N canvas 469 152 1343 871 repeat6 0;
#X obj 56 817 outlet;
#X text 106 815 bang;
#X obj 94 203 inlet;
#X text 135 202 step toggle;
#X obj 427 39 inlet;
#X text 377 40 select;
#X floatatom 553 537 5 0 0 0 - - -, f 5;
#X obj 553 515 <;
#X obj 531 459 f;
#X obj 450 407 moses 1;
#X obj 343 699 bng 15 250 50 0 empty empty empty 17 7 0 10 -262144
-1 -1;
#X obj 343 661 metro 500;
#X obj 407 615 spigot;
#X floatatom 868 398 5 0 0 0 - - -, f 5;
#X floatatom 480 590 5 0 0 0 - - -, f 5;
#X text 357 118 select;
#X floatatom 873 722 5 0 0 0 - - -, f 5;
#X floatatom 671 255 5 0 0 0 - - -, f 5;
#X obj 868 129 r get-bpm-\$2;
#X msg 407 184 1;
#X msg 784 326 set \$1;
#X msg 784 348 0;
#X obj 248 736 spigot;
#X obj 873 700 &;
#X floatatom 535 276 5 0 0 0 - - -, f 5;
#X msg 443 187 0;
#X obj 535 254 != 0;
#X obj 464 113 r nsteps-\$1;
#X obj 408 112 %;
#X floatatom 868 549 5 0 0 0 - - -, f 5;
#X obj 480 568 ==;
#X obj 575 701 f;
#X obj 868 527 /;
#X obj 904 447 f;
#X obj 671 300 delay 2;
#X obj 671 328 bng 15 250 50 0 empty empty empty 17 7 0 10 -262144
-1 -1;
#X obj 671 350 delay 2;
#X obj 671 378 bng 15 250 50 0 empty empty empty 17 7 0 10 -262144
-1 -1;
#X obj 671 410 delay 2;
#X obj 671 438 bng 15 250 50 0 empty empty empty 17 7 0 10 -262144
-1 -1;
#X obj 567 482 f;
#X obj 671 460 delay 2;
#X obj 671 488 bng 15 250 50 0 empty empty empty 17 7 0 10 -262144
-1 -1;
#X obj 671 230 r seq-\$1-repeat6;
#X obj 408 146 sel 5;
#X connect 2 0 9 0;
#X connect 2 0 30 0;
#X connect 2 0 31 1;
#X connect 4 0 28 0;
#X connect 6 0 30 1;
#X connect 6 0 23 1;
#X connect 7 0 6 0;
#X connect 8 0 7 0;
#X connect 9 1 8 0;
#X connect 9 1 40 1;
#X connect 10 0 22 0;
#X connect 11 0 10 0;
#X connect 12 0 11 0;
#X connect 13 0 32 0;
#X connect 13 0 33 1;
#X connect 14 0 12 1;
#X connect 16 0 22 1;
#X connect 17 0 20 0;
#X connect 17 0 34 0;
#X connect 18 0 13 0;
#X connect 19 0 26 0;
#X connect 20 0 21 0;
#X connect 21 0 32 1;
#X connect 21 0 7 1;
#X connect 22 0 0 0;
#X connect 23 0 16 0;
#X connect 24 0 12 0;
#X connect 25 0 26 0;
#X connect 26 0 24 0;
#X connect 27 0 28 1;
#X connect 28 0 44 0;
#X connect 30 0 14 0;
#X connect 31 0 23 0;
#X connect 32 0 11 1;
#X connect 32 0 29 0;
#X connect 33 0 32 0;
#X connect 34 0 35 0;
#X connect 35 0 21 0;
#X connect 35 0 36 0;
#X connect 36 0 37 0;
#X connect 37 0 33 0;
#X connect 37 0 38 0;
#X connect 38 0 39 0;
#X connect 39 0 40 0;
#X connect 39 0 41 0;
#X connect 40 0 7 0;
#X connect 41 0 42 0;
#X connect 42 0 31 0;
#X connect 43 0 17 0;
#X connect 44 0 19 0;
#X connect 44 1 25 0;
#X restore 1119 822 pd repeat6;
#N canvas 473 152 1343 871 repeat7 0;
#X obj 56 817 outlet;
#X text 106 815 bang;
#X obj 94 203 inlet;
#X text 135 202 step toggle;
#X obj 424 51 inlet;
#X floatatom 570 567 5 0 0 0 - - -, f 5;
#X obj 570 545 <;
#X obj 548 489 f;
#X obj 467 437 moses 1;
#X obj 360 729 bng 15 250 50 0 empty empty empty 17 7 0 10 -262144
-1 -1;
#X obj 360 691 metro 500;
#X obj 424 645 spigot;
#X floatatom 885 428 5 0 0 0 - - -, f 5;
#X floatatom 497 620 5 0 0 0 - - -, f 5;
#X text 374 148 select;
#X floatatom 890 752 5 0 0 0 - - -, f 5;
#X floatatom 688 285 5 0 0 0 - - -, f 5;
#X obj 885 159 r get-bpm-\$2;
#X msg 424 214 1;
#X msg 801 356 set \$1;
#X msg 801 378 0;
#X obj 265 766 spigot;
#X obj 890 730 &;
#X floatatom 552 306 5 0 0 0 - - -, f 5;
#X msg 460 217 0;
#X obj 552 284 != 0;
#X obj 481 143 r nsteps-\$1;
#X obj 425 142 %;
#X floatatom 885 579 5 0 0 0 - - -, f 5;
#X obj 497 598 ==;
#X obj 592 731 f;
#X obj 885 557 /;
#X obj 921 477 f;
#X obj 688 330 delay 2;
#X obj 688 358 bng 15 250 50 0 empty empty empty 17 7 0 10 -262144
-1 -1;
#X obj 688 380 delay 2;
#X obj 688 408 bng 15 250 50 0 empty empty empty 17 7 0 10 -262144
-1 -1;
#X obj 688 440 delay 2;
#X obj 688 468 bng 15 250 50 0 empty empty empty 17 7 0 10 -262144
-1 -1;
#X obj 584 512 f;
#X obj 688 490 delay 2;
#X obj 688 518 bng 15 250 50 0 empty empty empty 17 7 0 10 -262144
-1 -1;
#X text 381 146 comment;
#X obj 424 176 sel 6;
#X obj 683 259 r seq-\$1-repeat7;
#X connect 2 0 8 0;
#X connect 2 0 30 1;
#X connect 2 0 29 0;
#X connect 4 0 27 0;
#X connect 5 0 29 1;
#X connect 5 0 22 1;
#X connect 6 0 5 0;
#X connect 7 0 6 0;
#X connect 8 1 7 0;
#X connect 8 1 39 1;
#X connect 9 0 21 0;
#X connect 10 0 9 0;
#X connect 11 0 10 0;
#X connect 12 0 31 0;
#X connect 12 0 32 1;
#X connect 13 0 11 1;
#X connect 15 0 21 1;
#X connect 16 0 19 0;
#X connect 16 0 33 0;
#X connect 17 0 12 0;
#X connect 18 0 25 0;
#X connect 19 0 20 0;
#X connect 20 0 31 1;
#X connect 20 0 6 1;
#X connect 21 0 0 0;
#X connect 22 0 15 0;
#X connect 23 0 11 0;
#X connect 24 0 25 0;
#X connect 25 0 23 0;
#X connect 26 0 27 1;
#X connect 27 0 43 0;
#X connect 29 0 13 0;
#X connect 30 0 22 0;
#X connect 31 0 10 1;
#X connect 31 0 28 0;
#X connect 32 0 31 0;
#X connect 33 0 34 0;
#X connect 34 0 20 0;
#X connect 34 0 35 0;
#X connect 35 0 36 0;
#X connect 36 0 32 0;
#X connect 36 0 37 0;
#X connect 37 0 38 0;
#X connect 38 0 39 0;
#X connect 38 0 40 0;
#X connect 39 0 6 0;
#X connect 40 0 41 0;
#X connect 41 0 30 0;
#X connect 43 0 18 0;
#X connect 43 1 24 0;
#X connect 44 0 16 0;
#X restore 1119 841 pd repeat7;
#N canvas 471 152 1343 871 repeat8 0;
#X obj 56 817 outlet;
#X text 106 815 bang;
#X obj 94 203 inlet;
#X text 135 202 step toggle;
#X obj 427 39 inlet;
#X text 377 40 select;
#X floatatom 573 499 5 0 0 0 - - -, f 5;
#X obj 573 477 <;
#X obj 551 421 f;
#X obj 470 369 moses 1;
#X obj 363 661 bng 15 250 50 0 empty empty empty 17 7 0 10 -262144
-1 -1;
#X obj 363 623 metro 500;
#X obj 427 577 spigot;
#X floatatom 888 360 5 0 0 0 - - -, f 5;
#X floatatom 500 552 5 0 0 0 - - -, f 5;
#X text 377 80 select;
#X floatatom 893 684 5 0 0 0 - - -, f 5;
#X floatatom 691 217 5 0 0 0 - - -, f 5;
#X obj 888 91 r get-bpm-\$2;
#X msg 427 146 1;
#X msg 804 288 set \$1;
#X msg 804 310 0;
#X obj 268 698 spigot;
#X obj 893 662 &;
#X floatatom 555 238 5 0 0 0 - - -, f 5;
#X msg 463 149 0;
#X obj 555 216 != 0;
#X obj 484 75 r nsteps-\$1;
#X obj 428 74 %;
#X floatatom 888 511 5 0 0 0 - - -, f 5;
#X obj 500 530 ==;
#X obj 595 663 f;
#X obj 888 489 /;
#X obj 924 409 f;
#X obj 691 262 delay 2;
#X obj 691 290 bng 15 250 50 0 empty empty empty 17 7 0 10 -262144
-1 -1;
#X obj 691 312 delay 2;
#X obj 691 340 bng 15 250 50 0 empty empty empty 17 7 0 10 -262144
-1 -1;
#X obj 691 372 delay 2;
#X obj 691 400 bng 15 250 50 0 empty empty empty 17 7 0 10 -262144
-1 -1;
#X obj 587 444 f;
#X obj 691 422 delay 2;
#X obj 691 450 bng 15 250 50 0 empty empty empty 17 7 0 10 -262144
-1 -1;
#X obj 440 111 sel 7;
#X obj 693 192 r seq-\$1-repeat8;
#X connect 2 0 9 0;
#X connect 2 0 30 0;
#X connect 2 0 31 1;
#X connect 4 0 28 0;
#X connect 6 0 30 1;
#X connect 6 0 23 1;
#X connect 7 0 6 0;
#X connect 8 0 7 0;
#X connect 9 1 8 0;
#X connect 9 1 40 1;
#X connect 10 0 22 0;
#X connect 11 0 10 0;
#X connect 12 0 11 0;
#X connect 13 0 32 0;
#X connect 13 0 33 1;
#X connect 14 0 12 1;
#X connect 16 0 22 1;
#X connect 17 0 20 0;
#X connect 17 0 34 0;
#X connect 18 0 13 0;
#X connect 19 0 26 0;
#X connect 20 0 21 0;
#X connect 21 0 32 1;
#X connect 21 0 7 1;
#X connect 22 0 0 0;
#X connect 23 0 16 0;
#X connect 24 0 12 0;
#X connect 25 0 26 0;
#X connect 26 0 24 0;
#X connect 27 0 28 1;
#X connect 28 0 43 0;
#X connect 30 0 14 0;
#X connect 31 0 23 0;
#X connect 32 0 11 1;
#X connect 32 0 29 0;
#X connect 33 0 32 0;
#X connect 34 0 35 0;
#X connect 35 0 21 0;
#X connect 35 0 36 0;
#X connect 36 0 37 0;
#X connect 37 0 33 0;
#X connect 37 0 38 0;
#X connect 38 0 39 0;
#X connect 39 0 40 0;
#X connect 39 0 41 0;
#X connect 40 0 7 0;
#X connect 41 0 42 0;
#X connect 42 0 31 0;
#X connect 43 0 19 0;
#X connect 43 1 25 0;
#X connect 44 0 17 0;
#X restore 1119 860 pd repeat8;
#N canvas 471 152 1343 871 repeat9 0;
#X obj 56 817 outlet;
#X text 106 815 bang;
#X obj 94 203 inlet;
#X text 135 202 step toggle;
#X obj 427 39 inlet;
#X text 377 40 select;
#X floatatom 533 529 5 0 0 0 - - -, f 5;
#X obj 533 507 <;
#X obj 511 451 f;
#X obj 430 399 moses 1;
#X obj 323 691 bng 15 250 50 0 empty empty empty 17 7 0 10 -262144
-1 -1;
#X obj 323 653 metro 500;
#X obj 387 607 spigot;
#X floatatom 848 390 5 0 0 0 - - -, f 5;
#X floatatom 460 582 5 0 0 0 - - -, f 5;
#X text 337 110 select;
#X floatatom 853 714 5 0 0 0 - - -, f 5;
#X floatatom 651 247 5 0 0 0 - - -, f 5;
#X obj 848 121 r get-bpm-\$2;
#X msg 387 176 1;
#X msg 764 318 set \$1;
#X msg 764 340 0;
#X obj 228 728 spigot;
#X obj 853 692 &;
#X floatatom 515 268 5 0 0 0 - - -, f 5;
#X msg 423 179 0;
#X obj 515 246 != 0;
#X obj 444 105 r nsteps-\$1;
#X obj 388 104 %;
#X floatatom 848 541 5 0 0 0 - - -, f 5;
#X obj 460 560 ==;
#X obj 555 693 f;
#X obj 848 519 /;
#X obj 884 439 f;
#X obj 651 292 delay 2;
#X obj 651 320 bng 15 250 50 0 empty empty empty 17 7 0 10 -262144
-1 -1;
#X obj 651 342 delay 2;
#X obj 651 370 bng 15 250 50 0 empty empty empty 17 7 0 10 -262144
-1 -1;
#X obj 651 402 delay 2;
#X obj 651 430 bng 15 250 50 0 empty empty empty 17 7 0 10 -262144
-1 -1;
#X obj 547 474 f;
#X obj 651 452 delay 2;
#X obj 651 480 bng 15 250 50 0 empty empty empty 17 7 0 10 -262144
-1 -1;
#X obj 387 138 sel 8;
#X obj 651 222 r seq-\$1-repeat9;
#X connect 2 0 9 0;
#X connect 2 0 31 1;
#X connect 2 0 30 0;
#X connect 4 0 28 0;
#X connect 6 0 30 1;
#X connect 6 0 23 1;
#X connect 7 0 6 0;
#X connect 8 0 7 0;
#X connect 9 1 8 0;
#X connect 9 1 40 1;
#X connect 10 0 22 0;
#X connect 11 0 10 0;
#X connect 12 0 11 0;
#X connect 13 0 32 0;
#X connect 13 0 33 1;
#X connect 14 0 12 1;
#X connect 16 0 22 1;
#X connect 17 0 20 0;
#X connect 17 0 34 0;
#X connect 18 0 13 0;
#X connect 19 0 26 0;
#X connect 20 0 21 0;
#X connect 21 0 32 1;
#X connect 21 0 7 1;
#X connect 22 0 0 0;
#X connect 23 0 16 0;
#X connect 24 0 12 0;
#X connect 25 0 26 0;
#X connect 26 0 24 0;
#X connect 27 0 28 1;
#X connect 28 0 43 0;
#X connect 30 0 14 0;
#X connect 31 0 23 0;
#X connect 32 0 11 1;
#X connect 32 0 29 0;
#X connect 33 0 32 0;
#X connect 34 0 35 0;
#X connect 35 0 21 0;
#X connect 35 0 36 0;
#X connect 36 0 37 0;
#X connect 37 0 33 0;
#X connect 37 0 38 0;
#X connect 38 0 39 0;
#X connect 39 0 40 0;
#X connect 39 0 41 0;
#X connect 40 0 7 0;
#X connect 41 0 42 0;
#X connect 42 0 31 0;
#X connect 43 0 19 0;
#X connect 43 1 25 0;
#X connect 44 0 17 0;
#X restore 1119 880 pd repeat9;
#N canvas 475 152 1343 871 repeat10 0;
#X obj 56 817 outlet;
#X text 106 815 bang;
#X obj 94 203 inlet;
#X text 135 202 step toggle;
#X obj 427 39 inlet;
#X text 377 40 select;
#X floatatom 569 507 5 0 0 0 - - -, f 5;
#X obj 569 485 <;
#X obj 547 429 f;
#X obj 466 377 moses 1;
#X obj 359 669 bng 15 250 50 0 empty empty empty 17 7 0 10 -262144
-1 -1;
#X obj 359 631 metro 500;
#X obj 423 585 spigot;
#X floatatom 884 368 5 0 0 0 - - -, f 5;
#X floatatom 496 560 5 0 0 0 - - -, f 5;
#X text 373 88 select;
#X floatatom 889 692 5 0 0 0 - - -, f 5;
#X floatatom 687 225 5 0 0 0 - - -, f 5;
#X obj 884 99 r get-bpm-\$2;
#X msg 423 154 1;
#X msg 800 296 set \$1;
#X msg 800 318 0;
#X obj 264 706 spigot;
#X obj 889 670 &;
#X floatatom 551 246 5 0 0 0 - - -, f 5;
#X msg 459 157 0;
#X obj 551 224 != 0;
#X obj 480 83 r nsteps-\$1;
#X obj 424 82 %;
#X floatatom 884 519 5 0 0 0 - - -, f 5;
#X obj 496 538 ==;
#X obj 591 671 f;
#X obj 884 497 /;
#X obj 920 417 f;
#X obj 687 270 delay 2;
#X obj 687 298 bng 15 250 50 0 empty empty empty 17 7 0 10 -262144
-1 -1;
#X obj 687 320 delay 2;
#X obj 687 348 bng 15 250 50 0 empty empty empty 17 7 0 10 -262144
-1 -1;
#X obj 687 380 delay 2;
#X obj 687 408 bng 15 250 50 0 empty empty empty 17 7 0 10 -262144
-1 -1;
#X obj 583 452 f;
#X obj 687 430 delay 2;
#X obj 687 458 bng 15 250 50 0 empty empty empty 17 7 0 10 -262144
-1 -1;
#X obj 423 116 sel 9;
#X obj 687 200 r seq-\$1-repeat10;
#X connect 2 0 9 0;
#X connect 2 0 30 0;
#X connect 2 0 31 1;
#X connect 4 0 28 0;
#X connect 6 0 30 1;
#X connect 6 0 23 1;
#X connect 7 0 6 0;
#X connect 8 0 7 0;
#X connect 9 1 8 0;
#X connect 9 1 40 1;
#X connect 10 0 22 0;
#X connect 11 0 10 0;
#X connect 12 0 11 0;
#X connect 13 0 32 0;
#X connect 13 0 33 1;
#X connect 14 0 12 1;
#X connect 16 0 22 1;
#X connect 17 0 20 0;
#X connect 17 0 34 0;
#X connect 18 0 13 0;
#X connect 19 0 26 0;
#X connect 20 0 21 0;
#X connect 21 0 32 1;
#X connect 21 0 7 1;
#X connect 22 0 0 0;
#X connect 23 0 16 0;
#X connect 24 0 12 0;
#X connect 25 0 26 0;
#X connect 26 0 24 0;
#X connect 27 0 28 1;
#X connect 28 0 43 0;
#X connect 30 0 14 0;
#X connect 31 0 23 0;
#X connect 32 0 11 1;
#X connect 32 0 29 0;
#X connect 33 0 32 0;
#X connect 34 0 35 0;
#X connect 35 0 21 0;
#X connect 35 0 36 0;
#X connect 36 0 37 0;
#X connect 37 0 33 0;
#X connect 37 0 38 0;
#X connect 38 0 39 0;
#X connect 39 0 40 0;
#X connect 39 0 41 0;
#X connect 40 0 7 0;
#X connect 41 0 42 0;
#X connect 42 0 31 0;
#X connect 43 0 19 0;
#X connect 43 1 25 0;
#X connect 44 0 17 0;
#X restore 1118 899 pd repeat10;
#N canvas 475 152 1343 871 repeat11 0;
#X obj 56 817 outlet;
#X text 106 815 bang;
#X obj 94 203 inlet;
#X text 135 202 step toggle;
#X obj 427 39 inlet;
#X text 377 40 select;
#X floatatom 572 498 5 0 0 0 - - -, f 5;
#X obj 572 476 <;
#X obj 550 420 f;
#X obj 469 368 moses 1;
#X obj 362 660 bng 15 250 50 0 empty empty empty 17 7 0 10 -262144
-1 -1;
#X obj 362 622 metro 500;
#X obj 426 576 spigot;
#X floatatom 887 359 5 0 0 0 - - -, f 5;
#X floatatom 499 551 5 0 0 0 - - -, f 5;
#X text 376 79 select;
#X floatatom 892 683 5 0 0 0 - - -, f 5;
#X floatatom 690 216 5 0 0 0 - - -, f 5;
#X obj 887 90 r get-bpm-\$2;
#X msg 426 145 1;
#X msg 803 287 set \$1;
#X msg 803 309 0;
#X obj 267 697 spigot;
#X obj 892 661 &;
#X floatatom 554 237 5 0 0 0 - - -, f 5;
#X msg 462 148 0;
#X obj 554 215 != 0;
#X obj 483 74 r nsteps-\$1;
#X obj 427 73 %;
#X floatatom 887 510 5 0 0 0 - - -, f 5;
#X obj 499 529 ==;
#X obj 594 662 f;
#X obj 887 488 /;
#X obj 923 408 f;
#X obj 690 261 delay 2;
#X obj 690 289 bng 15 250 50 0 empty empty empty 17 7 0 10 -262144
-1 -1;
#X obj 690 311 delay 2;
#X obj 690 339 bng 15 250 50 0 empty empty empty 17 7 0 10 -262144
-1 -1;
#X obj 690 371 delay 2;
#X obj 690 399 bng 15 250 50 0 empty empty empty 17 7 0 10 -262144
-1 -1;
#X obj 586 443 f;
#X obj 690 421 delay 2;
#X obj 690 449 bng 15 250 50 0 empty empty empty 17 7 0 10 -262144
-1 -1;
#X obj 426 107 sel 10;
#X obj 689 191 r seq-\$1-repeat11;
#X connect 2 0 9 0;
#X connect 2 0 30 0;
#X connect 2 0 31 1;
#X connect 4 0 28 0;
#X connect 6 0 30 1;
#X connect 6 0 23 1;
#X connect 7 0 6 0;
#X connect 8 0 7 0;
#X connect 9 1 8 0;
#X connect 9 1 40 1;
#X connect 10 0 22 0;
#X connect 11 0 10 0;
#X connect 12 0 11 0;
#X connect 13 0 32 0;
#X connect 13 0 33 1;
#X connect 14 0 12 1;
#X connect 16 0 22 1;
#X connect 17 0 20 0;
#X connect 17 0 34 0;
#X connect 18 0 13 0;
#X connect 19 0 26 0;
#X connect 20 0 21 0;
#X connect 21 0 32 1;
#X connect 21 0 7 1;
#X connect 22 0 0 0;
#X connect 23 0 16 0;
#X connect 24 0 12 0;
#X connect 25 0 26 0;
#X connect 26 0 24 0;
#X connect 27 0 28 1;
#X connect 28 0 43 0;
#X connect 30 0 14 0;
#X connect 31 0 23 0;
#X connect 32 0 11 1;
#X connect 32 0 29 0;
#X connect 33 0 32 0;
#X connect 34 0 35 0;
#X connect 35 0 21 0;
#X connect 35 0 36 0;
#X connect 36 0 37 0;
#X connect 37 0 33 0;
#X connect 37 0 38 0;
#X connect 38 0 39 0;
#X connect 39 0 40 0;
#X connect 39 0 41 0;
#X connect 40 0 7 0;
#X connect 41 0 42 0;
#X connect 42 0 31 0;
#X connect 43 0 19 0;
#X connect 43 1 25 0;
#X connect 44 0 17 0;
#X restore 1118 918 pd repeat11;
#N canvas 473 152 1343 871 repeat12 0;
#X obj 56 817 outlet;
#X text 106 815 bang;
#X obj 94 203 inlet;
#X text 135 202 step toggle;
#X obj 427 39 inlet;
#X text 377 40 select;
#X floatatom 569 508 5 0 0 0 - - -, f 5;
#X obj 569 486 <;
#X obj 547 430 f;
#X obj 466 378 moses 1;
#X obj 359 670 bng 15 250 50 0 empty empty empty 17 7 0 10 -262144
-1 -1;
#X obj 359 632 metro 500;
#X obj 423 586 spigot;
#X floatatom 884 369 5 0 0 0 - - -, f 5;
#X floatatom 496 561 5 0 0 0 - - -, f 5;
#X floatatom 889 693 5 0 0 0 - - -, f 5;
#X floatatom 687 226 5 0 0 0 - - -, f 5;
#X obj 884 100 r get-bpm-\$2;
#X msg 423 155 1;
#X msg 800 297 set \$1;
#X msg 800 319 0;
#X obj 264 707 spigot;
#X obj 889 671 &;
#X floatatom 551 247 5 0 0 0 - - -, f 5;
#X msg 459 158 0;
#X obj 551 225 != 0;
#X obj 480 84 r nsteps-\$1;
#X obj 424 83 %;
#X floatatom 884 520 5 0 0 0 - - -, f 5;
#X obj 496 539 ==;
#X obj 591 672 f;
#X obj 884 498 /;
#X obj 920 418 f;
#X obj 687 271 delay 2;
#X obj 687 299 bng 15 250 50 0 empty empty empty 17 7 0 10 -262144
-1 -1;
#X obj 687 321 delay 2;
#X obj 687 349 bng 15 250 50 0 empty empty empty 17 7 0 10 -262144
-1 -1;
#X obj 687 381 delay 2;
#X obj 687 409 bng 15 250 50 0 empty empty empty 17 7 0 10 -262144
-1 -1;
#X obj 583 453 f;
#X obj 687 431 delay 2;
#X obj 687 459 bng 15 250 50 0 empty empty empty 17 7 0 10 -262144
-1 -1;
#X obj 423 117 sel 11;
#X obj 687 201 r seq-\$1-repeat12;
#X connect 2 0 9 0;
#X connect 2 0 29 0;
#X connect 2 0 30 1;
#X connect 4 0 27 0;
#X connect 6 0 29 1;
#X connect 6 0 22 1;
#X connect 7 0 6 0;
#X connect 8 0 7 0;
#X connect 9 1 8 0;
#X connect 9 1 39 1;
#X connect 10 0 21 0;
#X connect 11 0 10 0;
#X connect 12 0 11 0;
#X connect 13 0 31 0;
#X connect 13 0 32 1;
#X connect 14 0 12 1;
#X connect 15 0 21 1;
#X connect 16 0 19 0;
#X connect 16 0 33 0;
#X connect 17 0 13 0;
#X connect 18 0 25 0;
#X connect 19 0 20 0;
#X connect 20 0 31 1;
#X connect 20 0 7 1;
#X connect 21 0 0 0;
#X connect 22 0 15 0;
#X connect 23 0 12 0;
#X connect 24 0 25 0;
#X connect 25 0 23 0;
#X connect 26 0 27 1;
#X connect 27 0 42 0;
#X connect 29 0 14 0;
#X connect 30 0 22 0;
#X connect 31 0 11 1;
#X connect 31 0 28 0;
#X connect 32 0 31 0;
#X connect 33 0 34 0;
#X connect 34 0 20 0;
#X connect 34 0 35 0;
#X connect 35 0 36 0;
#X connect 36 0 32 0;
#X connect 36 0 37 0;
#X connect 37 0 38 0;
#X connect 38 0 39 0;
#X connect 38 0 40 0;
#X connect 39 0 7 0;
#X connect 40 0 41 0;
#X connect 41 0 30 0;
#X connect 42 0 18 0;
#X connect 42 1 24 0;
#X connect 43 0 16 0;
#X restore 1118 938 pd repeat12;
#N canvas 475 152 1343 871 repeat13 0;
#X obj 56 817 outlet;
#X text 106 815 bang;
#X obj 94 203 inlet;
#X text 135 202 step toggle;
#X obj 427 39 inlet;
#X text 377 40 select;
#X floatatom 558 508 5 0 0 0 - - -, f 5;
#X obj 558 486 <;
#X obj 536 430 f;
#X obj 455 378 moses 1;
#X obj 348 670 bng 15 250 50 0 empty empty empty 17 7 0 10 -262144
-1 -1;
#X obj 348 632 metro 500;
#X obj 412 586 spigot;
#X floatatom 873 369 5 0 0 0 - - -, f 5;
#X floatatom 485 561 5 0 0 0 - - -, f 5;
#X text 362 89 select;
#X floatatom 878 693 5 0 0 0 - - -, f 5;
#X floatatom 676 226 5 0 0 0 - - -, f 5;
#X obj 873 100 r get-bpm-\$2;
#X msg 412 155 1;
#X msg 789 297 set \$1;
#X msg 789 319 0;
#X obj 253 707 spigot;
#X obj 878 671 &;
#X floatatom 540 247 5 0 0 0 - - -, f 5;
#X msg 448 158 0;
#X obj 540 225 != 0;
#X obj 469 84 r nsteps-\$1;
#X obj 413 83 %;
#X floatatom 873 520 5 0 0 0 - - -, f 5;
#X obj 485 539 ==;
#X obj 580 672 f;
#X obj 873 498 /;
#X obj 909 418 f;
#X obj 676 271 delay 2;
#X obj 676 299 bng 15 250 50 0 empty empty empty 17 7 0 10 -262144
-1 -1;
#X obj 676 321 delay 2;
#X obj 676 349 bng 15 250 50 0 empty empty empty 17 7 0 10 -262144
-1 -1;
#X obj 676 381 delay 2;
#X obj 676 409 bng 15 250 50 0 empty empty empty 17 7 0 10 -262144
-1 -1;
#X obj 572 453 f;
#X obj 676 431 delay 2;
#X obj 676 459 bng 15 250 50 0 empty empty empty 17 7 0 10 -262144
-1 -1;
#X obj 412 117 sel 12;
#X obj 676 201 r seq-\$1-repeat13;
#X connect 2 0 9 0;
#X connect 2 0 30 0;
#X connect 2 0 31 1;
#X connect 4 0 28 0;
#X connect 6 0 30 1;
#X connect 6 0 23 1;
#X connect 7 0 6 0;
#X connect 8 0 7 0;
#X connect 9 1 8 0;
#X connect 9 1 40 1;
#X connect 10 0 22 0;
#X connect 11 0 10 0;
#X connect 12 0 11 0;
#X connect 13 0 32 0;
#X connect 13 0 33 1;
#X connect 14 0 12 1;
#X connect 16 0 22 1;
#X connect 17 0 20 0;
#X connect 17 0 34 0;
#X connect 18 0 13 0;
#X connect 19 0 26 0;
#X connect 20 0 21 0;
#X connect 21 0 32 1;
#X connect 21 0 7 1;
#X connect 22 0 0 0;
#X connect 23 0 16 0;
#X connect 24 0 12 0;
#X connect 25 0 26 0;
#X connect 26 0 24 0;
#X connect 27 0 28 1;
#X connect 28 0 43 0;
#X connect 30 0 14 0;
#X connect 31 0 23 0;
#X connect 32 0 11 1;
#X connect 32 0 29 0;
#X connect 33 0 32 0;
#X connect 34 0 35 0;
#X connect 35 0 21 0;
#X connect 35 0 36 0;
#X connect 36 0 37 0;
#X connect 37 0 33 0;
#X connect 37 0 38 0;
#X connect 38 0 39 0;
#X connect 39 0 40 0;
#X connect 39 0 41 0;
#X connect 40 0 7 0;
#X connect 41 0 42 0;
#X connect 42 0 31 0;
#X connect 43 0 19 0;
#X connect 43 1 25 0;
#X connect 44 0 17 0;
#X restore 1118 957 pd repeat13;
#N canvas 473 152 1343 871 repeat14 0;
#X obj 56 817 outlet;
#X text 106 815 bang;
#X obj 94 203 inlet;
#X text 135 202 step toggle;
#X obj 427 39 inlet;
#X text 377 40 select;
#X floatatom 574 507 5 0 0 0 - - -, f 5;
#X obj 574 485 <;
#X obj 552 429 f;
#X obj 471 377 moses 1;
#X obj 364 669 bng 15 250 50 0 empty empty empty 17 7 0 10 -262144
-1 -1;
#X obj 364 631 metro 500;
#X obj 428 585 spigot;
#X floatatom 889 368 5 0 0 0 - - -, f 5;
#X floatatom 501 560 5 0 0 0 - - -, f 5;
#X text 378 88 select;
#X floatatom 894 692 5 0 0 0 - - -, f 5;
#X floatatom 692 225 5 0 0 0 - - -, f 5;
#X obj 889 99 r get-bpm-\$2;
#X msg 428 154 1;
#X msg 805 296 set \$1;
#X msg 805 318 0;
#X obj 269 706 spigot;
#X obj 894 670 &;
#X floatatom 556 246 5 0 0 0 - - -, f 5;
#X msg 464 157 0;
#X obj 556 224 != 0;
#X obj 485 83 r nsteps-\$1;
#X obj 429 82 %;
#X floatatom 889 519 5 0 0 0 - - -, f 5;
#X obj 501 538 ==;
#X obj 596 671 f;
#X obj 889 497 /;
#X obj 925 417 f;
#X obj 692 270 delay 2;
#X obj 692 298 bng 15 250 50 0 empty empty empty 17 7 0 10 -262144
-1 -1;
#X obj 692 320 delay 2;
#X obj 692 348 bng 15 250 50 0 empty empty empty 17 7 0 10 -262144
-1 -1;
#X obj 692 380 delay 2;
#X obj 692 408 bng 15 250 50 0 empty empty empty 17 7 0 10 -262144
-1 -1;
#X obj 588 452 f;
#X obj 692 430 delay 2;
#X obj 692 458 bng 15 250 50 0 empty empty empty 17 7 0 10 -262144
-1 -1;
#X obj 428 116 sel 13;
#X obj 692 200 r seq-\$1-repeat14;
#X connect 2 0 9 0;
#X connect 2 0 30 0;
#X connect 2 0 31 1;
#X connect 4 0 28 0;
#X connect 6 0 30 1;
#X connect 6 0 23 1;
#X connect 7 0 6 0;
#X connect 8 0 7 0;
#X connect 9 1 8 0;
#X connect 9 1 40 1;
#X connect 10 0 22 0;
#X connect 11 0 10 0;
#X connect 12 0 11 0;
#X connect 13 0 32 0;
#X connect 13 0 33 1;
#X connect 14 0 12 1;
#X connect 16 0 22 1;
#X connect 17 0 20 0;
#X connect 17 0 34 0;
#X connect 18 0 13 0;
#X connect 19 0 26 0;
#X connect 20 0 21 0;
#X connect 21 0 32 1;
#X connect 21 0 7 1;
#X connect 22 0 0 0;
#X connect 23 0 16 0;
#X connect 24 0 12 0;
#X connect 25 0 26 0;
#X connect 26 0 24 0;
#X connect 27 0 28 1;
#X connect 28 0 43 0;
#X connect 30 0 14 0;
#X connect 31 0 23 0;
#X connect 32 0 11 1;
#X connect 32 0 29 0;
#X connect 33 0 32 0;
#X connect 34 0 35 0;
#X connect 35 0 21 0;
#X connect 35 0 36 0;
#X connect 36 0 37 0;
#X connect 37 0 33 0;
#X connect 37 0 38 0;
#X connect 38 0 39 0;
#X connect 39 0 40 0;
#X connect 39 0 41 0;
#X connect 40 0 7 0;
#X connect 41 0 42 0;
#X connect 42 0 31 0;
#X connect 43 0 19 0;
#X connect 43 1 25 0;
#X connect 44 0 17 0;
#X restore 1119 976 pd repeat14;
#N canvas 473 152 1343 871 repeat15 0;
#X obj 56 817 outlet;
#X text 106 815 bang;
#X obj 94 203 inlet;
#X text 135 202 step toggle;
#X obj 427 39 inlet;
#X text 377 40 select;
#X floatatom 562 513 5 0 0 0 - - -, f 5;
#X obj 562 491 <;
#X obj 540 435 f;
#X obj 459 383 moses 1;
#X obj 352 675 bng 15 250 50 0 empty empty empty 17 7 0 10 -262144
-1 -1;
#X obj 352 637 metro 500;
#X obj 416 591 spigot;
#X floatatom 877 374 5 0 0 0 - - -, f 5;
#X floatatom 489 566 5 0 0 0 - - -, f 5;
#X text 366 94 select;
#X floatatom 882 698 5 0 0 0 - - -, f 5;
#X floatatom 680 231 5 0 0 0 - - -, f 5;
#X obj 877 105 r get-bpm-\$2;
#X msg 416 160 1;
#X msg 793 302 set \$1;
#X msg 793 324 0;
#X obj 257 712 spigot;
#X obj 882 676 &;
#X floatatom 544 252 5 0 0 0 - - -, f 5;
#X msg 452 163 0;
#X obj 544 230 != 0;
#X obj 473 89 r nsteps-\$1;
#X obj 417 88 %;
#X floatatom 877 525 5 0 0 0 - - -, f 5;
#X obj 489 544 ==;
#X obj 584 677 f;
#X obj 877 503 /;
#X obj 913 423 f;
#X obj 680 276 delay 2;
#X obj 680 304 bng 15 250 50 0 empty empty empty 17 7 0 10 -262144
-1 -1;
#X obj 680 326 delay 2;
#X obj 680 354 bng 15 250 50 0 empty empty empty 17 7 0 10 -262144
-1 -1;
#X obj 680 386 delay 2;
#X obj 680 414 bng 15 250 50 0 empty empty empty 17 7 0 10 -262144
-1 -1;
#X obj 576 458 f;
#X obj 680 436 delay 2;
#X obj 680 464 bng 15 250 50 0 empty empty empty 17 7 0 10 -262144
-1 -1;
#X obj 416 122 sel 14;
#X obj 680 206 r seq-\$1-repeat15;
#X connect 2 0 9 0;
#X connect 2 0 30 0;
#X connect 2 0 31 1;
#X connect 4 0 28 0;
#X connect 6 0 30 1;
#X connect 6 0 23 1;
#X connect 7 0 6 0;
#X connect 8 0 7 0;
#X connect 9 1 8 0;
#X connect 9 1 40 1;
#X connect 10 0 22 0;
#X connect 11 0 10 0;
#X connect 12 0 11 0;
#X connect 13 0 32 0;
#X connect 13 0 33 1;
#X connect 14 0 12 1;
#X connect 16 0 22 1;
#X connect 17 0 20 0;
#X connect 17 0 34 0;
#X connect 18 0 13 0;
#X connect 19 0 26 0;
#X connect 20 0 21 0;
#X connect 21 0 32 1;
#X connect 21 0 7 1;
#X connect 22 0 0 0;
#X connect 23 0 16 0;
#X connect 24 0 12 0;
#X connect 25 0 26 0;
#X connect 26 0 24 0;
#X connect 27 0 28 1;
#X connect 28 0 43 0;
#X connect 30 0 14 0;
#X connect 31 0 23 0;
#X connect 32 0 11 1;
#X connect 32 0 29 0;
#X connect 33 0 32 0;
#X connect 34 0 35 0;
#X connect 35 0 21 0;
#X connect 35 0 36 0;
#X connect 36 0 37 0;
#X connect 37 0 33 0;
#X connect 37 0 38 0;
#X connect 38 0 39 0;
#X connect 39 0 40 0;
#X connect 39 0 41 0;
#X connect 40 0 7 0;
#X connect 41 0 42 0;
#X connect 42 0 31 0;
#X connect 43 0 19 0;
#X connect 43 1 25 0;
#X connect 44 0 17 0;
#X restore 1119 995 pd repeat15;
#N canvas 475 152 1343 871 repeat16 0;
#X obj 56 817 outlet;
#X text 106 815 bang;
#X obj 94 203 inlet;
#X text 135 202 step toggle;
#X obj 427 39 inlet;
#X text 377 40 select;
#X floatatom 572 500 5 0 0 0 - - -, f 5;
#X obj 572 478 <;
#X obj 550 422 f;
#X obj 469 370 moses 1;
#X obj 362 662 bng 15 250 50 0 empty empty empty 17 7 0 10 -262144
-1 -1;
#X obj 362 624 metro 500;
#X obj 426 578 spigot;
#X floatatom 887 361 5 0 0 0 - - -, f 5;
#X floatatom 499 553 5 0 0 0 - - -, f 5;
#X text 376 81 select;
#X floatatom 892 685 5 0 0 0 - - -, f 5;
#X floatatom 690 218 5 0 0 0 - - -, f 5;
#X obj 887 92 r get-bpm-\$2;
#X msg 426 147 1;
#X msg 803 289 set \$1;
#X msg 803 311 0;
#X obj 267 699 spigot;
#X obj 892 663 &;
#X floatatom 554 239 5 0 0 0 - - -, f 5;
#X msg 462 150 0;
#X obj 554 217 != 0;
#X obj 483 76 r nsteps-\$1;
#X obj 427 75 %;
#X floatatom 887 512 5 0 0 0 - - -, f 5;
#X obj 499 531 ==;
#X obj 594 664 f;
#X obj 887 490 /;
#X obj 923 410 f;
#X obj 690 263 delay 2;
#X obj 690 291 bng 15 250 50 0 empty empty empty 17 7 0 10 -262144
-1 -1;
#X obj 690 313 delay 2;
#X obj 690 341 bng 15 250 50 0 empty empty empty 17 7 0 10 -262144
-1 -1;
#X obj 690 373 delay 2;
#X obj 690 401 bng 15 250 50 0 empty empty empty 17 7 0 10 -262144
-1 -1;
#X obj 586 445 f;
#X obj 690 423 delay 2;
#X obj 690 451 bng 15 250 50 0 empty empty empty 17 7 0 10 -262144
-1 -1;
#X obj 426 109 sel 15;
#X obj 690 193 r seq-\$1-repeat16;
#X connect 2 0 9 0;
#X connect 2 0 30 0;
#X connect 2 0 31 1;
#X connect 4 0 28 0;
#X connect 6 0 30 1;
#X connect 6 0 23 1;
#X connect 7 0 6 0;
#X connect 8 0 7 0;
#X connect 9 1 8 0;
#X connect 9 1 40 1;
#X connect 10 0 22 0;
#X connect 11 0 10 0;
#X connect 12 0 11 0;
#X connect 13 0 32 0;
#X connect 13 0 33 1;
#X connect 14 0 12 1;
#X connect 16 0 22 1;
#X connect 17 0 20 0;
#X connect 17 0 34 0;
#X connect 18 0 13 0;
#X connect 19 0 26 0;
#X connect 20 0 21 0;
#X connect 21 0 32 1;
#X connect 21 0 7 1;
#X connect 22 0 0 0;
#X connect 23 0 16 0;
#X connect 24 0 12 0;
#X connect 25 0 26 0;
#X connect 26 0 24 0;
#X connect 27 0 28 1;
#X connect 28 0 43 0;
#X connect 30 0 14 0;
#X connect 31 0 23 0;
#X connect 32 0 11 1;
#X connect 32 0 29 0;
#X connect 33 0 32 0;
#X connect 34 0 35 0;
#X connect 35 0 21 0;
#X connect 35 0 36 0;
#X connect 36 0 37 0;
#X connect 37 0 33 0;
#X connect 37 0 38 0;
#X connect 38 0 39 0;
#X connect 39 0 40 0;
#X connect 39 0 41 0;
#X connect 40 0 7 0;
#X connect 41 0 42 0;
#X connect 42 0 31 0;
#X connect 43 0 19 0;
#X connect 43 1 25 0;
#X connect 44 0 17 0;
#X restore 1119 1014 pd repeat16;
#X obj 1313 566 r v-pattern-\$1;
#X obj 1205 101 r r-pattern-\$1;
#X obj 1295 630 f;
#X obj 1312 650 f;
#X obj 1330 670 f;
#X obj 1347 690 f;
#X obj 1365 710 f;
#X obj 1382 730 f;
#X obj 1400 750 f;
#X obj 1417 770 f;
#X obj 1435 790 f;
#X obj 1452 810 f;
#X obj 1470 830 f;
#X obj 1487 850 f;
#X obj 1505 870 f;
#X obj 1522 890 f;
#X obj 1540 910 f;
#X obj 1557 930 f;
#X obj 1295 1016 outlet;
#X obj 1205 165 s seq-\$1-repeat1;
#X obj 1222 186 s seq-\$1-repeat2;
#X obj 1240 207 s seq-\$1-repeat3;
#X obj 1257 228 s seq-\$1-repeat4;
#X obj 1275 248 s seq-\$1-repeat5;
#X obj 1292 269 s seq-\$1-repeat6;
#X obj 1310 290 s seq-\$1-repeat7;
#X obj 1326 310 s seq-\$1-repeat8;
#X obj 1345 331 s seq-\$1-repeat9;
#X obj 1362 352 s seq-\$1-repeat10;
#X obj 1380 373 s seq-\$1-repeat11;
#X obj 1397 394 s seq-\$1-repeat12;
#X obj 1415 414 s seq-\$1-repeat13;
#X obj 1432 435 s seq-\$1-repeat14;
#X obj 1450 456 s seq-\$1-repeat15;
#X obj 1467 477 s seq-\$1-repeat16;
#X obj 394 30 loadbang;
#X msg 395 60 100 100 100 100 100 100 100 100 100 100 100 100 100 100
100 100;
#X msg 306 62 16;
#X connect 0 0 39 0;
#X connect 0 1 40 0;
#X connect 0 2 41 0;
#X connect 0 3 42 0;
#X connect 0 4 43 0;
#X connect 0 5 44 0;
#X connect 0 6 45 0;
#X connect 0 7 46 0;
#X connect 0 8 47 0;
#X connect 0 9 48 0;
#X connect 0 10 49 0;
#X connect 0 11 50 0;
#X connect 0 12 51 0;
#X connect 0 13 52 0;
#X connect 0 14 53 0;
#X connect 0 15 54 0;
#X connect 1 0 37 0;
#X connect 1 0 75 0;
#X connect 2 0 37 0;
#X connect 2 0 76 0;
#X connect 3 0 37 0;
#X connect 3 0 77 0;
#X connect 4 0 37 0;
#X connect 4 0 78 0;
#X connect 5 0 37 0;
#X connect 5 0 79 0;
#X connect 6 0 37 0;
#X connect 6 0 80 0;
#X connect 7 0 37 0;
#X connect 7 0 81 0;
#X connect 8 0 37 0;
#X connect 8 0 82 0;
#X connect 9 0 37 0;
#X connect 9 0 83 0;
#X connect 10 0 37 0;
#X connect 10 0 84 0;
#X connect 11 0 37 0;
#X connect 11 0 85 0;
#X connect 12 0 37 0;
#X connect 12 0 86 0;
#X connect 13 0 37 0;
#X connect 13 0 87 0;
#X connect 14 0 37 0;
#X connect 14 0 88 0;
#X connect 15 0 37 0;
#X connect 15 0 89 0;
#X connect 16 0 37 0;
#X connect 16 0 90 0;
#X connect 17 0 39 1;
#X connect 17 0 57 0;
#X connect 18 0 40 1;
#X connect 18 0 58 0;
#X connect 19 0 41 1;
#X connect 19 0 59 0;
#X connect 20 0 42 1;
#X connect 20 0 60 0;
#X connect 21 0 43 1;
#X connect 21 0 61 0;
#X connect 22 0 44 1;
#X connect 22 0 62 0;
#X connect 23 0 45 1;
#X connect 23 0 63 0;
#X connect 24 0 46 1;
#X connect 24 0 64 0;
#X connect 25 0 47 1;
#X connect 25 0 65 0;
#X connect 26 0 48 1;
#X connect 26 0 66 0;
#X connect 27 0 49 1;
#X connect 27 0 67 0;
#X connect 28 0 50 1;
#X connect 28 0 68 0;
#X connect 29 0 51 1;
#X connect 29 0 69 0;
#X connect 30 0 52 1;
#X connect 30 0 70 0;
#X connect 31 0 53 1;
#X connect 31 0 71 0;
#X connect 32 0 54 1;
#X connect 32 0 72 0;
#X connect 33 0 17 0;
#X connect 33 1 18 0;
#X connect 33 2 19 0;
#X connect 33 3 20 0;
#X connect 33 4 21 0;
#X connect 33 5 22 0;
#X connect 33 6 23 0;
#X connect 33 7 24 0;
#X connect 33 8 25 0;
#X connect 33 9 26 0;
#X connect 33 10 27 0;
#X connect 33 11 28 0;
#X connect 33 12 29 0;
#X connect 33 13 30 0;
#X connect 33 14 31 0;
#X connect 33 15 32 0;
#X connect 34 0 35 0;
#X connect 34 0 57 1;
#X connect 34 0 58 1;
#X connect 34 0 59 1;
#X connect 34 0 60 1;
#X connect 34 0 61 1;
#X connect 34 0 62 1;
#X connect 34 0 63 1;
#X connect 34 0 64 1;
#X connect 34 0 65 1;
#X connect 34 0 66 1;
#X connect 34 0 67 1;
#X connect 34 0 68 1;
#X connect 34 0 69 1;
#X connect 34 0 70 1;
#X connect 34 0 71 1;
#X connect 34 0 72 1;
#X connect 35 0 0 0;
#X connect 36 0 35 1;
#X connect 38 0 33 0;
#X connect 39 0 1 0;
#X connect 40 0 2 0;
#X connect 41 0 3 0;
#X connect 42 0 4 0;
#X connect 43 0 5 0;
#X connect 44 0 6 0;
#X connect 45 0 7 0;
#X connect 46 0 8 0;
#X connect 47 0 9 0;
#X connect 48 0 10 0;
#X connect 49 0 11 0;
#X connect 50 0 12 0;
#X connect 51 0 13 0;
#X connect 52 0 14 0;
#X connect 53 0 15 0;
#X connect 54 0 16 0;
#X connect 55 0 75 1;
#X connect 55 1 76 1;
#X connect 55 2 77 1;
#X connect 55 3 78 1;
#X connect 55 4 79 1;
#X connect 55 5 80 1;
#X connect 55 6 81 1;
#X connect 55 7 82 1;
#X connect 55 8 83 1;
#X connect 55 9 84 1;
#X connect 55 10 85 1;
#X connect 55 11 86 1;
#X connect 55 12 87 1;
#X connect 55 13 88 1;
#X connect 55 14 89 1;
#X connect 55 15 90 1;
#X connect 56 0 92 0;
#X connect 56 1 93 0;
#X connect 56 2 94 0;
#X connect 56 3 95 0;
#X connect 56 4 96 0;
#X connect 56 5 97 0;
#X connect 56 6 98 0;
#X connect 56 7 99 0;
#X connect 56 8 100 0;
#X connect 56 9 101 0;
#X connect 56 10 102 0;
#X connect 56 11 103 0;
#X connect 56 12 104 0;
#X connect 56 13 105 0;
#X connect 56 14 106 0;
#X connect 56 15 107 0;
#X connect 57 0 1 0;
#X connect 58 0 2 0;
#X connect 59 0 3 0;
#X connect 60 0 4 0;
#X connect 61 0 5 0;
#X connect 62 0 6 0;
#X connect 63 0 7 0;
#X connect 64 0 8 0;
#X connect 65 0 9 0;
#X connect 66 0 10 0;
#X connect 67 0 11 0;
#X connect 68 0 12 0;
#X connect 69 0 13 0;
#X connect 70 0 14 0;
#X connect 71 0 15 0;
#X connect 72 0 16 0;
#X connect 73 0 55 0;
#X connect 74 0 56 0;
#X connect 75 0 91 0;
#X connect 76 0 91 0;
#X connect 77 0 91 0;
#X connect 78 0 91 0;
#X connect 79 0 91 0;
#X connect 80 0 91 0;
#X connect 81 0 91 0;
#X connect 82 0 91 0;
#X connect 83 0 91 0;
#X connect 84 0 91 0;
#X connect 85 0 91 0;
#X connect 86 0 91 0;
#X connect 87 0 91 0;
#X connect 89 0 91 0;
#X connect 90 0 91 0;
#X connect 108 0 109 0;
#X connect 108 0 110 0;
#X connect 109 0 55 0;
#X connect 110 0 35 1;
#X coords 0 1048 1 1047 652 203 0;
