#N canvas 792 690 450 300 10;
#X obj 262 136 osc~;
#X obj 262 158 *~;
#X obj 262 210 outlet~;
#X obj 261 109 +~;
#X obj 261 75 inlet;
#X obj 311 75 inlet~;
#X obj 155 119 vsl 15 50 0 1 0 0 empty empty empty -20 98 0 10 -262144
-1 -1 0 1;
#X floatatom 107 155 5 0 0 0 - - -, f 5;
#X obj 107 117 tgl 15 0 empty sine-\$1-on empty 17 7 0 10 -262144 -1
-1 0 1;
#X obj 144 195 switch~;
#X obj 262 180 *~;
#X obj 361 75 inlet~;
#X obj 83 65 r sine-\$1-f;
#X obj 192 53 r sine-\$1-vol;
#X obj 168 30 r sine-\$1-on;
#X obj 79 10 loadbang;
#X msg 79 33 1;
#X msg 119 33 0.5;
#X connect 0 0 1 0;
#X connect 1 0 10 0;
#X connect 3 0 0 0;
#X connect 4 0 3 0;
#X connect 4 0 7 0;
#X connect 5 0 3 1;
#X connect 6 0 1 1;
#X connect 8 0 9 0;
#X connect 10 0 2 0;
#X connect 11 0 10 1;
#X connect 12 0 3 0;
#X connect 12 0 7 0;
#X connect 13 0 6 0;
#X connect 14 0 8 0;
#X connect 15 0 16 0;
#X connect 15 0 17 0;
#X connect 16 0 8 0;
#X connect 17 0 6 0;
#X coords 0 -1 1 1 80 80 1 100 100;
