#N canvas 886 267 403 413 10;
#X obj 269 296 *~;
#X obj 205 296 *~;
#X obj 347 127 f;
#X obj 347 149 - 1;
#X obj 347 190 * -1;
#X obj 116 177 hsl 50 15 0 1 0 0 empty empty empty -2 -8 0 10 -262144
-1 -1 2450 1;
#X obj 106 27 loadbang;
#X msg 106 49 0.5;
#X obj 204 88 *~;
#X obj 203 27 inlet~;
#X obj 153 120 vsl 15 50 0 5 0 0 empty empty empty 0 -9 0 10 -262144
-1 -1 1470 1;
#X obj 113 120 tgl 15 0 empty empty empty 17 7 0 10 -262144 -1 -1 1
1;
#X obj 17 187 switch~;
#X obj 268 88 *~;
#X obj 267 27 inlet~;
#X obj 205 365 dac~ \$1 \$2;
#X obj 19 30 r switch;
#X msg 145 55 1;
#X msg 173 74 1.5;
#X connect 0 0 15 1;
#X connect 1 0 15 0;
#X connect 2 0 3 0;
#X connect 3 0 4 0;
#X connect 4 0 1 1;
#X connect 5 0 2 0;
#X connect 5 0 0 1;
#X connect 6 0 7 0;
#X connect 6 0 17 0;
#X connect 6 0 18 0;
#X connect 7 0 5 0;
#X connect 8 0 1 0;
#X connect 9 0 8 0;
#X connect 10 0 8 1;
#X connect 10 0 13 1;
#X connect 11 0 12 0;
#X connect 13 0 0 0;
#X connect 14 0 13 0;
#X connect 16 0 11 0;
#X connect 17 0 11 0;
#X connect 18 0 10 0;
#X coords 0 -1 1 1 80 100 1 100 100;
