#N canvas 335 273 450 300 10;
#X obj 262 158 *~;
#X obj 262 210 outlet~;
#X obj 261 109 +~;
#X obj 261 75 inlet;
#X obj 311 75 inlet~;
#X obj 159 119 vsl 15 50 0 1 0 0 empty empty empty -20 98 0 10 -262144
-1 -1 0 1;
#X floatatom 105 154 5 0 0 0 - - -, f 5;
#X obj 106 117 tgl 15 0 empty sine-\$1-on empty 17 7 0 10 -262144 -1
-1 0 1;
#X obj 159 204 switch~;
#X obj 262 180 *~;
#X obj 361 75 inlet~;
#X obj 83 63 r triangle-\$1-f;
#X obj 192 53 r triangle-\$1-vol;
#X obj 168 30 r triangle-\$1-on;
#N canvas 453 78 494 300 triangle 0;
#X obj 14 16 loadbang;
#X obj 14 38 t b b;
#X obj 19 207 phasor~;
#X obj 19 273 outlet~;
#X obj 18 229 *~ 2051;
#X obj 19 185 inlet~;
#X msg 41 69 \; triangle sinesum 2051 1 0 -0.111111 0 0.4 0 -0.204082
0 0.0123457 0 -0.00826446 0;
#X obj 267 138 table triangle;
#X obj 19 251 tabread4~ triangle;
#X msg 14 125 \; triangle normalize;
#X connect 0 0 1 0;
#X connect 1 0 9 0;
#X connect 1 1 6 0;
#X connect 2 0 4 0;
#X connect 4 0 8 0;
#X connect 5 0 2 0;
#X connect 8 0 3 0;
#X restore 262 133 pd triangle;
#X obj 79 10 loadbang;
#X msg 79 33 1;
#X msg 119 33 0.5;
#X connect 0 0 9 0;
#X connect 2 0 14 0;
#X connect 3 0 2 0;
#X connect 3 0 6 0;
#X connect 4 0 2 1;
#X connect 5 0 0 1;
#X connect 7 0 8 0;
#X connect 9 0 1 0;
#X connect 10 0 9 1;
#X connect 11 0 2 0;
#X connect 11 0 6 0;
#X connect 12 0 5 0;
#X connect 13 0 7 0;
#X connect 14 0 0 0;
#X connect 15 0 16 0;
#X connect 15 0 17 0;
#X connect 16 0 7 0;
#X connect 17 0 5 0;
#X coords 0 -1 1 1 80 80 1 100 100;
