#N canvas 1074 471 450 300 10;
#X obj 142 112 vsl 15 50 0 1 0 0 empty empty empty 0 -9 0 10 -262144
-1 -1 0 1;
#X obj 44 108 inlet~;
#X obj 44 130 *~;
#X obj 44 152 outlet~;
#X connect 0 0 2 1;
#X connect 1 0 2 0;
#X connect 2 0 3 0;
#X coords 0 -1 1 1 62 70 1 100 100;
